<?xml version="1.0" encoding="UTF-8" standalone="no"?>
<!DOCTYPE svg  PUBLIC '-//W3C//DTD SVG 1.1//EN'  'http://www.w3.org/Graphics/SVG/1.1/DTD/svg11.dtd'>
<svg xmlns="http://www.w3.org/2000/svg">
<defs>
<font id="Gigi-Regular" horiz-adv-x="891">
<font-face underline-position="-157" font-weight="400" descent="-410" panose-1="4 4 5 4 6 16 7 2 13 2" units-per-em="2048" unicode-range="U+0020-25CA" bbox="-317 -842 2132 1988" x-height="729" underline-thickness="121" font-family="Gigi" ascent="1638" cap-height="1458"/>
<missing-glyph horiz-adv-x="2048"/>
<glyph glyph-name=".notdef" horiz-adv-x="2048"/>
<glyph glyph-name="glyph1" horiz-adv-x="0"/>
<glyph glyph-name="glyph2" horiz-adv-x="2048"/>
<glyph glyph-name="space" horiz-adv-x="430" unicode=" "/>
<glyph glyph-name="exclam" horiz-adv-x="625" unicode="!" d="M354 -27l-73 21q-15 19 -56 59q-10 33 -10 49v27l21 16q2 21 16 60l6 -4h27l26 -23h13l10 -37l-10 -12h-17l-12 -20l39 -7l16 -10zM420 1237h-10l-7 -16q12 -31 12 -82q0 -14 -3 -25v-4l-2 -7v-1l-27 -23l-16 -123l16 -43v-39l10 -10l6 -26l-39 -39q6 -47 27 -109 q0 -33 -27 -86l11 -33l-11 -4q-14 -49 -25 -128q-12 -84 -24 -126l-20 -16l-10 16l-23 6l-33 27l-10 27q17 76 17 117q0 7 -1 22h5l-11 45q2 17 18 78l-2 12l1 2q0 16 -8 62l-3 16l-3 15q-7 47 -7 57l-6 6l6 10l-12 16v11l16 6v20h17q3 25 6 59v1q0 12 -3 48q-3 35 -3 52v13 v6l-17 32l11 17h-5l-10 86l15 49l-31 76l20 -7q7 43 7 72q0 6 -1 17l-10 26q80 -18 119 -59q13 -22 47 -56l16 -4z"/>
<glyph glyph-name="quotedbl" horiz-adv-x="541" unicode='&quot;' d="M246 1081l-10 -215l-31 -37q-4 -27 -10 -56q-5 -25 -5 -40q0 -12 3 -45q1 -6 4 -43h-19l-18 -24q-15 44 -19 129l-6 14q1 13 1 18q0 41 -25 90v5q0 18 -2 35q-9 90 -9 120q0 5 2 5l15 32q3 38 12 88h6l4 25l21 -4v-54l28 -12l15 6l18 -16l21 -6q1 -2 3 -13zM437 1034v-30 l-15 -21q-1 -29 -1 -45q0 -101 -26 -127q-3 -56 -3 -78q0 -9 1 -20q-15 -35 -20 -60l-25 -22q0 14 -2 84l-7 21l-15 43l-14 44l-7 21l8 22q-2 20 -3 26q-13 62 -13 78q0 3 2 3q5 127 6 155l21 7l18 16l14 -6l22 -21v18h34l4 -24l12 -18l-13 -25v-37q2 1 7 3l6 3q8 -3 9 -9 v-1z"/>
<glyph glyph-name="numbersign" horiz-adv-x="1217" unicode="#" d="M858 678h-12l-17 14l-32 -7h-17l-4 -17q-46 0 -74 16l-8 -8h-16l-10 -8l-43 34h-23q-38 -14 -53 -26h-6l-2 2l-6 -6q-14 -2 -50 -8q-12 1 -28 4l-4 2q-11 -56 -11 -70l11 -16q-27 -37 -31 -97h-12l-19 -68h-16l-27 -28v-20l17 12l-3 12l7 15l12 4l2 -8q18 -4 37 -17l2 10 l55 11l17 -4l45 14q35 -27 67 -27q6 0 19 2l16 -12l35 5h17v18q33 0 48 -5q9 8 9 13h18l4 16h14l15 16l-2 9l6 6v1v1l1 7v2v2l1 7v2h4q3 7 4 9q3 5 3 8v14l9 2q24 100 23 115l-8 16q10 13 16 31zM1221 717l-43 -19h-13l-4 -6h-6l-8 -6l-8 6l-17 -16l-69 8l-4 -8l-56 -12 l-16 4l-43 -13l-14 -16v-39q-56 -121 -56 -130q-2 -8 -19 -75l-5 -20l6 -4h24q24 10 52 28h8l2 -4l4 8q23 2 63 17l11 -10l10 10l14 -6l8 8v8l9 4q20 -17 30 -31h6l9 17l16 -6l4 -15l17 -10q3 -19 -76 -35l-31 -39l-4 7q-22 -3 -40 -3q-36 0 -66 7q-16 4 -23 5q-25 5 -62 9 l5 -8q-5 -2 -9 -2q-20 -54 -36 -94q-5 -8 -5 -23q-17 -20 -24 -43v-20l-27 -52q4 -16 4 -29q0 -35 -22 -79l-12 -6l6 -9l-4 -8l-13 13l-6 -11l-26 27h-5l-14 33l-6 2v41l-10 4l16 26l13 -6v25v4t-1 11v13v15l9 12l4 10l8 -4q45 69 45 137q-1 0 -4 -1q-10 -1 -19 -3 q-213 -1 -241 -10q-27 8 -111 8h-8q-20 -77 -45 -110q1 -5 1 -6q0 -2 -9 -51q-1 -6 -2 -17h-9q-23 -106 -43 -125q14 0 27 8l-10 -35l-25 -12l-4 -4l-2 6q-1 0 -2 -1q-3 0 -11 -3q-9 -3 -12 -3q-1 -1 -2 -1l-43 33l-14 26l7 13v24l6 7q22 24 36 30q27 27 68 219l-6 2h-35 q-2 0 -4 -1h-2q-3 -1 -4 -1q-2 0 -7 -1q-1 0 -8 -1q-16 -3 -65 -12q-31 16 -110 16h-9v19l14 16l23 8h14l2 9h23l16 -9l43 19h12l5 8h8l6 4l8 -4l16 16l72 -22q3 10 4 14q14 45 13 49l12 27l8 2l4 8h8q28 40 35 82l27 33v39q0 1 1 2l1 3v2q2 4 2 5q-30 3 -55 21l-9 -9l-10 9 l-10 -9l-14 4l-7 -6v-10l-10 -2q-24 18 -29 31h-8l-8 -17l-17 4v17l-20 8q-4 14 -6 19q-19 59 -18 69l10 -6l8 10l14 -4l11 -12q32 -8 75 -8l13 6l4 -6q13 2 18 3q51 11 56 11q21 1 63 -4q20 76 39 145q18 54 49 172l14 4l-6 11l4 8l11 -15l8 13l24 -27h4l15 -33l8 -2v-41 l8 -6l-16 -24l-10 6l-5 -25q7 -21 7 -34q0 -4 -2 -11l-13 6q1 -2 4 -12q2 -13 4 -29l-3 -6v-18q-26 -11 -29 -27h-19l-4 -16h-12l-14 -17v-8l-7 -6v-2q-1 -2 -1 -7v-4l-1 -7v-2h-2l11 -11q51 8 74 8q14 0 39 -6q27 -5 32 -6l-2 8q31 3 39 4q49 7 55 7q9 0 35 5q7 1 23 1 q9 0 80 2h18l14 52h17l27 28v47l7 12q0 27 52 166q-13 0 -29 -8l12 35l23 10l4 6l4 -6q21 6 26 8l41 -33l15 -28l-5 -11v-26q-4 -4 -14 -12q-9 -9 -30 -25q-18 -20 -18 -50v-4q1 -16 1 -29q0 -25 -2 -31q0 -1 -13 -35q-6 -16 -6 -28q0 -4 1 -10l-10 -20q1 0 4 1h2q2 1 4 1 q9 -2 12 -4q24 -8 34 -8q2 0 9 2h35q3 0 10 4q5 1 9 1q14 0 40 -5q13 -3 26 -3q4 0 9 1z"/>
<glyph glyph-name="dollar" d="M442 545l-36 12q0 -17 -2 -36q-8 -79 -8 -115q0 -7 3 -7l3 -161q4 -29 4 -43q0 -13 -7 -27l29 -12q10 70 10 90q0 21 -2 52q-4 55 -4 107q0 94 10 140zM647 270q-16 21 -37 27l11 6l-11 43l-22 27l-4 26l-6 7q-6 21 -37 79h-6l-23 17l6 -21q-9 -18 -10 -168v-118 q0 -20 4 -60l12 10l4 -4q52 0 66 11l22 36l-12 33l17 27l16 6zM362 1069l-12 16l-20 7l-6 -17h-11l-6 -16l-26 -6l-11 -21h-16l-10 -33q4 -40 4 -80q0 -41 -4 -81q24 -48 53 -66q5 -14 22 -49v-10l11 6q0 44 6 100q5 67 5 68q0 4 -7 37l16 53l-4 39h4zM469 913l-4 37l-14 4 v6q0 47 14 119l-33 27v-10l-22 -27q13 -45 13 -68q0 -2 -1 -8l-16 -16q0 -147 10 -307l26 -17q8 17 8 56q0 11 -1 32t-1 41q0 36 5 56l12 4q4 19 4 35q0 17 -4 30zM778 303l-6 -6v-23h-16l-6 -36l-21 -7l16 -16q-24 -49 -26 -63l-33 -43h-6l-37 -39q-60 -15 -98 -33l-27 6 v-10h-10q-23 -116 -23 -201v-1q8 -59 13 -95l-17 4l-6 -4l-37 26q1 23 1 38q0 64 -7 200l6 23q-13 5 -27 5q-6 0 -12 -1q-7 -39 -7 -58q0 -5 1 -12l-14 -6v-33l4 -4q-1 -20 -1 -28q0 -41 11 -107l-20 -6l-17 16l-26 6l-6 17v237l-37 -6l-6 16l-86 11l6 16h-17v23 q-20 9 -32 26l-17 37l6 23l-6 6v20q1 4 1 5q3 18 5 18l-6 4q7 19 7 39q0 8 -1 16l27 21l-6 6l22 32l17 5l4 6h26q7 -59 7 -67q0 -6 -7 -42l13 -33l20 -16l6 -14l21 -17l28 -6l11 17v118q0 34 -6 102q-5 71 -5 98q0 25 11 87l-33 21h-27l-49 38l-16 -6l-7 13q-54 101 -65 131 q-14 39 -20 84q16 38 16 75l12 11v43l11 10l10 27l10 6l-4 6l-12 -12h-15v16l54 65q28 9 43 23l6 10l10 -6l16 39l21 10q10 -2 16 -2q22 0 49 12v70l-6 92v12v5l-16 6l-4 63l4 13q42 0 65 -17l27 -33l-4 -6l4 -37h-4q-3 -24 -6 -58v-1v-1l6 -52l-12 -29v-16h49l10 -4 q13 102 13 189q0 22 -1 52l17 -4v10l14 -20l12 4l43 -59q-21 -27 -26 -93l4 -16l-10 -37l16 -10q7 -24 7 -40q0 -5 -1 -9l10 6l54 -33v-6l32 -10q46 -44 70 -53q18 -42 18 -66q0 -7 -2 -16l-4 -6l4 -17h-16l-4 -59h-29l-4 -10l-27 6l11 26l-11 33l-22 4q-34 57 -66 82h-14 l-6 -16l-10 -6q-3 -22 -6 -53v-1q0 -10 4 -38q6 -36 6 -58v-6l-17 -27v-49l-26 -6l16 -43v-21l10 -16q-5 -37 -10 -49q13 -20 17 -43l69 -37l-4 10l10 6l21 -12l12 -20l37 -27q63 -89 76 -178l10 -6z" unicode="$"/>
<glyph glyph-name="percent" horiz-adv-x="1040" unicode="%" d="M868 260l-20 14h-6v7h-11q-13 0 -26 -7l-33 -43l-6 -75q24 -59 29 -103l14 -16q23 50 57 214l1 6zM864 6q-44 -20 -76 -22q-50 28 -92 69l-26 66v76q0 10 6 31q5 16 5 27q0 3 -1 7l49 129l27 10l16 -10h23l43 -22l16 -21l37 -12q15 -31 33 -86h4v-70q0 -30 -21 -91 q-25 -66 -43 -81zM928 1135l-15 -33v-17l-49 -49v-20l-22 -12v-21q-39 -59 -80 -86l-27 4l-16 -20l4 -17l-10 -6l10 -16q1 -30 -13 -78q-18 -64 -20 -78l-26 -33q-26 -10 -33 -22l-15 -4q-17 -44 -38 -60v-26l-11 -23v-20l-6 -13l6 -10h-10q-13 -35 -13 -61q0 -5 1 -15h-17 l-16 -16l-37 10l-10 -4l-6 -16l10 -6l-31 -5l-6 -16l-33 -16l-10 -17q3 -26 4 -49q-8 -36 -14 -53l-17 -16v-11l-43 -32l-22 -39l6 -11q-29 -39 -33 -59l-22 -20v-17l-17 -16l-4 -23l-16 6l-43 60h-6l-33 37v26l11 14q54 66 103 125q36 41 60 101q30 74 70 96v6h10 q3 29 16 47v13h11q4 13 16 26l23 -6l16 6l27 54l-11 6q14 13 29 45q21 45 41 61l6 29l10 10l4 27l-4 6l17 4l16 22l4 -6l12 33v43l31 70v12q94 104 115 162l10 4q3 17 33 39l10 26l10 -16v16l17 -10l6 -10l6 4l14 -20l17 -7l39 23zM393 868l-10 13l-4 20l-6 6q-12 41 -12 68 q0 5 1 18l-43 23l5 10l16 10l-21 11v-11h-16q-13 -38 -13 -55q0 -3 1 -8l-31 -45l-12 -60l6 -14q-1 -6 -1 -13q0 -17 10 -46q9 -29 9 -43q0 -6 -2 -13l33 -43h16l31 27h6l17 27zM442 848l-10 -10l-6 -56l-20 -20l-7 -33q-28 -42 -32 -59h-11l-16 -43l-6 -6l-27 10l-20 28 l-60 11l-71 53l-15 33q2 9 2 19q0 53 -30 116l12 33l16 4q5 30 5 52q0 8 -1 19l17 43l16 17h17l10 10h6l4 23h12l11 14l43 16l65 -26q20 -25 43 -33q13 -39 60 -107v-59q-3 -24 -7 -49z"/>
<glyph glyph-name="ampersand" horiz-adv-x="1788" unicode="&amp;" d="M733 1069l-65 96q-32 -13 -76 -14l-6 -16l-37 -17l-27 -49v-27l-12 -22l12 -21l-6 -16l10 -43l49 -39l17 -4v-6l16 6l10 -6l7 22h10q46 56 49 103l16 26l11 -10h16zM1757 201q-6 -34 -26 -82l-17 -10l-4 -27l-16 -6v-10q-37 -29 -99 -56q-22 -1 -51 -5q-42 -5 -67 -5 q-30 0 -104 28q-63 25 -68 25l-11 33h-32l-50 39l-4 -16l-125 118v4l-43 23l-6 33l-26 16l-11 -6l4 -16q-71 59 -96 102q-39 8 -116 102q-56 64 -89 76q-33 54 -55 70l-4 28l-55 64l6 -47l-60 63l-36 -10l-7 -10l-22 -12l-10 12q-14 -30 -60 -60v-22l6 -6l-55 -37l-26 -37 v-22l-17 6l-26 -17v-26l22 -56h-12v-36l-17 -7l2 -7q5 -21 5 -30l16 -28l33 -21l4 -53h-4l-6 -6l32 -76l23 -22v-4l-29 4l23 -21h6l106 -76q19 -2 56 -10q57 2 129 21l20 22l49 -6q5 25 49 70l-16 75l-10 7q-33 106 -33 172q-41 43 -137 43q-15 0 -47 -4q6 -49 6 -99v-1 q-4 -32 -6 -52l39 -59l20 -11q24 27 33 80l-49 49l32 43l60 -32v-27l10 -27v-49l-47 -49l-6 -20l-37 6l-23 -17l-118 60l-43 63l-17 66l17 76l6 4l-6 16l10 6l12 -6l10 23l-10 6h21l22 14l60 6l4 6h16l10 -6l6 6l82 -6l27 -33l70 -26q17 -41 17 -65q0 -4 -1 -11 q27 -49 27 -76l16 -16q4 -17 16 -31v-88q-15 -17 -22 -47l-10 -6l10 -17q-5 -33 -37 -79q-37 0 -76 -23q-21 2 -34 2q-51 0 -105 -18h-10q-105 0 -240 102v10l-10 23l-33 -10q-93 65 -112 112l4 10l-11 23l7 20q-27 49 -27 121q0 91 37 140l22 16q3 15 21 33h10l-14 10 l118 96l11 -4l86 76v-12h16l43 22l-6 33l6 10l-33 43q-2 40 -59 135q-10 67 -10 86t10 49l16 -6q1 22 17 55q15 33 16 48l129 65h66l4 -26q52 -27 141 -93l16 -32l-6 -21l13 -6l-7 -16l11 -11l-27 -22v-43q0 -7 6 -43l-28 -37l-15 10q-48 -51 -98 -112h22l-12 -23v-6 q22 -13 49 -37l17 -6q23 -14 86 -113l-4 -22h10l16 -43l10 -4l5 -7v-2l2 -1q4 -7 66 -59q71 -59 92 -74q58 -38 110 -52l49 -70l43 -22l6 -16h17l4 -21l22 -6l-6 -23l82 -30l33 -66l47 -22l33 -43q21 0 43 -11v17l16 -17l59 -16l76 39l39 70l4 26l-10 43l-37 39l-98 -22 l-17 16l27 37l92 39l70 -49l22 -43l17 -7l6 -20z"/>
<glyph glyph-name="quotesingle" horiz-adv-x="348" unicode="&apos;" d="M246 1081l-10 -215l-31 -37q-4 -27 -10 -56q-5 -25 -5 -40q0 -12 3 -45q1 -6 4 -43h-19l-18 -24q-15 44 -19 129l-6 14q1 13 1 18q0 41 -25 90v5q0 18 -2 35q-9 90 -9 120q0 5 2 5l15 32q3 38 12 88h6l4 25l21 -4v-54l28 -12l15 6l18 -16l21 -6q1 -2 3 -13z"/>
<glyph glyph-name="parenleft" horiz-adv-x="922" unicode="(" d="M819 1499l-18 -41l-29 -12l-35 -47l-12 -6l-2 -3q-16 -21 -23 -32l-18 -6l-51 -60h-6l-19 -61l-6 -4l12 -15l-53 -94l-8 15l-10 -19q1 -60 -29 -100l16 -84l-6 -37q14 -39 13 -57l16 -9v-47q-1 -7 -6 -23q-5 -13 -5 -24q0 -4 1 -10l-13 -14l13 -11l-6 -59l-23 -29l6 -37 l17 -28v-62h-7q8 -62 8 -94q0 -7 -1 -18l6 -11q-1 -10 -1 -15q0 -36 30 -97q37 -75 36 -96q35 -58 76 -119q35 -34 102 -119v-8l11 -4l14 -25l-18 -18l-29 -4q-209 117 -256 227q-9 26 -16 81q-5 46 -15 66l-10 11h-19l7 -58q-69 114 -156 367v6l2 32l2 49l1 19l1 16 q2 74 2 82q0 17 -18 93l22 6l25 72l-12 28l-13 -4q5 61 22 98q55 103 185 244q20 16 43 39q22 39 35 57q41 59 131 125h84z"/>
<glyph glyph-name="parenright" horiz-adv-x="922" unicode=")" d="M606 537q-3 -26 -28 -66l-19 6v-12q-10 -39 -41 -143q-4 -7 -16 -29q-32 -61 -34 -69q-11 -35 -32 -115q-21 -29 -55 -76q-1 -4 -6 -21q-20 -41 -37 -88h-10l-41 -47l14 -12l-18 -6v-13h-25v19l-18 -6v18l-33 29l33 96l18 23v12l6 6l125 315l-18 19v29l7 21l2 6l9 27 q30 91 30 174q0 5 -1 15l8 13q-2 36 -2 53q0 74 18 123l13 -33l12 69l-16 19l-19 -19l4 -4l-18 -8l-23 60v43q-29 55 -29 101q0 7 1 21l18 -16q-21 76 -84 207q-56 115 -61 131q-79 45 -123 129l35 -14l6 4h16q56 -27 162 -133q99 -102 129 -158l4 -25q38 -43 78 -138 q38 -96 41 -152l8 -11q0 -5 1 -12q0 -4 6 -77q4 -41 4 -64q0 -11 -1 -25h-10v-96h-18l-7 12v-41q11 -38 17 -49z"/>
<glyph glyph-name="asterisk" horiz-adv-x="1042" unicode="*" d="M930 977l-6 -8h-56l-20 10v4l-35 8l-10 -20l-37 -21q-23 8 -51 8q-11 0 -29 -2l-12 9l-78 -7l29 -32q94 -37 172 -166l-15 -8l-12 4q-30 21 -86 65q-32 37 -109 92l7 -39l-4 -8q14 -45 32 -73l-4 -48l-22 -16l20 -100l29 -27l-17 -12l-12 11h-18l-15 7l-16 -6 q-42 42 -72 49q11 85 11 104q0 18 -13 60q-8 26 -8 45q0 3 2 12l1 2l1 3q2 9 2 12l-22 -12l-15 -21l-4 4q-27 -24 -65 -78l-17 -6l-6 -14l-8 6l-12 -23v-16h-8l-27 21l-16 53l20 18l14 29q59 30 127 127l-24 14l-19 -8l-4 -10l-12 10l-23 -12h-8l-10 -19h-8l-4 -8h-27 q-14 0 -47 10l-16 -20l-19 12l-35 8l-12 23l-12 4q-13 48 -41 70l-6 22l14 -8l27 -4l6 -6l6 8l20 -8l70 8q51 -21 178 -21l-4 15q-40 26 -86 112l-20 9q-9 18 -29 34h-14l-29 72v12l12 9v-13l8 4q27 -41 70 -67l8 -21l47 -22l48 -66v-14l28 -35v62q0 22 -11 62 q-11 42 -13 59q0 -1 1 -1q4 5 4 16q0 24 -7 88q-7 63 -15 78q-3 5 -8 13l25 -8l-9 12q107 -41 133 -80v-12l-26 -21l4 -18l8 -4l8 -31l-4 -18h-6q1 -8 1 -17q0 -19 -5 -43l12 -30l-4 -20h-14l4 -36l-8 -18l8 -17q144 144 176 222l31 -43l6 -52l-12 -10l-9 -20h-18l-16 -8 l-15 -27q-25 -10 -73 -84l-19 -8h-16l2 -4l53 -6l47 16q132 -1 184 -21l37 9q5 -50 21 -74zM449 1254v0v0z"/>
<glyph glyph-name="plus" horiz-adv-x="954" unicode="+" d="M842 565l-6 -69l-11 10l-12 -6h-20l-76 22q-7 -19 -31 -33l-16 7v-13h-27l-12 13l-21 -7l-32 11l-23 -11l-20 7q-2 -25 -2 -50t2 -71l3 -12l11 -48l13 -62l5 -22l15 -10q-5 -70 -51 -70q-6 0 -15 1l-63 30l-11 27q3 26 3 42q0 36 -11 64l-16 -4q9 34 9 115q0 20 -1 70 q-26 -10 -49 -13l-43 27l-96 -47l-17 16l-22 -10q-22 11 -39 11q-2 0 -10 -1l-25 60l70 30l6 6q64 -10 95 -10q11 0 136 17l1 2q1 2 1 6l-22 74q5 8 8 16q22 50 22 63q0 16 -5 39q-1 5 -2 8l-7 33v2l-22 17l5 5q41 42 56 51q18 12 39 13l57 -39l-6 -8l14 -20 q-6 -48 -14 -150q2 -18 2 -53q0 -41 -6 -59h14q14 -1 50 10q22 6 38 6q19 0 76 -8q35 -5 62 -5q6 0 16 1z"/>
<glyph glyph-name="comma" horiz-adv-x="485" unicode="," d="M344 59q-8 -28 -22 -43l-11 7q-6 -27 -26 -72v-33l-27 -27l-16 7h-11l-12 6v10h-10l-6 20h12l4 17l23 16q19 66 20 88v2v2l6 17l-26 10l-6 -27l-43 -6l-21 17l-29 49l7 65q14 11 22 31l47 6q21 -13 39 -26l27 -7l20 -20h6l6 -27l21 -16z"/>
<glyph glyph-name="hyphen" horiz-adv-x="913" unicode="-" d="M801 565l-6 -69l-11 10l-12 -6h-20l-56 22q-6 -19 -30 -33l-17 7v-13h-26l-13 13l-20 -7l-33 11l-22 -11l-31 11l-12 -4l-5 4l-22 -4l-16 4l-11 10q-43 -24 -82 -27l-43 27l-75 -47l-17 16l-22 -10q-22 11 -39 11q-2 0 -10 -1l-25 60l70 30l6 6q64 -10 79 -10q3 0 161 19 q56 -3 75 -3q44 0 81 11q21 6 38 6q18 0 65 -8q28 -5 52 -5q8 0 16 1z"/>
<glyph glyph-name="period" horiz-adv-x="485" unicode="." d="M332 113l-4 -80l-13 -6h-4q-40 0 -75 -21l-60 43l-22 37l12 59l14 17l6 26l39 7q10 -9 38 -22q27 -12 36 -21h6l-6 -23z"/>
<glyph glyph-name="slash" horiz-adv-x="1001" unicode="/" d="M1001 1417l-10 -57l8 -10l-26 -31l-12 10l-13 -29q0 -53 -6 -63l-16 -12l-6 -15l-13 11q-79 -99 -94 -183l-4 2q0 -1 1 -8v-2v-2q1 -7 1 -9v-4l-1 -11v-7q-1 -14 -1 -16l-7 -8v-21q-13 -5 -22 -11q-22 -15 -28 -18h-25l-10 -19h-19l-22 -17v-10l-10 -11q-9 -16 -9 -28h-4 q-8 -13 -16 -21v-18h-14q-26 -51 -60 -152l6 -26q-46 -47 -59 -122h-18l-46 -86h-22l-41 -30l-12 -64l-11 -12q-1 -17 -41 -85q-39 -65 -55 -83q-21 -61 -35 -96l-10 2q-4 -7 -29 -68q-30 -71 -59 -94q8 -1 12 -1q12 0 25 5l-23 -47l-34 -8l-7 -6l-6 12q-11 -8 -35 -8 l-51 55l-12 41l10 15l8 34q27 27 66 41q49 40 174 359q20 24 43 94l23 31h12l6 11h14q44 45 64 101l45 43q3 16 10 50q74 113 112 178q7 18 64 134q12 26 19 38q16 26 25 43q25 44 32 56q10 15 13 22q1 3 12 26q25 21 45 53l4 29l45 64v7q0 64 53 136l19 6l-5 12l7 11 l12 -21l12 12l29 -41h4l14 -51z"/>
<glyph glyph-name="zero" horiz-adv-x="903" unicode="0" d="M778 571l-16 29q4 24 4 37q0 12 -4 33q-5 28 -8 47q-9 69 -21 94q-12 28 -37 57l-10 50q-38 51 -108 75l-21 33l-39 16l6 -10l-39 10l-4 -16l-6 6l-6 -16h-31l-28 -39l12 -21l-6 -28h-17l-10 -4q-30 -33 -39 -70l-20 -23l-6 11l-21 -11l-6 -36q-34 -43 -34 -80 q0 -4 1 -13h-4l-22 -59v-16l10 -23l-4 -20h-17v-39q8 -33 11 -37l-11 -10l4 -17l-4 -12l11 -31l32 11l-10 -23l14 -70l-14 -10l4 -22l-16 6l-10 -11l22 -38l14 -11l7 4l43 -59l22 -10l21 22l16 -65l-10 -33l10 -33l102 -30l33 4l43 22l33 49v-22l43 26l43 70l-4 92 q49 107 63 228l17 -23q1 11 22 59zM799 438q-9 -14 -17 -30l-1 -4q-17 -69 -19 -80l10 -5q-13 -88 -65 -237h-17l-4 -12l-6 6v20l-43 -47l6 -12q-17 -37 -72 -70l13 23l-39 -13l-43 7l-10 6l-17 -6l-22 10l-21 -4v10l-10 10l-12 -4q-14 12 -54 17q-99 57 -168 145v10h-10 l6 17l-16 10q-44 132 -57 182q-25 95 -29 184l10 13q0 88 27 118v43l22 54h15l12 16l-33 23l10 43l23 32h4q30 54 88 86l21 33l10 -6l16 16l-10 5l6 6h4l23 10l4 29q16 10 33 36h16q43 0 86 -26h12l17 -10h20l6 -17q107 -25 211 -108l4 -23q35 -34 62 -120q20 -68 20 -128 v-6h-6q1 -8 6 -46v-9q0 -124 -22 -197z"/>
<glyph glyph-name="one" horiz-adv-x="731" unicode="1" d="M659 16l-71 -43h-31q-49 0 -108 11l-7 -11l-53 4l-10 7q-23 -12 -46 -12q-4 0 -14 1l-22 -10l-10 4l-13 -16l-10 12l-4 -6l-22 16l-11 33l-26 17l4 10l10 4v12h29l10 -6l6 16l10 -10h11l10 -6l12 23l-6 30l16 6v11h11q-1 11 -1 22q0 23 7 37q-6 11 -11 33q1 23 1 37v19 l-2 104q0 78 12 104l20 16l6 27l-6 16l6 13l-6 26l-16 -16l-21 20v13l-16 26v17h16l-10 59l21 76l22 -17l10 5q-16 57 -37 75l5 162l-76 -63l-37 -11q-52 -52 -174 -98l-37 16q62 17 82 33l4 21q59 64 115 88l20 26l-6 -26l16 4v27l39 32q7 19 43 67q31 41 37 68l99 -10v-49 q8 -15 32 -43q12 -28 12 -42q0 -2 -1 -7h-7l-4 -92q31 -49 37 -74l-10 -6v-10l-16 -13l-17 -30q-2 -12 -6 -45v-1q3 -23 6 -47l23 -43l-17 -22l11 6v-59q0 -3 -4 -14q-7 -18 -7 -58v-7v-7q0 -51 -8 -105q-4 -33 -4 -57v-6l-4 -6q8 -65 37 -189l-2 -11h-15l-10 -15v-72l178 6 z"/>
<glyph glyph-name="two" horiz-adv-x="946" unicode="2" d="M381 270v27h-10v-6l-13 -10l13 -17zM922 221q-3 -21 -23 -49q1 -10 1 -16q0 -21 -11 -43l10 -11l-10 -16l10 -37l-33 -12l-16 -14l-4 -13l-49 -4l-27 31l-39 6v10l-20 17h-15q-57 0 -61 -4l-98 16l-80 -23l-33 11l-6 -11l-53 -36l-33 -7l-10 -22l-27 -27l-23 -4 q-46 30 -135 74l17 16l6 -4l6 33h-23l-6 10q0 36 28 101q26 60 28 67h16l59 80l4 16l-10 -6l-6 12l29 11l-6 -27l10 -6l43 92l6 -22q13 14 43 39l65 108q52 36 97 53q26 63 112 185l-14 -7l-6 17q18 45 18 90q0 13 -2 33l-22 39l-33 10l-43 65l-37 11l-27 22q-7 -1 -16 -1 q-17 0 -59 11q-41 11 -59 11q-12 0 -44 -11l4 -6l-86 -20l-16 -17q-5 -27 -43 -75q-4 -33 -4 -54q0 -23 4 -59l49 -39l43 10v-26l17 6l20 26v23l-10 27l22 20v39h-12l-4 -16l-23 -6v-5h-16l-20 27l4 10l22 11l10 16l13 6l14 -10l39 -6q22 -16 43 -70q0 -57 -23 -102h-47 l-6 -39l-37 -17q-29 20 -82 49l-16 -6l-4 13h-12q-28 44 -76 69l-4 60l-23 49l17 59l16 -12l33 43l33 16q15 18 26 60q25 -3 38 -3q47 0 81 29h27l16 13l-6 10q25 -2 64 -6h1q13 0 49 12l5 -12l6 6l26 -6l23 6l20 -17l43 -6v-10l39 -4v-16l21 4l22 -4l17 4q25 -34 43 -47 l-33 -13q53 -26 86 -75l27 -76l32 -31l-10 -6l-10 -23l4 -10q-10 -5 -16 -27l12 -26l-6 -17v-38l-27 -31l-27 -12l-49 -64l-6 4l-4 -10l-12 6q-113 -74 -140 -145l-43 -33v-12l-16 -4l-27 -50l-22 -6l-6 -14l-4 4l-17 -16l-6 -48l6 -16l-16 -55l-10 -10h-17l-10 -27l-6 -6 l6 -4l-16 -29h53q126 1 172 23l39 -23l32 -4q94 -16 103 -16l4 -17l23 -6l-6 -10v-6l16 -4l33 4q16 21 65 75q21 12 47 39z"/>
<glyph glyph-name="three" horiz-adv-x="838" unicode="3" d="M766 313l-23 -69l-16 16q-19 -30 -47 -65q1 -10 1 -15q0 -18 -7 -39l-27 -39l-43 -26h-12l-14 -10h-13q-55 -25 -135 -72q-17 -5 -30 -5q-12 0 -23 5l10 -10h-43q-23 6 -33 10q-38 -4 -59 -4q-62 0 -162 86l-20 43l-13 6l-4 20l-22 17v33q15 59 22 79q29 39 49 50v6l15 4 l16 16l66 29h4q69 0 147 -33l10 -16l-16 -11h16l7 -32l4 16h32v-12h11l-11 -60l7 -20l-27 -6l-59 43l4 12h-17l-16 14v-10l-14 27q-51 -4 -109 -17l-6 -14h-27l-22 -49v-59q31 -85 135 -129l65 4l43 26l7 -10l20 6l-10 10q38 19 82 60l10 -33q39 52 53 119l10 -4l39 26 l11 33l-17 70h-4l4 63l17 -10l6 -27h4v23l12 -23l4 60l-10 26l6 7l-22 49l-21 4v-21q-50 41 -151 103l-17 -13q-33 14 -63 14q-4 0 -19 -1l-20 -27l-33 -6l-22 20l-5 29q-12 9 -32 43h16l6 4h74l55 23h33l90 80l-4 -15l27 10v17h10l-4 20l4 -4q0 51 22 90l-6 13l6 4l-16 22 l-10 54l-29 43l-20 6q-31 39 -60 59l-10 -10l-43 16l-6 -12l-60 -37l-38 27l-5 -17l-16 -4l-16 -33l-6 5v-2l-2 -6q-3 -7 -3 -11q0 -18 5 -45l22 -33l43 17q38 27 49 49l4 20l17 6l32 -16l33 -55l-10 -43l-12 -11h-21l-26 -10h-39l-4 4l-39 -4l-21 17l-49 16l-43 64v22l4 10 l-4 23l10 10l-6 21l6 22l17 6l26 31q105 45 146 45l49 -16v16l69 -6l17 6l10 -16l45 -29h10q49 -26 60 -53l10 -6l16 -27l-6 -4l33 -17v-43l-10 -22l16 -21v-125l-22 21q-3 -9 -3 -24q0 -17 3 -40l-11 -10l-10 -45l10 -14l-22 -33l-27 -12h-119q53 -12 82 -31h21l39 -43 l37 -16l55 -60l27 -65l20 -10q26 -46 39 -93z"/>
<glyph glyph-name="four" horiz-adv-x="1051" unicode="4" d="M528 930l-10 59l-16 10l6 11l-23 12l-10 -29l6 -26l-32 -37l-17 -60l-33 -32l-10 -23q-30 -23 -77 -81q-52 -68 -52 -97h-12v-10l-47 -37l-13 16q-21 -21 -59 -76h76l6 -16h27l6 -12l10 -4h16v-6h21l6 16l16 10l17 -4l-6 -6v-10h32l27 16h82q4 91 33 156l-1 9l-2 19 q-3 23 -3 30q0 18 16 159l4 -6l6 43zM1020 621l-4 -5v-22q-51 -131 -119 -182l-55 -17l-37 4l-10 -10l-23 -6l6 -10l-65 -17q-64 17 -82 33l-47 -10l-6 -27l6 -33h-6l10 -38l-27 -11l6 -10v-16l21 -27h12q4 -20 4 -37q0 -14 -4 -28l16 -21l-16 -6l-16 10l-13 -37l23 -39 l-10 -16l20 -10l6 -27l-6 -39q-22 3 -53 29l-23 4l-10 27q-78 66 -78 147v12q-2 53 -5 65q-3 13 -3 21q0 16 10 107l17 20l-43 23h-66q-11 -1 -43 -6v12l-10 -1q-31 -5 -37 -5h-104q-11 0 -32 5q-26 6 -41 6q-4 0 -7 -1l-10 17l-29 -11l-4 27q-20 24 -23 49l13 -6l-7 33 l43 10q21 30 60 43v12q11 5 37 31l12 29q3 7 37 26v10l16 7l17 30v23h-11l4 10v12q15 13 57 35q47 23 74 72l-22 12q19 37 53 86l13 -12q28 39 122 227h29q28 -24 45 -57q15 -32 29 -62q22 -31 59 -86q-16 -41 -16 -75q0 -10 2 -27l-39 -23v-59l10 -27l-10 -53l-27 -16v-1 q-7 -114 -22 -145l12 -12l4 -74l27 -12h33l12 12h26l11 -12h22l-12 17q7 -2 18 -2q24 0 73 18q51 18 62 18q4 0 9 -2l16 17v10l27 16v6q17 6 40 27q25 23 36 27z"/>
<glyph glyph-name="five" horiz-adv-x="848" unicode="5" d="M776 469l-16 -4l-6 4l6 -76l-6 -14q1 -11 1 -19q0 -25 -5 -63l4 -10q-36 -49 -70 -146q-34 -26 -49 -28q-21 -27 -21 -43l-12 -4l-27 -23l-32 -10l-11 -10q-72 -30 -175 -30q-38 0 -78 13l-5 -12q-48 40 -92 55l-26 33l-29 4l-10 23l-37 4l-12 16v33l-17 16q4 113 39 201 l37 43l66 37h53q54 0 165 -62l78 -41q27 -40 27 -59h-10l-10 -49l-17 -21v-16l-55 -27v-6h-16l-11 -16h-16l-4 -10l-29 -11q-14 4 -74 4l-28 33l-31 17l-6 32h-10l-6 21l6 6l-13 16l13 -6l10 27l20 12h33l27 -29v-26q-29 -18 -37 -33l49 -27h16l37 43v39l-1 5q-5 15 -19 59 h14q-1 4 -2 9q-2 4 -2 10q0 10 4 40l-43 6l-16 11l-10 -11v11q-26 -4 -44 -4t-36 4l-43 -27l-45 -64v-69q11 0 12 -70q0 -8 4 -24l43 -11l29 -26v-10h16q49 -33 64 -56l32 17l33 -17l16 -20l54 43v20l10 -4l82 21q86 107 111 187q7 25 14 34l-6 12l10 10q1 12 2 16l9 28 q-2 9 -2 13q0 1 1 1q-1 17 -4 35q-15 17 -27 63l17 16l-33 56q-35 18 -72 75q-23 14 -66 16q-48 4 -67 11q-37 -6 -60 -6h-11l12 -21h-2q-40 0 -117 -38l-6 10l-10 -4q-13 38 -49 69l-4 41q-13 138 -13 174q0 21 3 71q3 51 3 73q0 18 -16 84l16 6l4 16h39l4 -6q21 -7 66 -20 q36 -4 66 -9q11 -3 66 -17l13 -3q51 -3 142 -14l20 10h3l89 26l17 -6l6 -10l4 39l22 -12l5 -27l-31 -20l4 -45l-10 -11h-17l-10 -37q-57 -16 -102 -38l-43 6l-23 -6l-6 -17l-74 17l-16 -5l-12 11q-9 -1 -16 -1q-23 0 -44 11l-37 -4l-6 4h-20l-33 22v-12l16 -102l-10 -17h-6 q1 -6 1 -9q0 -16 -7 -44q8 -16 26 -59l-4 -21l17 -16l32 -6l27 22h47l17 15q51 -13 92 -13q12 0 32 2q107 -47 228 -151h16z"/>
<glyph glyph-name="six" horiz-adv-x="883" unicode="6" d="M811 350q-6 -64 -49 -139l-17 -16q0 -39 -36 -86q-55 -44 -93 -50l-43 -36l-38 4l-33 -17v-16q-16 8 -40 8q-8 0 -24 -2l-82 43l-16 -6l-10 12l-21 10l-6 17l-22 -6l-17 12l-10 31l-43 28l-16 27l10 10l-15 43l-22 27l10 6l-16 20l12 7l-29 59h-10l-10 33l-23 6l-4 31 l4 12l-10 10q0 33 -10 86h16q-5 16 -12 53q0 112 45 234q8 13 27 49q9 32 32 86l60 76q41 50 63 59h39l27 10v7l10 10q77 28 131 28q38 0 85 -30q54 -34 81 -84l-16 -17h-27l-27 -12l-22 6l-4 11l-33 22l-6 21l6 32l-102 -32q-25 -14 -82 -60v-26l-11 -27l-16 -6v-43 l-10 -27v-27l-23 -10l-20 10l-17 -141l-6 -4q-4 -36 -12 -115q1 -11 6 -43l-10 -4q-10 -60 -10 -83q0 -25 10 -122l5 -10l15 -31q39 -85 78 -110l4 -39l33 -20l6 20l27 -37h6v-10h14l17 -16h33v26l16 -6q41 3 98 27l4 -4v-13l11 -4l28 37l-6 16q129 113 129 223q0 7 -2 20 q-2 11 -2 18q0 13 4 32l-63 74v16l-17 23q-54 9 -82 33l-16 -17q-38 4 -52 4q-10 0 -24 -4l-10 -6l6 -16l-6 -10l-6 10l-10 -17v-10l-5 -10l-22 -16l-10 6l-13 -13q-11 -31 -11 -53q0 -7 1 -16h-4l14 -37q-1 -14 -1 -21q0 -44 24 -84l33 -30l16 16l4 -16l33 -6l39 22l-12 53 l6 21l-33 49l-4 43l20 33h17l22 -10l4 -11l6 -6l17 -53l16 -12l-6 -17l6 -26l-6 -11l6 -32q-38 -42 -76 -80v-13l-12 -4l-10 -16q-31 12 -64 16l-6 -12l-10 6l-6 -6l-16 6q-4 8 -9 17q-8 16 -18 35q-25 49 -37 65q-45 61 -45 149q0 77 44 132q15 18 44 45l53 16l33 -16 q25 1 36 1q109 0 206 -55v-16l43 -59v-7q0 -51 12 -135z"/>
<glyph glyph-name="seven" horiz-adv-x="834" unicode="7" d="M883 1075l-17 -6q-13 -16 -16 -37l-49 -33q-54 -73 -60 -102l7 -16q-33 -22 -60 -93q-31 -30 -49 -32q-9 -23 -21 -70q-67 -84 -77 -137l-56 -62l-6 -36l-10 -7q-1 -19 -20 -60q-14 -29 -17 -42l-16 -16l-6 -37l-33 -23l-10 -26l-11 -11q4 -11 4 -59l7 -12l-27 -21 l-6 -22l-17 -4l-4 20l-16 -76l10 -20q-21 -23 -22 -55q-11 -2 -29 -17l-27 14l-10 17h-22l-11 16v-16l-49 -4l-26 16l-43 -22l10 69q14 23 54 65q53 52 75 103v53l22 29v16q69 46 86 113h11l16 33l-16 20q13 21 71 103q120 171 140 184l10 23l22 10l21 49l45 31q23 56 63 88 v14h7q13 30 43 76l-54 -10l-6 -17h-33l-10 -4h-65v15l26 16h-1h-2q-12 0 -40 -4l-20 4l-27 -4v-12l-29 -5l-16 -10l-27 10l-16 -6v-10l-20 6l-43 -28l-13 16l-37 -10q-20 7 -38 7q-5 0 -15 -1l-6 -12l-16 -11h-11l-10 -6q-13 2 -21 2q-14 0 -28 -6l-43 49l-23 70l7 59 q14 -34 69 -59l70 4l16 -10q55 7 113 7l69 -2q53 0 199 21q7 2 40 9q20 5 34 5q4 0 10 -1l27 -13l6 23l20 -10l7 10l53 -17l33 -36z"/>
<glyph glyph-name="eight" horiz-adv-x="780" unicode="8" d="M584 238l-11 59l-49 53l-4 -4l-26 64v16l-17 23l-12 -7l-27 17l-32 53l-17 -4v10q-25 -19 -43 -20l-4 -13l-12 7l6 -11l-21 -16l-6 -16h-10q-19 -47 -43 -70q0 -29 -16 -45l-7 -37l7 -16l-7 -33l11 -27l-4 -16l20 -43v-37l23 -23h20l12 -16l15 -4l6 -12l10 -4l39 16 l27 -23l37 11l28 32v-16l17 -4l20 10l6 21l-33 -4l-6 4l13 16h47l26 12l6 21l-20 43l4 16zM784 1096l-53 -54q-3 -64 -45 -141l-14 -10l-17 -53q-45 -36 -59 -60l-23 4l-26 -37l-27 -16q-6 -20 -30 -50q-19 -23 -24 -30q0 -1 -1 -2l6 -20q41 -49 96 -103l8 -14l17 -29 l16 -29l8 -14l33 -28l33 -76l-10 6l14 -33l-10 -10l-17 6l27 -39l12 -49l-6 -20l-16 -17l-4 -16h-6l-11 -10h-6l-10 -33l-16 -6l-11 -31l-12 -12v-11l-10 7l-6 -17l-17 -6l-14 -16h-29l-63 -27l-27 10l-49 -4q-23 21 -145 37v23l-17 16h17l-13 10h-4l-26 33l-17 -6l-12 6 l-4 -12h-6q-17 21 -43 71l10 21l-37 22v54l-6 16q28 66 49 129l80 86q44 24 104 49l15 27q-88 160 -178 221q-16 37 -16 118q0 85 25 137q8 15 23 38h27l6 10l10 -6l23 22l12 3q69 19 90 24h8q22 0 62 -4l43 -29l39 6q76 -50 119 -96l-7 -12h-43l-79 72q-7 -2 -11 -2 q-13 0 -50 12q-37 11 -57 11q-2 0 -14 -1q-26 -21 -75 -49l6 -27l-27 -37v-55q39 -53 76 -149l70 -50l10 -16h16l6 -22q7 9 43 38l17 54l20 26v-16h17l49 59v6h22l27 33q12 32 12 53q0 8 -2 17q39 59 53 254l23 -6l33 -31l-6 -33q11 -17 32 -65z"/>
<glyph glyph-name="nine" horiz-adv-x="903" unicode="9" d="M807 535q-6 -27 -30 -70q-25 -47 -29 -66l-27 23v-12l-23 -17l7 -4q-7 -19 -7 -39h-10l-10 -10l16 -21l-6 -22l17 -23l-23 -20l-4 -33h-16l-33 -49l-11 -4l-10 4l-16 -27l-17 17l-26 -33v-10l-17 -27l-12 4l-10 -4l6 -10h-27l-12 -16h-10q-36 -18 -49 -33h-37l-16 -6 l-11 -17h-16l-6 -10l-33 10l-10 -10v-10l-49 -6l-17 10h-16l-14 12l-17 37l21 16h10l16 -16l33 16l16 -10l99 17l-13 10v6h23l63 27l23 47l-16 -4l6 10l26 6l6 16l54 43l16 43l-27 -10q55 84 84 167q40 120 51 237q1 8 1 22l10 10l16 54l-16 55l-16 16l-27 152l-12 -6 l-11 20l-4 -10l-49 70l33 -5q-65 58 -131 70l-17 -10v4l-36 -10l-23 10l-27 -14l-4 -13l-32 -10l-11 -16l-16 16h-12l-47 -37l-33 -71l4 -33q-20 -33 -27 -104l-4 -36l4 -16l-4 -22l-12 -15v-71l16 -43l33 -27q49 -10 152 -43l10 20l22 7l37 53l10 49l29 -16l10 16l-10 27 l10 43l-32 12l6 47l-17 33h-26l-29 -21l-20 -92h-11v16l-32 33l20 53l39 37l53 17q58 -13 76 -31l33 -49q18 -74 18 -120q0 -14 -2 -32l-16 -22l-17 -4l-6 -17l-10 -6l-6 -16q-17 -20 -60 -31l-20 -33l-49 -6l-135 33l-17 -6l-4 16q-60 12 -131 119v6l-4 4l-27 72v59 q2 89 27 119v2v2q3 24 27 88q30 38 86 86q82 39 228 39q55 0 90.5 -9t95.5 -39q32 -15 104 -56l65 -70q22 -45 22 -67q0 -2 -1 -9h-21q12 -50 12 -91q0 -10 -1 -21l10 -23v-3q0 -5 -2 -26v-9q-2 -12 -2 -21v-8v-3l10 -6l-6 -59l6 -21q-12 -34 -16 -59z"/>
<glyph glyph-name="colon" horiz-adv-x="485" unicode=":" d="M322 113l-5 -80l-12 -6h-4q-39 0 -76 -21l-59 43l-23 37l13 59l14 17l6 26l39 7q10 -10 43 -25q22 -10 31 -18h6l-6 -23zM354 690l-6 -14l-26 -23h-43l-21 -32l-29 -5l-4 11l-10 4l4 16l-26 23q-28 46 -27 102l16 43q50 -9 119 -27q30 -44 53 -98z"/>
<glyph glyph-name="semicolon" horiz-adv-x="485" unicode=";" d="M354 59q-7 -27 -22 -43l-10 7q-8 -31 -27 -72v-33l-27 -27l-16 7h-10l-13 6v10h-10l-6 20h12l4 17l23 16q19 66 20 88v2v2l7 17l-27 10l-6 -27l-43 -6l-21 17l-28 49l6 65q14 11 22 31l47 6q14 -8 39 -26l27 -7l20 -20h7l6 -27l20 -16zM338 690l-10 -47q-6 1 -10 1 q-18 0 -50 -13l-6 16l-20 -4v-12l-49 28q-43 54 -50 113l7 10l4 23l32 26l39 -10v10l27 -6l16 -20h11l43 -66v-20z"/>
<glyph glyph-name="less" horiz-adv-x="924" unicode="&lt;" d="M874 217h-8v-12l-39 12h-28q-29 20 -103 37q-102 23 -115 38l-75 54q-31 10 -70 29q-34 26 -110 71l-13 23q-58 47 -94 59h-41l-115 88q20 12 65 15q24 3 37 7q18 6 66 30q114 56 218 75l-13 17h29l-8 14l57 19v14q23 16 77 30q47 13 58 16q4 2 16 9q48 26 173 66l36 -27 l-18 -4l-18 -8v-19q-65 -52 -238 -118v-13l-20 -6v-24q-23 -10 -45 -23h-41l12 -6l-21 -10l-8 -21l-104 -34h-31l-49 -23l57 -25q21 -28 185 -102l-9 -19q12 -12 54 -61l49 -10l8 10q70 -89 201 -129z"/>
<glyph glyph-name="equal" horiz-adv-x="967" unicode="=" d="M885 412l-15 -52l-10 13v-19h-12l-10 11l-7 -5l-20 12h-25l-65 13q-95 -15 -165 -15q-19 0 -36 1q-25 2 -29 2q-99 0 -118 -8l-140 4l-30 -11l-26 -12v14l-9 -4l-21 4l5 7l-27 10v20l-31 11l19 38l24 17l25 -10l22 16h6l21 6l29 -14l22 12l12 -6h17l12 -6l25 6 q19 -6 49 -21q8 3 22 18q8 8 19 7l51 -10l10 26h17l10 -8l26 4l27 -11h23l20 17l105 -14l53 -4l10 -10l10 6l6 16l23 -4v-6l51 -14q8 -29 25 -47zM866 678l-22 -16l-27 6l-20 -17h-6l-17 -22l-33 -4l-26 10l-6 10h-17l-14 6l-23 -6q-41 6 -53 17q-20 -12 -47 -12q-6 0 -18 1 l-23 -12l-10 -27h-17l-10 6l-26 -6l-27 13l-23 -7l-20 -16l-115 -10l-43 16l-10 10l-10 -6l-6 -16h-23v6l-20 10q-22 59 -43 72l-7 27l11 -13v23h12l10 -10l6 4l21 -10v16l92 -23q47 13 227 13q60 0 113 32l145 5l33 38l23 -12l4 12l6 -22h20l-4 -10l27 -6v-21l16 -29v-20z "/>
<glyph glyph-name="greater" horiz-adv-x="924" unicode="&gt;" d="M856 496q-19 -11 -63 -15q-27 -3 -38 -7q-20 -7 -66 -30q-114 -56 -218 -75l12 -17h-28l8 -14l-57 -19v-14q-21 -16 -77 -30l-57 -16q-3 0 -4 -1q-55 -31 -186 -74l-37 27l18 4l19 8v19q64 52 237 118v13l21 6v24q23 11 45 23h41l-12 6l20 10l8 21l105 34h31l49 23 l-58 25q-20 28 -184 102l8 19q-29 33 -53 61l-49 10l-8 -10q-70 88 -201 129l-37 39h8v12l39 -12h29q30 -21 121 -41q83 -19 97 -34q3 -3 40 -29q23 -17 35 -25q20 -6 69 -29q32 -25 111 -71l12 -23q61 -48 94 -59h41z"/>
<glyph glyph-name="question" horiz-adv-x="1028" unicode="?" d="M559 37l-10 -33l6 -10h-10v-23l-72 6l-86 54q10 48 10 83q0 21 -4 42l17 6l10 10q69 -27 129 -59l-4 -23l10 -10zM915 997l-3 -12l-12 -39l-11 -41l-4 -14l-13 -17l-4 -32l-12 -6l-4 -21l-43 -27l-16 -55l-27 -26l-16 -7l-23 -36l-4 -23h-16q-30 -50 -82 -70l-33 7 l-70 -39l-10 -33q-1 -14 24 -55q26 -45 29 -64l-6 -10q3 -18 3 -29q0 -36 -23 -63l-43 12l-17 -6l-33 -37l-16 4q-21 83 -21 227q0 34 11 93l37 63l22 12l17 21l20 6l6 10l23 17l20 -11l27 4q5 22 6 32v1l20 17q1 5 1 8q0 11 -5 24q36 36 76 131q39 97 37 144h6l17 6v22 l-7 15l17 6l-17 22l7 17l-4 2l-14 6q-19 9 -25 12l-7 -6v12l-22 -16l-4 53l-17 -10l-32 49q-81 52 -129 70l-39 -6l-21 6l-16 -17h-17v-6l-16 13l-27 -7l-22 7l-10 -17l6 -12l-6 -4l-11 -23v-10h-32l-6 -27h-11q-2 -25 -26 -59v-59l-11 -17v-6q0 -7 4 -34q1 -12 2 -27 q3 -45 21 -74l4 -4v-23l23 -32q31 -27 75 -31l21 14q33 57 33 153q0 26 -4 54l-7 4l-26 -10l-27 -43h-12l-4 33l-6 4l39 49l43 10l106 -47l66 -72v-43l6 -16l-23 -31l-16 -6l-4 -10h-6q-4 -10 -43 -33h-11l-65 -33v-10l-33 -12q-95 13 -178 88l-37 96l-6 6q-55 112 -55 163 q0 15 2 26q32 55 125 129q44 36 75 48q45 17 115 17q112 0 224 -41q49 -17 75 -41h6q47 -23 119 -69l10 -33q14 -6 35 -57q17 -43 18 -66l-10 -16l10 -23v-33z"/>
<glyph glyph-name="at" horiz-adv-x="1157" unicode="@" d="M1067 569v-18q-16 -10 -41 -35q-13 -21 -31 -59q-48 -37 -70 -65q-55 -72 -104 -99l-4 -14h-33l-12 -7l-24 7l-5 8h-14q-58 99 -78 159l-41 -49l-37 -18l-8 -19l-22 -4l-6 -10l-17 -8l-20 -43l-37 -12v-37l-37 4l-72 69q-17 39 -24 101l18 82q-2 -4 -4 -4q-3 0 -3 5 q0 11 7 42q26 19 65 69q40 51 64 68q40 19 58 33q46 36 157 96l10 -6l9 6l32 -51l5 -19l-19 -51l-8 6l-4 -6l-25 -4l-4 -10h-18l-4 -8h-15l-8 8h-14l8 -23l-37 -12q-20 -21 -27 -33h-14l-14 -26q-10 -20 -39 -35l-6 -8v-9l-37 -86l-12 -10v-10q-39 -57 -37 -90l8 -6 q82 38 121 69v11q41 27 53 59q19 6 39 44l4 7q17 32 27 49q-2 9 -2 15q0 23 16 59l8 -10l8 6l11 -10l4 -11h10l4 -8h8q19 -44 19 -106v-61q-13 0 -12 -14l3 -50v-23v-12v-8q0 -1 2 -6l2 -5v-1q4 -9 5 -13l43 15l2 10l57 41h2q18 14 76 71l6 5q0 1 -1 3q-4 11 -5 13 q0 16 18 31q17 17 17 34q0 10 -7 17q-6 6 -6 16q0 21 20 21q2 0 9 -7q3 -1 8 -1q16 0 16 6q0 2 -10 17q-13 20 -13 33q0 10 19 31l11 18q-8 20 -10 26q-5 40 -12 41h-1l-3 -1q-1 0 -7 5l-25 22q-6 3 -6 22v5q0 18 -7 21q-8 5 -8 23q-1 13 -2 17q-1 1 -1 2q0 12 -17 35 q-27 9 -69 27q-4 6 -17 16q-33 14 -78 14q-43 0 -57 -12h-28q-1 44 -48 44q-16 0 -26 -12q-7 -11 -21 -11h-14q-1 0 -18 -2q-24 -2 -32 -2h-3q-5 1 -19 -19q-58 0 -69 -6q-10 -4 -31 -35q-3 -2 -13 -8l-20 -12l-1 -1q-1 -1 -11 -14l-3 -4l-2 -4q-9 -13 -22 -13q-18 0 -32 5 q-11 -21 -27 -34q-16 -14 -29 -32q-3 -8 -14 -28q-47 -55 -47 -86q-1 -16 -21 -49q18 -10 33 -25q0 -7 -25 -35q-36 -41 -36 -64q0 -22 49 -55v-63h8v-94q3 -15 14 -41q35 -17 53 -49q8 -14 41 -47l5 -5h1q12 0 75 -20q41 -12 53 -12q66 -39 93 -39q15 0 33 8q17 8 24 8 q12 0 22 -11q6 -7 10 -7q9 0 24 25q10 16 20 16q8 0 30 -9q12 -5 20 -5q2 0 4 1q65 2 105 17q46 36 116 82q14 0 33 4q9 6 9 20q0 9 -3 20q-2 11 -2 21q0 20 25 21l10 34l25 35q21 29 32 29q7 0 7 -17q0 -34 -15 -100q-7 -29 -14 -37q-20 -23 -59 -53q-16 -22 -54 -55 q-47 -28 -114 -62q-3 0 -17 -5q-9 -3 -16 -3q-11 5 -15 8q-18 10 -33 10q-60 0 -92 -14q-8 -4 -29 -16q-24 -14 -37 -14q-45 0 -79 24q-2 1 -2 4v1q0 5 -3 5q-13 0 -35 -12q-13 -8 -21 -8q-14 0 -61 22l-7 3q-41 20 -51 24q-26 5 -75 15l-13 3q-10 0 -23 5v1q-2 6 -8 15 q-20 21 -42 80q-9 23 -11 29q-3 23 -8 45q-2 5 -19 19q-18 14 -18 25q0 6 18 35q-13 8 -41 35v62q3 8 10 29q2 6 9 28v74q7 6 24 23q20 16 21 83v21q1 31 25 54q33 34 38 44q42 81 72 106q6 5 10 9l5 5q9 9 40 42q4 1 10 3q76 20 113 38h94q9 4 52 24l10 4h86q21 -12 34 -12 q19 0 49 17q19 10 41 10q28 0 41 -22q12 -22 37 -26q20 -3 38 -26q15 -18 22 -20q63 -5 76 -18q8 -8 24 -56q6 -4 17 -17q6 -61 23 -81q7 -8 7 -21v-2q-1 -7 -4 -19q-4 -12 -4 -20v-2q0 -15 -6 -22q-6 -9 -6 -24t8 -35q5 -11 5 -19q0 -4 -6 -33q-4 -20 -5 -27z"/>
<glyph glyph-name="A" horiz-adv-x="1804" unicode="A" d="M729 557h-4q-23 0 -43 4q-28 6 -45 6q-13 0 -34 -5q-14 -3 -25 -5l-23 -22q-4 -25 -49 -70q-1 -10 -7 -34q-7 -22 -7 -38l-17 -26l-16 -123l-23 -33l-43 -10l-33 -23q-140 29 -151 141l6 54q35 29 43 49h6l4 16l17 4l16 -20l-10 -29l16 -31h-10v-28l-23 -10l-6 -17 l29 -53h10l6 -16l60 6l30 63l-20 103q-18 1 -49 32l6 23l-66 10q-71 -20 -90 -46q-20 -23 -45 -36v-10l-16 -33q0 -73 -10 -119l26 -53l23 -10l16 -43l103 -66q30 -6 35 -6q7 0 61 6q56 64 125 86h-27l4 23l23 -6q38 25 43 43l-10 6q36 58 90 123l-11 22l23 11zM1171 707 l-55 249h12v37l11 11v43q-16 7 -33 28l-6 90l6 13l-49 92l-4 -66l-6 -6l-21 -102q-42 -46 -76 -135l-16 -11q-39 -92 -43 -162l-17 -26q1 -5 1 -8q0 -39 -39 -107v-16l26 -15h23l22 11l15 -17q61 -4 98 -16l37 6l39 -16q20 5 38 5q8 0 15 -1v55l10 10q2 9 3 13q3 41 9 41z M1722 172h-12l6 -47l-10 -39h-6l-17 -53l-20 -6l-6 -17q-52 -27 -141 -27q-14 0 -43 1q-119 35 -189 178q-4 56 -16 86h-17q-38 92 -53 168l10 10l-4 39l-16 4v49l-23 -6v16q-44 19 -89 19q-12 0 -29 -2l-37 -21l-56 11l-43 26l-53 -20l-43 16l-22 -12l-2 -8l-9 -30l-12 -40 l-4 -14q-21 -36 -49 -103l12 -31l-33 -81l-22 -23l-4 -37q-19 -20 -33 -65l-55 -60l-60 -10l-10 -16l-16 -4l-17 -13h-26l-54 -26l-6 16l-37 -10l-39 10l-4 10l-16 -4l-72 21q-13 16 -51 28q-37 13 -45 20q-7 6 -55 42l-11 8l-43 102v70q28 52 39 125h11v10h16l37 70l49 22 l6 27q13 -6 27 -6q12 0 35 3q24 3 41 3q52 0 92 -23l47 -53l12 33l27 16l16 47l31 13l16 20q39 19 49 33h50l10 6l76 -27l49 11q3 32 33 99q27 62 27 103q0 1 -1 19q13 15 52 99q36 77 40 100l54 71l16 76l-6 31q11 27 11 41q0 3 -1 8q12 12 39 82q114 0 184 10 q11 -10 30 -10q12 0 30 4l4 -10h26v-11l-4 -6v-10q-18 -18 -43 -23l-12 -16l-16 -59l28 -60v-59q0 -24 -16 -64l33 -43v-16l4 4l10 -90l-10 -23l43 -79l-21 -39q0 -45 10 -66l-10 -47l27 -59l10 10l39 -10l119 20q17 8 60 42q43 35 46 50l13 -6l-13 -47l6 -22l11 -11v-10 l-27 -22l6 -21l-12 -12l-53 -21h-37q-29 -20 -49 -22q-9 14 -39 26h-54l-10 -4l-10 -12l14 -20q8 -29 17 -82l28 -48l-6 -28q40 -76 54 -156l26 -33l12 -4l5 -49q15 -17 59 -55l39 -10l43 16l26 27q13 28 13 83q0 17 -2 52l-17 16h-10q-25 -26 -33 -59l-26 -10l6 -43l16 -13 l10 17l11 -11v-16l-4 -4h-33q-21 5 -49 14q-7 42 -7 66q0 7 1 16h-11v23q11 36 17 47h10l6 16l43 27l49 6l37 -16v-37l23 -6l32 -54v-12z"/>
<glyph glyph-name="B" horiz-adv-x="1427" unicode="B" d="M623 442v367q0 125 -31 223l6 35l-23 18l-10 -53l10 -28q-22 -38 -59 -113l4 -17q-8 -43 -20 -92q0 -173 43 -237v-70q0 -26 -27 -59v-17l-16 -43q0 -211 16 -237l59 -49q-1 7 -1 14q0 16 9.5 49.5t9.5 51.5q0 8 -1 16l18 4q0 59 8 82l-16 69q21 82 21 86zM1305 313 l-13 -10l6 -33l-6 -22l6 -10l-26 -50l-23 7v-11q-35 -29 -119 -135l-43 -16q-28 -16 -75 -56l-33 -4l-4 -6l-23 -10l-4 -10q-48 5 -59 4l-17 16l-38 10l-17 17l-4 -4l-43 37v32l-29 17l-16 -6q-15 49 -15 73q0 5 1 9l53 86l33 16l10 -6l-10 -10l-33 -82l6 -43l47 -43l12 -4 l-6 -17l17 -16l151 4q8 21 42 53q38 35 48 55l-10 7l6 4l49 98l-22 27q1 20 23 64.5t26 64.5l-6 6l10 10v49q0 17 -10 53.5t-10 55.5q-43 48 -85 96q-32 30 -120 55q-44 12 -80 12q-16 0 -29 -2l-16 11l10 6l-4 16l10 21l27 22l49 17l21 20h6l43 39l10 21l33 26 q16 137 16 158q0 98 -20 145q-61 47 -131 53q-35 -15 -107 -36l-6 -7l-39 -10q-5 -21 -37 -53v-16l33 -39v-4l33 -76v-98l-23 -17h-26l-11 -10q-14 -37 -12 -49l12 -31l-6 -55h17v-21l20 -6l33 -102q-11 -33 -11 -54q0 -7 1 -12l-23 -16v-10q0 -30 -4 -119l10 -21l10 -6v-33 q0 -22 -4 -59l-12 -6l-14 -43h10l-6 -47l-27 -43l-6 -33h-16l-11 -49l9 -39l-13 -43q-30 -9 -45 -31q-53 0 -86 10l-37 50q-9 29 -22 90l-10 12l-27 80l10 12v53q0 9 -3 25t-3 24q0 11 3 30.5t3 29.5q0 6 -6 43l-10 10q-10 92 -10 113q0 14 19 139t24 141q26 66 69 201 q36 39 55 76l-28 92h-15l-38 37l-17 39l-59 20l-10 -4l-27 10v11q-19 -2 -35 -2q-32 0 -51 8v-13l-39 -10l-16 6q-10 -18 -44 -46q-37 -30 -49 -46l7 -6l-33 -80v-69l22 -56l76 -37h53q13 0 37 5l23 16l-6 43l6 29l-66 20l-26 -37l-11 -6l33 -22l-6 -15l-16 -12l-37 22l4 17 l-4 37l69 55l11 -6q69 0 102 -17v-16l23 -20q6 -37 6 -39t-6 -33l-23 -4v-12l-16 -11v-6q-37 -12 -54 -20q-20 2 -52 -4q-36 -7 -50 -7q-12 0 -37 5q-57 25 -65 55h-11l-39 43l-20 53v98q21 38 27 74h32l27 33l-16 6v10l20 17l39 10l33 29l26 -7l7 21h30q3 0 19 -5t20 -5 q11 1 27 1t37 -1q96 -11 144 -27q66 -22 122 -76l10 -33h17v17l20 16v6q104 64 178 64q67 0 180 -43q121 -46 156 -92l27 -90q-12 -39 -12 -61q0 -6 1 -11l-59 -43q-8 -28 -31 -65t-28 -54l-7 -4q-24 -62 -112 -131q56 -7 129 -42q84 -40 102 -81h11l16 -22l16 -11 q17 -24 17 -86q0 -9 -4 -31t-2 -34l-11 -17l17 -59l26 -33z"/>
<glyph glyph-name="C" horiz-adv-x="1245" unicode="C" d="M1174 1036l-13 -4l-4 -45l-12 -14v-6q-25 -37 -37 -99l-10 -4v-22l-13 -4l-10 -17q-99 -76 -176 -76h-8l-53 17q-51 59 -80 151l10 70q22 33 27 49l26 21l92 16l7 -10l16 4q35 -30 43 -53l4 6l6 -17l37 -16l-27 -49h-36l-13 6l6 21l-6 22l-30 -6l-29 6q-29 -8 -43 -22 h-10l-27 -43l6 -11l10 -59l33 -33q31 -10 47 -10q84 0 119 26l29 37h10v17l10 6l23 53v49l-30 72q-19 37 -46 63v11h-12l-4 49l-27 26q-23 14 -49 17l-6 16h-17l-16 17l-113 26l-33 -6l-4 -10l-28 -27q-6 1 -15 1q-42 0 -131 -38l-10 4l-16 -16h-21v-10q-41 -41 -59 -49 q-20 -17 -54 -55t-55 -91l-10 -6v-31l-16 -28v-21q-27 -65 -72 -86l-21 -39q-2 -25 -10 -75q8 -27 13 -105q5 -65 24 -104v-13l10 -4q17 -46 17 -92l10 -10l6 -45l16 -27l27 -16l10 -31l29 -33l4 -26l12 -6l27 -39q89 -11 152 -86q55 -9 149 -33l6 16l33 13l43 -13l-6 -20 q20 2 53 18.5t49 18.5l6 12l23 4q19 13 31 55l39 11l4 16l22 16q4 9 17 21q10 15 10 59l10 10h16l13 60l-23 55l-16 10h-21l-49 39l-16 4l6 11h-17q-69 0 -141 -21l6 -6q-5 -4 -49 -70l-10 -6l10 -76l27 -20h43l39 27l10 53l16 16h27l6 -53h-10l-6 -49l-27 -17 q-10 -23 -39 -43h-26q-39 11 -50 17l-30 43l-23 82l23 92l20 10q16 32 92 70h125l80 -37v-6q44 -13 60 -10l16 -17v-10l16 -29l-16 -10l10 -10v-60q0 -53 -63 -151l-13 -6v-11l-96 -59h-6v-16q-45 -29 -139 -76h-27l-6 -4h-70q-31 6 -39 10l-32 -6l-11 12q-38 -8 -61 -6 q-48 27 -78 27l-12 10q-26 6 -61 25q-44 25 -58 30l-16 33q-35 10 -76 60q-32 40 -64 79q-15 11 -43 33q-78 74 -75 125h-6l-13 55l8 31q-1 31 -6 92q-6 20 -16 59l-10 5l10 124l33 70l-6 16l16 50l53 43q11 48 28 72q28 38 32 46l38 11q27 30 66 92q41 30 123 82 q23 5 55 14q29 13 86 39h17q29 43 135 43h-2q0 -2 94 -16q28 -29 80 -33l33 -33q17 0 43 -20v-17l26 -16l10 -60l23 7l20 -17h17l22 -22q4 -18 20 -48q17 -33 30 -38v-17z"/>
<glyph glyph-name="D" horiz-adv-x="1630" unicode="D" d="M694 567q-12 86 -12 174q0 12 3 35.5t3 34.5v-2q-2 0 -22 100q12 56 12 64l-6 92l-10 16l-27 -16l-17 6q-30 -53 -38 -98l-11 -4v-29l-16 -31l6 -16v-23l-12 -26q7 -50 22 -66q-22 -50 -59 -69q-33 -81 -33 -162q0 16 17 -49v-54q0 -18 -11 -49l11 -16l-11 -10v-33l-6 -6 l23 -27l4 -53q46 -69 71 -189l21 -16l39 4q0 42 37 195l-17 16q0 91 27 129q-4 41 -4 125q6 23 16 53zM1569 762l-13 -27l7 -20l-17 -29v-20l-33 26v-59l7 -10v-33l-37 -17v-65l20 -14l17 43l16 -7l-6 -65l-10 -4l-11 20l-6 -20l17 -39l-11 -27l4 -10q-7 -19 -4 -39l-12 -20 l6 -11l-76 -125l-20 -6q-13 -10 -40 -49q-24 -34 -48 -47l-10 4l-17 -31l-47 -16l-82 4l-16 -20l-6 -23l-70 -20l-33 16l-4 -6q-141 53 -184 113q-27 55 -27 141q0 14 6 26l21 23q12 4 22 4q20 0 76 -10v-10l37 -27l16 -39q-4 -31 -22 -49l-31 12l-6 17l6 53l-16 10l-6 -4 l-6 -29l-17 17l-14 -21l-6 -59q17 -14 26 -33h-6l33 -27l131 -32l10 -11l37 -6q75 54 86 54l6 12l-6 16q12 6 17 10q31 26 81 76q45 59 72 169q25 98 25 181q0 11 -2 30.5t-2 29.5q0 8 2 24.5t2 24.5q0 26 -3 99q-2 38 -2 66q0 19 1 34q-29 26 -43 82q0 45 10 96 q-52 74 -49 108l-54 66q-126 68 -260 102q-48 -7 -118 -26l-5 10l-16 -23l-39 -20h-10l-10 -27l-23 -6l-26 -22v-21q25 -51 49 -162l16 -22q-1 -7 -1 -14q0 -16 8.5 -44.5t8.5 -44.5q0 -18 -3 -56t-3 -56q0 -22 10.5 -64t10.5 -61q0 -31 -4 -96l-33 -39q-6 -68 -6 -70 q0 -4 6 -59q-14 -42 -33 -54l17 -71q-12 -39 -12 -61q0 -5 1 -9q-30 -41 -39 -80l-16 -12q-13 -35 -37 -107l-53 -32l-55 10l-11 6h-32l-27 76l-49 20h-10l-17 11l-10 16l-10 6v6h-13l-4 27l-12 10q-10 36 -10 129q0 21 9 55q12 40 13 54q4 32 4 96q0 9 -5 29.5t-5 29.5 q0 88 53 195l-26 16q19 80 87 198q57 93 113 185l-16 49q-17 14 -66 67q-38 41 -75 58q-46 12 -73 12q-7 0 -13 -1l-6 6l-4 -13h-39l-4 -10l-66 -4l-10 -29l-43 -16l-27 -27l4 -36l10 -11l-10 -22l17 -97h6l10 -16l53 -22l13 10q12 78 20 115l-16 26l-4 -22l-13 -11l-10 11 l6 -43l-22 6l-4 33l10 36l26 11l-10 6l4 10l49 -16l54 -43l6 -27q-13 -17 -27 -80l-33 -43l-36 -22h-39q-29 10 -64 22l-16 -6l-39 53h-10q-3 39 -27 82l-27 21v32l-16 11q0 49 43 92q129 76 238 102q59 -8 172 -31q28 -7 73 -36q49 -31 72 -39l39 -49l27 20l36 6 q46 43 90 59q24 9 101 23q57 10 43 10q11 0 30.5 -2.5t28.5 -3.5q97 -3 131 -10q70 -13 117 -53q11 -16 37 -43q45 -37 90 -73q33 -32 61 -106l-10 -28l92 -225q-1 -3 -1 -7q0 -20 18 -65z"/>
<glyph glyph-name="E" horiz-adv-x="1001" unicode="E" d="M915 215l-36 -53l-13 -53l-37 -50l-22 7q-18 -11 -27 -33l-63 -43l-33 26l-22 -22l-27 -10h-21l-39 -27l-65 18l-14 -12q-50 14 -70 14h-6q-81 63 -158 89l-16 16l-33 4q-30 30 -86 92q-14 37 -53 103l6 26l-6 23l6 26q-14 30 -14 73q0 13 2 24l12 22l-6 10q16 48 69 97 l17 55q67 46 98 82q44 22 70 26l4 17l39 10q-92 92 -119 146l-16 10q-5 33 -27 55q-6 55 -6 59q0 7 6 37l16 17l-12 55l29 27l4 36q36 27 55 76l16 6l31 27l39 4q68 39 73 41q37 16 85 16q127 0 166 -18q110 -68 135 -135l-17 -43q15 -87 17 -87v1q0 -6 -6 -43l6 -23 l-17 -59q-59 -72 -200 -119l-70 27l-20 28q-53 25 -76 60q-37 79 -39 112q11 75 65 129l66 33h31q65 0 108 -33l-10 -4l10 -16l-16 -29l33 -47v-39l-23 -26l-4 -21l-49 -39l-10 6l-17 43l49 37q5 25 5 39q0 2 -2.5 10.5t-2.5 10.5q-30 12 -39 26l-4 -4l-16 10l-33 -6 q-25 -16 -69 -86l-7 -32q11 -52 52.5 -89t93.5 -40l65 16q44 32 80 86h6q16 99 17 93q-1 9 -6 81q-4 10 -140 100q-36 6 -39 6q6 0 -151 -20q-85 -71 -107 -135q-3 -18 -12 -53q-8 -18 -20 -60q4 -74 26 -125l11 -6l-5 -33l11 -4q27 -48 75 -76h17l10 -6l27 -4l32 -22l-6 22 h13l16 -22v-17l14 -10v-59l-14 -23q-18 -7 -33 -4q-28 23 -55 27l-43 -17l-33 6l-20 -28l-60 -37l-32 -86l-50 -55l-16 -43l6 -21q-12 -35 -12 -72q0 -15 2 -30q21 -45 27 -86l16 -17l16 -39q114 -113 215 -129l23 7l37 -17l22 10h27l82 37l10 39l59 27l21 26l6 39h6 q37 64 37 166q0 8 -6 26t-4 30l-17 20l-38 -4q-53 -30 -60 -49l-14 -6l-17 -27v-16l11 -5l-6 -6l16 -26l33 4l10 22v21h6l10 33l39 12l10 -12l-22 -70l-37 -37l-49 -6l-33 37l-16 6q-11 37 -37 59l10 54q17 27 54 49q52 31 61 39h59q2 0 15.5 -3t15.5 -3l33 -27l59 -115v-26 l16 -27v-82z"/>
<glyph glyph-name="F" horiz-adv-x="1556" unicode="F" d="M1663 1233l-23 -4l17 -33l-10 -27l6 -6l-13 -6q-25 -37 -43 -53l-26 10l-53 -10l-27 6l-23 -16q-54 0 -69 10l-72 -17v-6h-47l-59 39l-60 -16l-26 6l-7 -12q-22 0 -67.5 33.5t-71.5 33.5q-6 0 -12 -2l-33 -43v3q-2 0 -16 -132q1 -14 0 -43q-7 -19 -17 -59q-2 -28 -10 -82 q-6 -12 -16 -37q-3 -22 -11 -65l7 -33l16 -10l-6 -11l70 -39l38 -6q105 14 150 49l22 33l-22 23h-37l-6 10l33 37l26 -10h23v16l16 6q8 -15 4 -29l17 -16l32 -10q-13 -24 -36 -37v-49l-7 -17l-20 -20q-71 -5 -125 -45v-27l-22 6v-10l-80 10q-46 46 -109 60l-6 -39l-27 -37 l6 -37q-9 -27 -6 -45l-16 -4l-4 -10l-17 -17l17 -6l-23 -92l-10 -4l16 -29q-11 -44 -11 -68q0 -7 1 -12l-16 4l-12 -36l-21 10q-19 -35 -22 -80l-33 -43q-37 -21 -96 -43l6 -12l-33 -4l-10 -17h-39l-21 17q-108 18 -200 79l-43 86l-7 56q0 46 39 111.5t76 82.5l60 17 q26 -9 43 -6l20 -17l39 -10l27 -27l-11 -22l21 -49l-17 -54l-43 -43l-16 11q-6 -2 -37 6l-6 -6l-16 10q3 20 -4 39h16l-6 16l-23 21l-4 22l27 -10q37 -28 37 -66q19 4 28 17l11 -6l10 26l-10 39l-43 49l-66 11q-21 -15 -38 -63q-15 -43 -15 -73l10 -26v-13h6v-10l16 -26 l-22 -11v-22l27 -17v-16l26 -20l6 -23l86 -27l27 7l12 -7l31 11q50 57 76 147q3 42 16 123l27 16l16 23q-4 37 -4 59q0 -18 10 54q-10 71 -10 53q0 28 27 135l-119 12l-53 -22l-39 -43v-17l16 -22l17 -10l6 -21h-33l-6 21l-43 38l6 37l37 33l-6 6l6 15l26 16l7 16h20l37 15 l131 -25q29 59 27 96l-11 33l17 33v22h16q7 40 27 103l-11 16q35 105 97 166l12 33l-16 22l-72 33l-10 15q-28 10 -49 28l-17 4l-10 13h-64l-6 -23l17 -16l-43 -37q-33 3 -73 22q-57 27 -69 31q-38 6 -112 23l-70 -17l-16 -16l-23 -6l-16 -37l-21 -12l-16 -43l10 -37 q-6 -40 -6 -65v-11q7 -7 16 -53l33 -17l-10 -6v-33l70 -80l92 -12l26 17l39 65q11 56 11 76q0 2 -7 76l-32 63l59 -27q50 -50 66 -86q5 -57 26 -81l-4 -31l-76 -17l-22 -22l16 -4l-37 -39q-50 -12 -82 -43l-53 22l-12 -12l-17 12l-14 -16q-20 14 -55 47l-10 49l-27 23l-6 20 l-27 27l-26 12q-15 109 -50 146l11 80q32 61 59 88q48 25 141 63q126 34 223 34q10 0 15 -1l420 -113q86 75 141 80l27 -27l-4 -6l-7 -37l-22 -10q-21 4 -31 4q-14 0 -39 -4l-16 -16q38 -7 98 -31q68 -27 96 -35q44 -4 129 -16q19 -7 56 -16q40 -4 119 -11l79 27l13 39 l-33 10v6l-12 4l32 17q23 -10 50 -6z"/>
<glyph glyph-name="G" horiz-adv-x="1255" unicode="G" d="M1249 1104q1 -11 1 -21q0 -105 -66 -163l-4 -31l-23 -33l-53 -22l-23 -27l-26 -6l6 -10l-43 -5l-12 -12q-20 -2 -74 -22q-41 -15 -70 -15h-6l-76 27l-88 86l-4 70l10 22l-10 16q4 62 4 93q0 10 -4 26q14 68 37 119l33 16l22 37l43 23h27l16 -6l109 22l26 -6l17 -27 l26 -16l11 -16l26 -21q-2 -29 -2 -53q0 -69 15 -94l-23 -37l-6 -39l-10 -10v-33l-11 -10l-22 -6l-16 -21q-38 -12 -97 -43h-22l-21 10l-32 76l6 70l26 39l43 4l21 -17q-12 -43 -37 -106l16 -12h33q51 38 64 98l16 80q-7 31 -10 39q-14 22 -70 43l-12 22l-15 10h-55 q-9 0 -29 -4q-23 -5 -30 -6q-34 -73 -45 -102q-20 -52 -31 -109l23 -49l-11 -27l4 -43l93 -81l43 6l81 49l11 -6l6 6l43 10l37 -10l26 4l86 194l-4 33l17 17l-13 49l-10 10v16q-52 62 -86 80v13l-33 20q-26 43 -49 59l-14 -6v6l-23 -10q-28 4 -43 4q-10 0 -22 -4q-7 1 -29 5 q-20 4 -29 5q2 0 1 0q0 -2 -105 -16l-27 -16q-10 -1 -26 -4q-16 -6 -46.5 -20t-45.5 -19q-27 -3 -80 -17q-10 -21 -81 -80t-97 -65l-33 -66l4 -47q-42 -63 -47 -98l-13 -10l7 -23l-11 -31l11 -6v-16l-23 -27l-4 -92q39 -52 39 -113q0 -13 -2 -26h6l20 -66q21 -25 72 -69 l27 -6l10 6l23 -13l10 -26l53 -21l16 4v23h17l33 -23l32 -4l27 11l102 -39h23q36 10 47 16l16 16h23l4 13q37 30 66 30l22 17l4 16l17 6l10 109l49 26l43 5l12 16h15l6 -10l22 10l17 -10q-18 -18 -23 -49q6 -37 6 -43q0 -5 -6 -54l10 -10q-11 -50 -11 -89q0 -13 1 -26 l-10 -26v-70q0 -2 2 -8t2 -8q-16 -60 -16 -135q0 -7 6 -50l-11 -32l11 -27v-20l-11 -23l5 -10l-11 -23l-10 -10v-27l-16 -39l-27 -26v-10l-16 -7l-27 -53l-12 -6l-10 -37l-17 -10q0 -16 -33 -49q-43 -22 -59 -43q-34 -15 -102 -39h-2q-15 0 -117 -21l-113 21l-10 -16l-55 6 l-17 16l-73 33l-33 33v10l-49 59l-7 43l-16 27q-11 61 -11 95q0 10 1 17l22 33l-6 23q29 50 76 108l23 11l10 20l76 43l10 12q60 9 56 11q10 -1 40 -7l6 7l49 6q39 -16 60 -39h37l22 -17l27 -92l-6 -10v-49q-7 -21 -27 -37l6 -16l-43 -37h-6l-27 -29q-25 -14 -69 -14 l-13 -13l-20 -4l-10 21l-23 -4q-18 3 -37 14l-12 23l-16 10l6 49l33 49l26 17l10 20l23 6l27 -16v-23l-23 -16l-14 -4l-6 -27l10 -16v-27l59 -6l27 49v37q0 53 -17 102h-10v17l-16 6l-27 27h-49l-20 -23l-33 -16l-6 -11l-21 -4l-26 -65h-23l-16 -23v-59l16 -37l-6 -23 l-14 -10l-13 -37l6 -22l17 -21v-28l-10 -21l20 -33l39 -26l53 4l-6 -10l39 -27q24 12 51 12q12 0 25 -2l20 17l10 -4l7 14l26 12l66 -6l20 -16l39 10l17 -21l53 11l55 43q10 14 27 43q26 58 26 125l-26 10l4 16l28 10l37 119l-16 91q1 0 6 24l-6 102q-14 60 -33 172l-16 -4 l-86 -65l-21 -6l-32 6l-17 -10l-76 16l-6 -23l-47 -20l-39 14l-10 -4l-59 17q-24 13 -66 47l-27 6l-20 -6l-39 6q-28 25 -70 39q-22 22 -32 53q-12 0 -76 53q-13 58 -37 76l-6 33l-27 10l-22 33l-4 22l4 17l-11 20q2 25 7 76q7 17 16 53q-1 17 0 49q4 32 37 99l10 10 q25 76 55 108l-6 4q20 15 64 77q42 59 78 81l4 -6l16 37l39 16h37v23l49 26l37 -6v13h55l53 36l195 27q44 -12 59 -10l11 -10l53 -7q23 10 49 7l10 10l55 -21q16 -21 52 -48q47 -35 57 -44l4 -12q50 -30 92 -172zM936 60v1v-1zM474 111h-3h3z"/>
<glyph glyph-name="H" horiz-adv-x="1548" unicode="H" d="M356 1042v27l-53 -6l-49 29q5 -32 22 -93l33 -22l37 22q1 5 6 23q4 15 4 20zM1405 145l-6 23l-17 16l-36 -32l10 -50l39 7zM1491 750l-6 -27l-21 -27v-16h-10l-6 -10l-119 -23l-16 -26h-17l-16 -21l-27 -6l-6 -27h-4l10 -16q-7 -56 -26 -98l16 -11q-12 -25 -15 -77.5 t-11 -73.5v-178q9 -33 14 -43l22 -27q28 -12 60 -12l16 2l37 20l23 39l-23 -10l-43 10l-20 37v12l-7 4l-8 37q0 15 4 39l13 19q41 22 90 22q14 0 20 -2l23 -29h10l-6 -20l26 -27l-4 -6l11 -26q-38 -55 -43 -99l-43 -47l-99 -6q-35 10 -80 23l-43 36l-43 82l-12 107h-4 q-8 65 -8 47q0 39 12 61l-4 23l-10 10q20 82 20 162v10h-16l-10 10l-17 -10l-76 17l-53 43l-43 -5l-6 -6l-6 -22l-10 -10q-10 -5 -37 -11q-23 0 -72 4l-37 23h-22v-10l12 -6l-12 -76h-17q-5 -28 -30 -53q0 -67 -17 -103l10 -12q0 -26 -11.5 -84t-11.5 -84q0 -11 1 -21 l-10 -10q-13 -43 -13 -92q0 -6 1 -18.5t1 -18.5l17 -16v-13l-17 -4l17 -16l-17 -10v-13l-26 -16l-23 29v-17l-20 -6q-60 40 -76 70q5 39 5 89q0 25 -1 52q19 39 49 119q2 22 6 65q26 184 64 285l-21 23h-43l-12 10l-102 33q-4 1 -9 1q-21 0 -51 -24h-15q-75 0 -114 -37 l-16 -43v-22h6l4 -10l33 -7l16 29l-30 14l4 23l53 -6l43 -31l12 -22l-16 -27l-23 -6l-10 -27q-27 -13 -49 -10l-21 -12l-6 16l-26 12l-17 21l-6 39l-20 20q10 24 32 70q8 13 46.5 37.5t56.5 27.5h10q12 0 32 7q25 8 34 10q91 1 268 26q8 61 39 129h-17v9q2 12 -2 33.5 t-4 31.5l6 90l17 37q0 69 -20 108q-17 33 -72 87l-109 43q-47 -12 -59 -11l-4 -16l-109 -33l-108 -96q0 -101 -27 -135q17 -44 92 -142l21 17l65 -6l53 16l23 27l37 119l-10 38l-33 37l-60 13l-26 -17l-4 -26q16 4 26 4q13 0 37 -4l33 -45l-6 -37l-43 -54l-54 -28l-32 28 l-21 5l-39 65v14q2 21 -6 62l33 37l82 39q33 4 49 4q116 0 172 -54q1 -4 5.5 -20t4.5 -23q0 -14 -4 -38l-12 -15l6 -45q-12 -28 -43 -47l-6 -39l-53 -43h-23v23l-33 -33l-37 -10q-29 5 -67 5q-16 0 -35 -1q-34 22 -65 22q-27 27 -33 60l-37 10l-23 39l13 4l-33 92l6 53 l21 29l10 4l22 62l97 79l55 11q30 13 86 43h16l11 -11l38 4l11 -10q32 8 49 6h10l4 -6h27q77 0 137 -16l14 -17l45 -20v-10l31 -39l23 -80l-7 -29l-4 -4q7 -37 7 -74q0 -77 -7 -100l-16 6l4 -65l-4 -11l-12 7l-11 -23l17 -10q-17 -77 -17 -86q0 -2 7 -39h49q31 7 47 12 q26 -12 115 -12q33 0 98.5 -10.5t99.5 -10.5q6 102 27 136q-10 76 -10 90q0 24 16 45h16q1 36 16 119q11 64 11 106v12h10l-10 90h16v66l35 37l47 -43l4 12q68 -30 99 -88q-7 -36 -29 -106l-10 -7l-4 -26l-13 -6v-37l13 -17l4 -43l-10 -10h-23q-63 -63 -63 -106q0 -27 4 -41 l-4 -4l10 -66l-17 -43h-26l10 -10l-20 -66h75q28 0 97 49z"/>
<glyph glyph-name="I" horiz-adv-x="897" unicode="I" d="M743 1286l-22 6l-23 -49l-10 17q-30 -36 -78 -128q-44 -86 -78 -120q0 -30 -26 -66l4 -26q-9 -28 -37 -76l4 -39l-37 -47q-6 -40 -6 -65v-11l-10 -16q4 -60 27 -97l43 -26q8 -46 26 -70v-27q47 -51 96 -63l-4 45q18 37 18 103v20v26q0 68 9 99l-10 10h-17q6 31 6 33 l-6 55q13 17 22 52q11 42 17 55l-6 49q10 18 27 108q18 20 39 91t21 111q0 8 -1 13zM877 1458l-5 -20q-13 -12 -30 -95q-14 -67 -14 -98q0 -7 1 -12l-16 -33h-10l-17 -82h-6q-6 -49 -6 -53v-188l6 -17h-6v-10h17l22 -16q-13 -28 -43 -66q-8 -48 -33 -76l17 -20 q-17 -66 -17 -119l6 -55l-12 -49l-10 -5l10 -10l-16 -88l49 8l-6 17l33 43l-27 59v6l22 4l11 -16l20 -4l12 -27l-26 -71l10 -11q-39 -39 -102 -53l-6 -186l-17 6l-37 -109l-65 -65l-11 -4l11 -17q-57 -4 -92 -32l-5 -23h-22v23l-10 10l4 16q-46 -26 -80 -63l-10 4l10 22 l-53 -16q-83 23 -88 25q-67 21 -76 34l-14 27l-17 6l-29 27l-4 37l-39 38l7 5q-12 19 -21 65q-7 34 -7 57q0 7 1 13q36 40 43 82l10 4l6 -4q65 36 76 36v7l37 6l33 -6l26 10l11 -10l32 -7l13 -16l43 -10l43 -66l4 -43l12 -4q-14 -31 -14 -60q0 -11 2 -22l-53 -63l-33 -12 h-33l-16 6l-11 -11l-4 11h-32l-13 26v23l-10 -17l-10 11l-6 16l12 6l-12 4l-4 60l26 49l27 10l-6 -16h22l10 -11l11 7l-11 -39l-10 -11l6 -26l-6 -33l17 -22l16 -5l4 -6l12 6l17 -6l4 11l22 16q22 49 22 76q0 5 -1 10l-4 -14h-13l7 53l-7 20l-47 45l-43 15q26 -17 37 -31 l-33 16h-49l-43 -28l-16 6l-4 -17l-10 -6l-13 -20l-4 6q-18 -41 -18 -87q0 -14 2 -28l16 -4q21 -36 21 -55l32 -16l23 -33h20l23 -21l20 17q29 -23 82 -23q67 23 156 27l22 28l11 -16l22 16l4 60l17 -23l22 33q15 100 15 174q0 19 -11 70h-43q-23 4 -62 36.5t-46 55.5 l-21 12l-16 31l-16 -4l-11 20h-10l-12 66q-63 63 -76 129v47l-16 20l12 66l20 6l7 -22l10 32l26 17v7q0 127 136 263h6l20 27h17l12 16h10v10q35 45 96 103l17 43h12q16 37 53 79q42 47 76 56l21 -4z"/>
<glyph glyph-name="J" horiz-adv-x="901" unicode="J" d="M569 770l-12 6q12 80 12 86q0 12 -3 33.5t-3 32.5v172q-26 -32 -43 -76h-10l-6 -47q-19 -33 -53 -98q-12 -33 -39 -97h-4l-17 -65q-48 -42 -74 -111l-6 -2q-6 -23 -6 -86q0 -10 -4 -22h-6l-4 -47l14 -54l-16 -16q6 -16 59 -76q48 -54 64 -68q37 -32 82 -45l10 103l-17 10 l-6 70q22 42 22 80q0 13 -3 26h10q14 41 20 103q10 21 23 65q8 44 16 123zM834 260q-12 -55 -17 -70q-22 -30 -94 -46q-46 -10 -84 -10q-12 0 -23 1l-10 -147l-16 -17q-20 -65 -20 -100q0 -14 3 -23l-16 -6l-10 -49q15 -28 18 -82q3 -66 8 -86l-4 -14l11 -6q0 -26 -33 -73 t-33 -73l-33 -43h-10q-10 -63 -49 -125l-10 7l-21 -23l-39 -6q-16 -15 -86 -47h-16l-10 -23h-17v-16l-59 -4q-56 23 -146 30l-86 60q-15 31 -87 107q-60 63 -70 116q-6 105 -6 107q0 49 38 130t76 113q59 50 258 80h99q56 0 94 -33l22 -41q-1 -10 -1 -21q0 -49 30 -110 q-19 -60 -27 -145l-16 -16l-6 -27q-13 -14 -31.5 -48t-32.5 -48l-114 -45q-53 1 -130.5 61.5t-90.5 112.5q4 60 9 88q11 50 34 80l114 37l4 16l39 6l17 21l59 -21l37 -33l16 -39l-22 -43l6 -43l-10 -43l-17 -22v-15l-69 -38l-56 16q-33 29 -43 70q10 60 39 86h10l-10 -86 l21 -37l22 -6l21 10l49 72l10 47q-31 21 -47 49l-45 6l-59 -16l-5 -11l-10 -6l-6 -26l-6 4q-29 -61 -33 -150q21 -29 66 -72q47 -17 89 -17q12 0 23 1l56 29q45 65 69 96l23 82q-14 54 -14 102q0 13 1 27l-20 27q-92 32 -211 32q-18 0 -49 -10l-21 10l-55 -26 q-31 -25 -60.5 -82t-29.5 -96q0 -46 4 -132q14 -24 33 -65l18 -16l-8 -25l6 -12l54 -43l12 -4l-6 -23l26 -20l11 4q58 -34 141 -34q24 0 51 3q31 24 35 37h16q45 44 86 59q21 49 66 113l26 16q14 28 11 43h-4l20 60l-4 55l-6 10l10 17q10 40 10 122q0 23 -10 105l23 59 q-8 33 -17 51l4 134q-72 28 -133 86v16q-24 8 -63 49q-58 60 -72 100q-22 58 -39 84q2 15 -5 39q-7 28 -7 39q10 29 39 125q42 47 55 80h20l23 59v17q44 58 70 102l26 17q23 28 49 82l-10 26q6 20 30 39q20 15 40 31q16 22 49 65v27l33 65q20 6 47 37h16l17 17l10 -4l29 20 l10 16v17l10 6l23 -6l16 20l10 -4l-6 -39l16 -4q-9 -22 -13 -57q-4 -45 -7 -57q-5 -21 -19.5 -62t-19.5 -61q1 -35 -16 -109v-43h-11q2 -18 2 -34q0 -52 -18 -79l-16 -16l-21 -76l10 -26l21 14l-10 -37q6 -43 6 -49t-6 -43h-7q4 -25 -10 -53l17 -10l-33 -29h-4l-13 -39 l13 -10q-6 -10 -6 -94q0 -19 4 -52q5 -38 6 -51v-96q-7 -25 -10 -29h9l103 33q53 56 76 125l23 -17v-59z"/>
<glyph glyph-name="K" horiz-adv-x="1602" unicode="K" d="M1524 188q0 -6 -4 -20t-2 -23q-36 -32 -87 -56q-70 -32 -92 -46h-16l-16 -10l-37 10l-33 -6l-10 12l-70 17q-18 16 -55 36l6 7l-23 16l-4 10q-30 23 -96 108q-63 80 -88 124l-59 39q-8 64 -33 102l16 4q-17 24 -49 72l-20 10v16l-50 54l-10 -43l6 -17v-20q0 -30 4 -66 l-20 -43v-10h-12v-16l-11 -11q-17 -117 -49 -254l13 -12q-3 -54 -56 -135l17 -4l-4 -76l-23 10l-6 -26h-21l-6 16l-20 -10l4 10l-37 16q-26 23 -33 54l-16 16q0 21 40.5 134.5t57.5 141.5l-12 27q8 21 22 96h11l-6 23q55 71 55 106l-10 7l4 32h16q6 38 10 119q36 57 39 119 l-16 6l-6 59l12 48l-6 32l16 6q4 33 4 54q0 33 -20 161l-33 43v23l-10 20q-52 17 -129 17l-72 33q-49 -20 -145 -43q-28 -28 -49 -33q-37 -48 -43 -103q0 -53 12 -65l-17 -21q19 -83 129 -145q18 1 35 1q52 0 101 -7l26 10l66 66l20 53v49q-6 23 -16 53l-47 60h-66l-6 6 l-20 -10v-11l-13 4l-26 -16l-21 -37h-12l-10 -43l22 -16l27 -49l35 -23l45 33v76l-15 39l11 4l26 -21l33 -55l4 -47q-52 -61 -74 -66l-32 6l-27 -6l-33 27l-16 43l-27 6l-22 27l-6 32l45 76l79 49q30 2 93 17l6 -13l-6 -10l32 -10v10l21 -6l16 -16h23l10 -37l23 -23 q3 -37 14 -102h-10v-21l-11 -6l-16 -59q-11 -19 -39 -38q-24 -16 -47 -32l-65 -10l-33 -23q-42 36 -107 39l-39 -6v-6l-20 17l-12 22l-43 16l6 -16l-27 10l-16 27l10 16l22 -6v33l-22 6l-10 10v-16h-6l-17 16l-4 33l-22 43v27l-11 -4v16q0 30 40.5 85t68.5 64l26 50l43 26 l37 -10l125 33l17 -6q14 1 30 1q103 0 228 -77q85 -72 125 -189l-7 -6l23 -86l-23 -92h-10q-7 -12 -8 -61q-1 -62 -2 -68q-13 -17 -27 -80l-12 -16l12 -6q32 7 67 40l56 56q18 10 49 33q176 158 201 237l27 23l20 37l60 26l22 23l-10 10q20 25 20 49q26 20 33 37l10 -4 l33 63l43 -4l10 -6l13 -26l20 -17l10 -33h-10l-4 -20l-45 -12q-17 -47 -43 -70l-10 -33l-27 -4v-26l-22 -50l-21 11q-36 -21 -102 -66q-24 -26 -76 -74v-6l-92 -86l-10 -33l-43 -49l-7 -16l-22 -4l-4 -12l-27 -7l17 -79l26 -27q11 -44 76 -109l4 -20h6l-6 27l16 6 q23 -49 56 -76l-13 -6q35 -41 56 -97l26 -12q11 -20 27 -37l-10 -6l-23 10l6 -30l21 -33l-4 -6q10 -16 33 -43q44 -41 68 -57q40 -26 81 -29v6q70 13 135 63q20 30 33 86l-21 17l-22 49l-27 10l-59 -16l-43 -31l-6 -45l22 -20l27 6l4 14l23 6l-7 6h23l10 -22l-26 -37 q-39 -9 -60 -6l-26 33l-27 10l-16 59l32 60l70 38q42 -14 53 -12q71 -33 109 -90l-6 -16q6 -13 6 -56z"/>
<glyph glyph-name="L" horiz-adv-x="1442" unicode="L" d="M580 438h-29l6 21q-6 -1 -13 -1q-21 0 -52 7v16l-11 -12h-43l-16 -10q-26 3 -49 -6l-4 -11q-45 -28 -66 -49l-16 6l-4 -10l4 -6l-21 -10v-33h17l-7 -10l-49 -27l-4 -29l-16 7q7 -61 37 -156l26 -16v-33l27 6l59 -12l39 6q54 31 109 86l16 125q14 16 20 41q5 22 11 45 q11 19 29 65zM1151 1247l-6 17l6 6l-16 4l6 10l-27 39q-15 -8 -40 -8q-11 0 -25 2q-29 -24 -54 -27l-6 -10l-26 -16l-13 -50l-14 -4l-12 -22l12 -27l-16 -10l-17 14l-12 -20l6 -6v-43l-6 -4l-4 -23l-39 -59v-33h-4l-6 -59l-17 -33l39 -11l27 33l43 6l20 21l17 39l28 14 l11 29l26 20l27 -20l26 20l-10 33q4 24 36.5 84t39.5 94zM1411 172l-37 -61l-22 -2l4 -13l-17 -30l-43 -13l-16 6l-53 -53l-23 10l-10 -10l-66 31l-14 22q-31 7 -102.5 92.5t-108.5 92.5q-20 33 -76 96q-23 20 -55 31q-40 15 -53 22l-17 -10l7 -10l-17 -6l-6 -64l-10 -6 l-17 -37l-36 -29q0 -2 2 -10t2 -10q0 -12 -4 -33l-29 -37l-14 -55l-17 -10l-6 -17l-43 -36h-10v-13h-6l-92 -43l-37 10l-7 -10l-32 -10l-33 27q-37 2 -107 16l-81 92q-24 47 -24 99q0 18 3 36l10 4v23l-16 6q11 25 37 74q17 29 59 88l29 20l43 11l16 16l-6 6l59 17l-6 6 l66 4l22 16q56 6 60 6t53 -6l16 -20l64 4l-4 39l86 215q-91 18 -227 59q-3 -1 -97 23q-31 38 -69 69q-18 43 -39 129q19 53 26 125q48 95 109 129l33 10l26 -4l27 -16l27 10q82 -29 118 -65l17 -27l43 -33l-4 -10q22 -52 22 -85q0 -9 -2 -17l-16 6l-47 -109h-13l-16 -22 l-27 -15h-20q-59 24 -76 43l-10 -6l-6 27l-23 10l6 45h11l6 31l37 29q17 -3 55 10l16 -33l-6 -10l-33 4l-20 -27v-26l-6 -17l22 -32h27q26 11 63 55l29 76q-4 4 -12 36l-21 27l-33 10l-32 29l-6 -12l-11 22h-20l-17 -16l-6 10q-19 10 -32 6l-5 -6h-22l-10 -10v-10l-50 -23 q-54 -52 -54 -146q0 -11 1 -22l27 -43l53 -26l55 -60l37 -10l6 -6q26 0 54 -11l6 7h47l29 -13q43 13 59 13h4q13 59 55 135l-12 43l16 43h7v20q2 4 49 119q13 34 86 115q3 6 10 16l23 -6l53 37q98 6 102 6q15 0 27 -6l39 6l4 -10l43 -6l29 -54l-17 -102q-43 -51 -65 -141 l-27 -33l-23 -10q-50 -46 -59 -86q-60 -23 -96 -66h-17v-27l-36 7l-23 -13l-10 -16l-49 -4l6 -33l-23 -27l6 -22l-12 -4v-72q0 -57 -14 -86l-6 -4l-17 -29l-16 -4v-26l16 -33l37 -16l6 -17q58 -23 137 -72l31 -41q84 -29 109 -65l10 6q73 -67 86 -104l82 -47l59 16 q22 17 47 59l-20 60l-27 26h-32l-17 -26l-6 -39l16 -10l7 -17l-23 -6l-27 43v55l50 37l20 -10l16 6l23 -12v-17l10 -4l10 4l13 -14l14 14l33 -36q0 -48 12 -66z"/>
<glyph glyph-name="M" horiz-adv-x="1989" unicode="M" d="M1890 43l-43 -33l-6 -16q-28 -14 -59 -10q-15 9 -116 46q-54 21 -105 89q-28 53 -31.5 107t-5.5 108q-7 25 -17 76q1 16 1 42t-1 60q-1 13 -12 48q-10 31 -10 50q0 22 6 74.5t6 81.5q0 4 -6 102l16 39q-6 33 -6 97q0 8 3 24t3 25q0 8 -5 26.5t-5 26.5q0 13 7 48 q6 31 3 50l-6 6l-16 -6l-10 -10v-16h-7l-4 -50q-14 -17 -44.5 -88t-30.5 -90l6 -10q-26 -17 -33 -43l4 -16l-37 -43v-17l-22 -43l12 -39l-6 -4l-27 -65v-17l-10 -22l-12 -4q-13 -25 -43 -60v-16l-27 -70h-6q-4 -31 -17 -71l13 -21v-16h-13l-4 -23l11 6l-7 -32l13 -11 q-56 -101 -56 -125l-16 7v-125q10 -29 23 -64l16 -16v-17l-39 4l-10 7q-53 0 -96 26v6l-27 54h10l4 49l-14 26l-6 -4l-17 70l11 53q-7 12 -27 185h-10q-19 73 -39 96l-4 33l4 16l-4 16h16l-6 70l-33 33l-16 86l-21 6v59l-12 21h23l10 -17q-4 52 -37 88l4 -28l12 -21l-32 17 l-7 10l-10 -10q-5 41 -26 118h10l-17 70h-4l-6 16l-22 11l12 12v10l-16 10l-7 -43l11 -36l-11 -17q25 -101 33 -184l-16 -49q26 -167 26 -172q0 -22 -8.5 -66.5t-8.5 -66.5q0 -10 1 -19l-16 -33q1 -15 1 -28q0 -32 -7 -54q-6 -16 -5 -20l-20 -33v-26l-12 -11v-26 q-36 -32 -46 -66l-18 -76q-8 -14 -22 -43q-4 -24 -27 -69q-34 -21 -89 -41.5t-79 -34.5q-43 9 -129 20l-33 23h-32l-48 53l-28 13q-18 15 -31 53l-12 6l12 10l4 -10l6 10l-22 49l-10 11v36h-11l11 33l-7 10q13 62 66 119q50 36 102 45l103 -28l43 -37l6 -23l16 -16l17 -43 l-6 -17l6 -43h-6l-17 -53l-33 -37l-53 -22h-33l-43 22h-26v27h-23l-4 27l4 16l-10 4v6l10 6v11l12 10v6q41 20 60 20l4 7l39 -7l-6 -20l-33 -16l-16 -37l6 -39l10 -6l39 12l20 16l13 70q-3 40 -45 92l-43 10q-44 -18 -80 -26l-17 -56l-16 -14l-16 -49l26 -66l17 -10h32v-39 l27 -26l22 16l27 -27q56 -17 97 -17q11 0 22 1l59 27q58 67 66 118l-12 7l22 6q18 62 37 124q21 74 22 128l11 -15l32 74l-10 33l10 22l11 4v17l-11 -10h-10q2 27 15 90q14 71 22 77v50l-6 14l6 6q-2 27 -12 100q-8 63 -8 101l-7 10q17 66 17 109q0 21 -7 59q-8 49 -10 59 l-75 76l-37 10l43 11v6l43 -17q20 11 80 11l102 -21l6 -16l33 -29l10 -27q41 -15 53 -47q-7 -17 -4 -32l-16 -13h10q5 -26 33 -73q-1 -4 -1 -11q0 -26 11.5 -91.5t22.5 -90.5q18 -31 49 -94l4 -109h-10l43 -96q-1 -8 -1 -17q0 -33 17 -75l21 -23l12 -32l-12 -86l22 -60v-53 q11 24 14 63q5 47 9 62q10 38 59 171q55 152 74 173l16 12l13 37l-13 6q14 32 39 96q2 14 10 39q28 45 66 140h10l10 39h17l10 30l-10 23q4 29 35 71t34 64l39 4v45l21 -12v12l22 4v10q23 -7 43 -4l76 -39l10 -16l-16 -10h-10l6 -33h-12v-47l-11 -6l-4 -53l-16 4l-6 -60h-11 l-6 17l-20 12l10 -72l43 -80l6 -88q-39 -77 -39 -106l6 -23h-6l11 -43l-17 -10l-10 -27v-28q0 -6 6 -43l-10 -47l14 -17q0 -23 10 -60q11 -41 13 -58l-6 -23l22 -49h-6l27 -53l16 -11l6 -22l23 -21l4 -22l-10 -4l6 -17l-13 -16l23 -76l70 -59l22 4l27 45q4 82 4 123 q-7 31 -10 39l-11 -6l-16 -93l10 -26l-4 -33l-16 6l-23 64l-10 -4q-14 10 -23 32v17q21 67 43 90h82v-21h11l-5 -22l31 -64q-2 -13 -2 -25q0 -25 8 -40l-6 -23l6 -4l-6 -10h6v-39z"/>
<glyph glyph-name="N" horiz-adv-x="1585" unicode="N" d="M1769 1350l-22 10l6 -64h-6l-10 -16h-6l-11 -16v-11l-6 -12h-16l-4 -20l-43 -11l-17 -32l-49 4l-16 12h-21q-12 12 -32 20l-17 -4l-6 21l-53 39v59q0 6 6 43l43 53l63 17l17 -10l22 -33l11 -70l-11 -12l-43 39l-22 47l-27 -14l-6 -89l23 -47h108q39 43 59 86l-6 93 l-65 86l-92 4q-31 -20 -80 -43q-22 -39 -82 -90q-1 -5 -5.5 -15t-4.5 -14q-3 -30 -11 -86q-7 -13 -16 -43l-10 -6l30 -47q-9 -27 -36 -76q0 -71 -37 -115q2 -22 2 -39q0 -46 -15 -63l-4 -60l-6 -10l6 -33l-12 -10q4 -38 16 -113l-16 -38v-14q0 -108 -43 -185q2 -50 6 -152 q1 -23 12 -104q6 -44 6 -86q0 -16 -1 -31h-7v-16l23 -33l-43 -16l-12 6h-47q-26 25 -66 33q-37 79 -83 265q-43 174 -43 249q0 11 1 20l-16 31l-31 16h-16l-23 33l-16 10q-20 55 -27 135q-47 59 -53 119l-33 23l-27 43v6q-36 31 -43 59l-12 -12v-43q9 -31 39 -86l-10 -37 l4 -16q-8 -23 -4 -43l-6 -7l16 -32v-54l-27 -65v-21l-12 -16q1 -13 -27 -92q-20 -58 -32 -119q0 -32 -17 -92l-14 -16l-12 -33l6 -53l-6 6l6 -39q-13 -81 -43 -109l-6 -47l-27 -29l-49 -14l-21 -29v-10l-26 -10l-6 -16l6 -50q-50 -11 -90 -11q-13 0 -25 1q-16 10 -49 27 q-49 20 -97 40q-75 34 -85 58q-25 50 -66 150v6q0 30 -16 82l39 139q49 26 139 125l59 4l27 -16h33q32 -32 54 -97q32 -97 38 -108q-16 -27 -16 -80q-16 -15 -36.5 -56.5t-39.5 -58.5q-17 -4 -27 -4q-22 0 -59 4l-17 29q-19 20 -49 31l-4 22q20 53 27 125q9 16 33 43l26 10 l23 -10l4 -12l-10 -21l-23 -10l-20 -55l10 -60l22 -26h21l22 37l21 135q0 31 -21 102l-12 13l-70 -23q-65 -66 -80 -96l-16 -158q26 -52 33 -113l102 -65q58 0 97 -17q39 9 81 56l5 10q14 22 38 49l5 33q50 55 114 237q3 19 10 54q12 34 33 102l-16 23q8 38 20 112 q-1 21 0 60q12 90 29 125q-6 38 -6 155l6 23h-6q-27 70 -27 182q0 10 4 23q-14 5 -26 26q-3 16 -4 43l10 103l59 22v-12l49 -17l31 -30q-2 -8 -2 -16q0 -26 14 -60l54 -55v-11h6q67 -74 76 -188q125 -93 135 -188l-17 -56q20 -60 17 -69l-6 -17q33 -60 75 -108q5 -41 5 -77 q0 -15 -1 -30l33 -82q29 -25 49 -59l17 43q-4 70 -17 113q23 63 23 118q0 13 -7 38q-8 29 -9 38v49q0 15 6 51q6 31 4 52l33 69q0 53 15 156q16 108 32 147q24 54 49 107q33 74 33 111l96 118q53 27 131 64l119 -10l16 -33l31 -6l16 -15v-16l39 -43z"/>
<glyph glyph-name="O" horiz-adv-x="1147" unicode="O" d="M1006 924q-23 46 -27.5 123.5t-11.5 91.5l6 59q-34 42 -37 82l-33 33l-108 43h-50q-39 -27 -59 -27l-43 -39h-16l-27 -16l-10 -33l-23 -20l6 -17q-19 -39 -36 -53q-14 -32 -14 -80q0 -11 1 -24q1 -22 1 -40q0 -42 -5 -63l4 -16l-10 -47l-10 -7q7 -56 47 -96l33 -12 q50 26 88 98q32 61 31 111q0 9 -1 18l-32 23l-21 -17l6 -16q-3 -26 -16 -49l20 -27l-20 -33h-16q-40 20 -50 39l-10 31l10 82l23 21l20 45l11 10l6 -10l6 4l86 -4l37 -33q-10 -28 -13 -76q-5 -60 -8 -76q-2 -11 -13 -42q-9 -25 -9 -44l-60 -71l-16 -5l-10 -16q-67 0 -113 33 q-46 41 -92 129q-2 13 -20 92q-13 55 -13 92q0 51 49 162v10l48 66l-31 -23l-6 -16h-11l-38 -60l-21 11l-27 -4q-32 -71 -32 -117v-8l-27 -49l-6 -60l6 -20l-12 -33l16 -49l43 -31v-23q0 -6 -6 -23t-4 -26l-23 -32l-20 -5l-6 17h-11l-6 10h-4v-6l-22 6l32 -86 q-10 -22 -16.5 -68t-15.5 -67l-4 33l-23 -13l-6 -47l22 -32l-6 -23l6 -20l-6 -11l6 -28l-10 -27l10 -59l11 -11l16 -43h-6l16 -22l6 -37q62 -73 93 -129v-12q36 -32 161 -70l80 6q61 29 131 113l-12 16q37 51 39 76l33 -16q51 57 69 145l23 22l27 64q-3 24 10 59l-23 7 l23 43v16l22 148q19 98 47 139zM1085 1042l-20 -55q11 -88 11 -133q0 -13 -1 -23l6 -16l-6 -10h-10l-16 -55l-33 -43l-17 -146l13 -4q4 -41 4 -65q0 -10 -5 -29q-5 -23 -5 -31h-17v-22h-26q1 -4 1 -8q0 -5 -44 -148l10 -10l-10 -17l-23 -6l-20 -33l-23 -4l-16 -32l-4 -60 l-23 -6l-10 6l-13 -43h-10l-10 10l10 23q-26 -21 -43 -66l-49 -43h-156q-60 0 -166 43q-97 40 -153 80l-76 99l12 16l-6 33l-26 26l-17 4q-11 24 -24 88q-13 61 -13 87q0 69 21 237q0 5 8 32t8 32q0 99 -22 135q23 41 55 135q13 -29 37 -43l6 10l-6 45l-21 10l5 21l12 12 v-12l20 39l11 4v16l6 17l10 6q45 72 43 92l16 27l33 6l27 20l22 60l43 6l37 20l6 13l6 -7l11 7l53 -29l6 -17l10 -10l33 10v7l135 65q36 0 114 -15q60 -12 99 -12q8 0 15 1q58 -42 86 -91q20 -37 43 -120q0 -15 6 -43q12 -29 30 -93z"/>
<glyph glyph-name="P" horiz-adv-x="1419" unicode="P" d="M1411 815l-4 -16l-16 -11l-17 -49h-6l-6 -16v-21h-4l-10 -26l-45 -17l-11 -28h-10v-15q-8 -18 -33 -38l-16 -7l-4 -10l-17 6l5 -10l-27 -12l-37 -53h-12l-11 -27l-20 -6l-6 -10q-96 -23 -119 -43l-27 4l-32 49l-17 112l6 7q56 -17 103 -76l16 -4q80 36 121 103 q31 50 57 153q8 25 17 77l31 -6l12 39q-31 31 -43 33q-1 12 -10 62q-7 40 -7 61q0 19 11 86l-23 -4l-31 16q-17 27 -55 76q-21 16 -59 59v11l-37 6v-17q-52 57 -109 64v-37l-26 -49l10 -53q-14 -146 -53 -191q20 -43 20 -119q0 -8 -5 -26.5t-5 -26.5q0 -2 6 -76l-43 17 l4 -17l-10 -26l16 -27l43 -27v-65l-16 -43h-16l-7 -16v-27l-20 -16l-16 -33l26 -49q-4 -34 10 -60l-4 -59l-22 -37l12 -66l-12 -26l-10 -6l6 -15l-23 -49l6 -49l-6 -27l-10 -6q-1 -52 -35 -91q-32 -35 -63 -71q-44 -32 -92 -32h-11l-20 6l-82 -37q-75 10 -153 63 q-83 58 -105 125v60q27 92 106 178q59 22 72 43l43 16l70 -22l10 -17l22 -10v-10q9 -2 37 -39l12 -37l21 -22q-4 -30 6 -54l-59 -92q-25 -4 -39 -4q-19 0 -80 10l-43 33l-16 37v43l20 16q10 31 33 54h26l13 -15l-13 -12l-4 16q-11 -2 -22 -10l10 -6l-16 -4l12 -12l-12 -27 q14 -37 12 -49l10 -14l53 -13l23 13l6 10l-12 53h6l-6 86l-47 49l-45 10l-43 -36l-11 -33l-16 -6l-4 -11l-16 7v-175q9 -39 16 -59q40 -50 96 -74h37l6 -12q43 10 119 43q3 5 61 92q31 45 31 109q0 18 -10 80h10l-12 78q-8 47 -27 73q6 39 23 60l16 -11q-2 16 -2 32 q0 43 12 87l-36 23l4 26h12l4 21l12 -4l15 16l6 31l-6 6l-21 108l10 27l-4 43l15 6l-11 47l-20 13l10 59l17 21q2 27 10 81q2 10 16 47q11 30 11 49q0 14 -5 27h17q7 56 20 92l10 -4l17 27l-10 10l10 10l-4 17l43 65q-52 11 -66 11q-23 0 -71 -9t-71 -9q-10 0 -20 1l11 -20 l-21 -43q-65 -49 -126 -49h-9l-6 10l-10 -10q-51 -13 -109 -33v-17l-80 -32l-55 -54l-17 -53l13 -22h10q-23 -59 -23 -97q0 -44 13 -71l-6 -11l6 -16l10 -10h-6l-4 -10l4 -17l22 -6l-10 -6l43 -27l4 -16h33l6 6q60 -22 107 -22q73 9 141 81q-3 33 -24 85q-18 42 -35 83 l-33 5q-38 -102 -38 -125q0 -3 1 -5q17 -2 37 -22q-31 -12 -60 -27v13l-49 10q18 123 66 168l43 31l43 6l55 -33l27 -33q2 -15 21 -73q12 -38 12 -61q0 -6 -1 -11l11 -4l-6 -50l-70 -86q-35 0 -119 -49l-10 -16h-33l-6 -10l-16 10l-27 -16l-20 22q-5 -1 -10 -1 q-45 0 -112 47q-70 48 -96 93l-16 82q13 66 49 129l-6 97q18 32 55 92q26 23 72 73q4 7 14 19q122 100 228 135q33 11 86 16q70 8 86 11q20 6 59 16q69 17 147 17q16 0 31 -1q31 24 76 50l16 16l54 10v6l92 -6l27 -26l-5 -17h5l16 -33l-27 -26q-20 31 -53 49h-49 q-15 0 -45.5 -13.5t-40.5 -25.5l37 -6q54 -29 135 -86h6q3 -6 45.5 -41.5t50.5 -38.5l6 -12q43 -27 119 -209v-60l10 -6q12 -37 27 -135z"/>
<glyph glyph-name="Q" horiz-adv-x="1352" unicode="Q" d="M815 59l-12 50l12 20v27l-16 32l-33 7l-23 32l17 37l-4 27l-13 -17q-19 15 -79 105l-66 31l-6 12q-60 20 -103 70l-36 6l-7 -6h-47v10l-49 -10v-7h-39l29 -112l-6 -6l-10 6l-7 -23l11 -26h26q9 -4 92 -129v-33l33 6q12 -26 39 -49l-22 -10q51 -44 141 -72h63q-5 0 115 22 zM1337 -168q0 18 -4 55l-12 4l-16 -10l-5 6l-43 4l-32 -36l6 -33l14 -23l33 -4l33 17l16 -23q10 31 10 43zM1100 795q-8 52 -21 63v10l-16 -14l-10 145q-39 88 -77 175q-34 71 -108 159l-39 -4l-47 14v-4l-118 33l-17 -39l-16 -10l-33 20l-43 -26l-6 -33l-4 -4l-13 10 l-20 -20h-39q-7 -33 -27 -56l-4 -36l-39 -7q-17 -33 -49 -102q-4 -39 -30 -113q1 -9 1 -19q0 -32 -8 -63h-26l-6 -6l-4 -26h10v-21q12 -16 20 -98l-37 12l-16 -6l16 -43l21 -16h6q6 -40 6 -65v-11l10 -10l50 -13l20 7l6 10l66 6l14 -16q85 -22 88 -21q32 -36 37 -65h10v6h13 q17 -27 59 -45v16l4 6l23 -16l10 22l6 4q41 -53 53 -92l33 -10l6 -10h10l21 -11l-4 -81l26 -50h11l16 -26l16 -10l7 -11l-17 -12l33 -43l14 -4q19 26 49 76q7 30 23 90q20 61 39 122q20 69 20 128q0 2 -12 155l29 49l-6 33zM1403 -184q-30 -81 -27 -97l-12 -10l-10 -22 l-27 -27v-16q-58 -18 -93 -18q-8 0 -15 1l-5 -6l-6 6l-22 -10q-23 16 -60 16q-39 27 -118 76l-31 47v17q-36 13 -66 43l-6 16l13 27l-23 39h23l-7 53l-37 -10l-6 6l-10 -17q-9 26 -33 70l-26 -10l-29 4l-10 -10v-11h-7q-80 0 -175 46l-164 94q-11 8 -31 22l-33 6l-6 4v7 l-20 4q-85 73 -185 293q-64 -23 -141 -115l-10 -27l-17 -4l13 -65l36 -27l27 4l10 6l-4 23h21q7 15 16 47l-27 33l7 26l26 -16h17l4 -10v-37l12 -27h16q-10 -35 -28 -59q-23 -10 -47 -60l-39 -16l-17 4q-38 31 -69 92l6 33l-12 20q8 39 6 60l10 6l-4 22l20 27l27 4 q34 34 34 72q0 5 -1 10l65 43l21 -6l12 12q-3 55 -16 119h10l22 27q-16 41 -16 65l-16 -12v49q0 11 6 40q6 25 4 42l43 102l10 5v81l55 136l60 63l4 12q15 23 57.5 59t57.5 60l63 37l23 -6l16 12l10 -12l33 -4l10 16l27 21l22 -4l7 4l75 -11l11 -6l26 13q19 -17 76 -23l27 6 q85 -19 204 -102q0 -42 39 -109l17 -6l10 27q32 -57 59 -86v-10q0 -44 16 -73q14 -23 27 -46l33 -109h-33l23 -59v-17l-12 -20l6 -27l-33 31l-10 -4q-1 -29 12.5 -82t13.5 -76q0 -95 -10 -123h-6l-10 -59q-20 -23 -23 -49l-20 10q-16 -33 -16 -87q0 -22 3 -48l-43 -70 q-17 -9 -36 -33v-4l-11 -6l-32 -76q-38 -25 -43 -43v-16h-13q31 -58 39 -102q29 -22 66 -70l4 -23l10 -4l6 -22h6l33 -86q25 -8 59 -43h54l59 37l33 43q-37 -4 -60 -4q-40 0 -71 20q-22 44 -53 59v39l86 97l22 10l4 -10h17l38 22q6 -17 5 -22l16 -7v-14l39 -6v-8 q0 -39 26 -78v-43z"/>
<glyph glyph-name="R" horiz-adv-x="1348" unicode="R" d="M518 727l-26 49q2 40 2 65q0 74 -13 136q0 -100 -39 -141q0 -4 -8 -41q-8 -35 -8 -58v-4h-10l1 -14q5 -45 5 -51q-4 -17 -6 -27q-7 -30 -14 -88q-5 -52 -23 -74q1 -10 1 -15q0 -25 -8 -57q-9 -39 -10 -45v-2q1 -8 1 -27q0 -26 -9 -86q-4 -27 -4 -48q0 -19 3 -46 q3 -23 3 -58v-5l11 -16l12 -74l14 -12l13 16q0 75 47 158q-1 13 -1 25q0 27 7 44h6l10 27l6 -6l4 59l-10 23q17 122 17 142q0 14 -3 44q-4 30 -4 44t10 54q4 16 4 30q0 4 -1 9h4zM766 625l-47 22l-43 -6v-27l14 -10h39l27 10zM944 1063l-31 20l-28 136l-37 43h-82l-27 -11 l-4 6l-39 -38h-6v-17l-90 -53l-12 -33l12 -33l-6 -10l10 -20h6l11 -72l-17 -37q19 -76 39 -92l-12 -27l6 -43l-6 -22l16 -33l-4 -70l21 11q10 1 64 6l11 1q37 0 99 -28v17q30 24 47 26q10 29 59 113q-1 8 -1 16q0 25 6 69q7 68 7 83v2q-7 57 -12 90zM1300 166 q-18 -54 -118 -189h-17l-47 -26h-13q-101 0 -187 98q-39 43 -60 101l10 38l-4 5l17 55l16 16q-11 23 -19 124q-6 60 -10 101l-53 82l-53 -22l-12 6l-27 -6l-86 55q7 -21 7 -39q0 -6 -1 -16l-12 -10v-43l-21 -43l-8 -7v-34q-1 -7 5 -30q3 -13 3 -23q0 -13 -8 -67 q-8 -48 -8 -61l-6 -6l6 -16l-16 -47l-21 -17v-6l-16 -10l-17 -49l-16 6l4 -23l-10 -10h-17l-4 -22q-21 -28 -49 -54l-6 -10l12 -22l-12 -4l-59 14l-27 45v37q-11 26 -37 37l-6 16q4 7 4 132q1 106 18 138l-22 66l33 145l16 -22q4 38 4 63q0 15 -10 45l10 43l6 7 q10 68 43 129l7 -11q18 144 69 185q-17 85 -26 113q-20 51 -43 118q-30 31 -50 70l-125 10l-63 -21q-27 -19 -55 -75l-4 -33l-23 -16l-4 -21l-12 -12q-4 -44 -4 -68q0 -32 8 -78q7 -38 8 -53q56 -26 109 -26h4q36 56 46 106q7 35 7 115q-5 22 -10 32l-17 21v10h23v6l16 6 l27 -16q65 -88 75 -162l-6 -16l-10 -6v-10l-27 -7l-12 -43l12 -49l-6 -20l-32 10l-27 -10l-23 -33h-16l-4 -6l-23 12l-10 -6l-69 27l-13 -5l-10 11l-4 16l-33 17l-12 20l6 6l-27 21l-6 75l6 13l-16 30l10 56h13l4 10q-1 15 -1 23q0 28 7 59q51 33 108 90l90 33 q72 -2 201 -21l10 -16h11q58 -35 71 -66l11 -4l10 -28l-10 -21l26 -33q20 44 66 82l4 -12l16 -4l115 96q9 -2 17 -4q83 -17 135 -37q54 -21 122 -55q31 -36 45 -91q4 -16 18 -67l3 -10q-1 -5 -1 -7q-4 -24 -5 -26v-1q0 -6 4 -27q2 -14 2 -26q0 -57 -27 -108l-12 -6l-10 -31 l-17 -16v-16l-32 -49l-5 -27h-6v-16l-16 -7v-16l-10 -4l-11 10v-10l-28 -23l-4 -32l-33 -27l65 -59q8 -60 54 -103l10 -43l-4 -22q54 -94 54 -238q0 -20 -1 -53l27 -49h26q38 9 43 12q75 94 82 145l-6 21l6 16l-10 17q-17 -17 -39 -60l-16 -4l-27 15l-4 22l27 53l26 17h10 l11 -17h45q21 -22 30 -47v-55z"/>
<glyph glyph-name="S" horiz-adv-x="1092" unicode="S" d="M788 1350l-16 16l-82 -27l-43 -59l-4 10q-26 -31 -38 -96v-15h-17v-51l28 -53l15 -6v-27l16 11l17 43q43 43 108 141l10 4zM999 205l-16 -17l-16 -4v-6q-17 -18 -47 -78q-35 -71 -39 -90h-23l-59 -53h-17l-32 -16l-21 -23h-27l-16 -14l-22 -6l-33 26l-15 -6l11 -20l-86 6 l4 10l-27 16l-43 -6q-13 16 -91 70q-60 41 -81 76l-22 82l22 129l70 98q8 5 43 25q50 29 73 35q30 8 72 10l33 -11q21 -30 70 -45l59 -63l16 -56q-4 -11 -4 -73l-12 -17l-4 -28h-12l-11 -21l6 -6l-16 -10q-21 -28 -49 -70l-37 -22l-115 22v17l-16 4l-10 49q22 48 65 108 l11 -6l36 43l23 -33h-16l-21 -20q-7 -41 -7 -63q0 -5 1 -13l20 -22h17l16 12l6 -12l21 28l-15 27h11l10 27l10 6l-4 37l-12 10v71l-74 48l-7 1q-25 6 -54 2l-18 -2l-9 -1q-60 -20 -107 -103v-8q0 -31 5 -68l-11 -10l11 -69l43 -60q35 -18 102 -59l33 -6l12 -11l21 -6l22 10 l21 23l38 -6l11 12l59 10l49 66l10 -6l21 6l6 27l-16 20l32 -10v16l-16 17q34 54 39 129q-17 71 -17 114q0 9 1 21l-23 37v45l-10 14l4 29q-18 27 -21 47l-38 16q-22 31 -37 86q-73 68 -129 168q-26 -49 -49 -63l-11 -23l-16 -16q-10 -40 -49 -76l-10 -33l-11 -4l-6 -16 l-16 -6l-6 6l-4 -17l10 -6l-23 -20l-4 -17l-16 -10l-33 -49l-37 -27v-32q-47 -57 -115 -158l-10 -4q-18 -40 -33 -56v-26l-26 -21l-21 -53l-32 -29l4 -16l-17 -20h-4q-13 -18 -44 -99q-30 -80 -32 -102l-39 -49v59l-16 29l-4 30q30 33 49 88q26 74 36 93q16 31 47 73l12 16 q15 20 30 41q14 20 21 29q28 63 96 179q93 65 145 206l39 27q12 34 146 264l-27 70v49l-27 33l21 49l-17 10q13 29 17 64h22l-12 55q13 32 72 86l43 16l16 21l4 -10l131 16q5 -1 7 -1q21 -5 24 -5q47 -51 55 -96q-20 -59 -22 -93l-11 -16l11 -27l-11 7q-41 -43 -59 -86h-6 l-86 -115q20 -32 70 -80l-11 -12h17v6h10q3 -29 29 -64q26 -38 26 -39l17 17l4 -27h16l6 -12l-6 -10l10 6l-4 -12l17 -11l-7 -10q79 -62 93 -119q-1 -7 -1 -12q0 -24 11 -53l-10 -4l37 -103l-5 -49l-12 -6l-4 -43l27 -53v-39q0 -11 -11 -43z"/>
<glyph glyph-name="T" horiz-adv-x="1141" unicode="T" d="M1317 1366l-17 -6l7 -17l-17 -4l6 -22l-32 -17v-16h-11v-10h-49l-6 -21l-59 -6l-37 10l-17 -4l-10 -12l4 -10l-178 22l-16 -32l-15 -11l-22 -45l10 -20q-20 -35 -20 -53l-17 4l21 -43l-11 -11l-16 -43l6 -26l-10 -49l20 -17v-53h-16l-4 -29l10 -16l-10 -10v-37 q0 -13 4 -33l10 -16l-10 -17q1 -72 16 -178l-16 -20h-10l-10 -33l10 -12l-6 -15l16 -12v-20h16l-6 -60h-20l-10 -43h10l-10 -92l-17 -10l-12 -39h-4v-21l-17 -6q-5 -23 -26 -69v-13l-12 -10q-14 -31 -31 -43l-6 6l-23 -22v-11h-10l-10 -10l-33 -12h-70v-10l-39 -17 q-68 22 -143 69q-82 52 -99 94q-12 28 -12 80v1q1 84 56 162q114 25 172 26l39 -10l16 -12l27 -4l37 -43l10 -82l-21 -76l-10 6l-12 -33l-17 -16l-26 -4l-53 20v17l-11 16l11 21l36 -4l13 4l30 65l-10 43l-43 43h-43l-53 -20q-11 -24 -33 -82l-1 -7q-8 -39 -15 -69 q-5 -11 -11 -16q14 -58 48 -86l39 -21h63l23 -12l96 49h33l32 49q11 103 27 172l-16 33q7 22 16 65v166q-16 92 -21 119h33v17l-16 12l-23 43l11 112q0 3 -3 9q-2 6 -2 11q0 3 2 63l1 14q2 47 2 56v18v8l16 32v17q18 25 27 76l16 -7l22 76l60 66q-51 12 -105 12 q-20 0 -47 -2l-10 10l-22 -6l-5 12l-28 -6l-60 10v-16q-51 14 -104 14q-15 0 -35 -2l-6 -12l-16 6l-70 -33v-53q-19 -18 -27 -49l-32 23h-11l-10 -50l-16 -10l4 -55l6 -4v-27l10 -22h23l16 -27l16 -6q6 -25 6 -44q0 -5 -1 -15l55 -21q12 15 45 27q25 9 35 16l26 43l17 10 l10 76l-14 43l-13 6h-16v-33l-76 -26l-10 -17l-10 27l43 59q33 30 76 33l59 -16l16 -23q-1 -5 -1 -10q0 -15 5 -27l-14 -6q2 -17 2 -29q0 -85 -67 -153l-7 -29q-91 -13 -135 -47l-69 27l6 10h-39l-17 23l-20 10l-6 16l-27 17q-14 63 -59 139l16 108h10l11 23h16q3 16 24 49 q19 31 19 41l45 45l59 27l27 -17l86 21l33 -21l106 17l7 10l-11 23l4 20h50l10 -16h16l17 16q93 -11 141 -11q6 0 20 1l17 -10q20 1 31 1q38 0 67 -8v-6q38 -14 53 -37h17v-6l10 -10h12l-6 16l43 21q4 0 28 -8q7 -2 18 -3q14 -1 82 -8l17 -2q73 29 125 80z"/>
<glyph glyph-name="U" horiz-adv-x="1411" unicode="U" d="M1198 1241h-43l-22 -20q-17 -32 -17 -126q0 -36 2 -85l-12 -23v-31l-27 -22v-10h-16q0 -18 -10 -27q1 -7 1 -16q0 -25 -11 -83q-7 -38 -7 -59v-1q4 -36 6 -58l-6 -16l6 -17q-4 -25 -6 -42v-1q0 -14 17 -80l65 152q-1 4 19 76l5 18q19 70 19 72h10l11 55l-4 16l-7 -6l3 24 q8 75 8 95h6q10 54 10 66v149zM1376 119l-10 -53q-16 -39 -82 -82l-76 -17q-189 47 -254 174l-10 54q-20 -37 -20 -66l-33 -16l-17 12q-29 -48 -75 -82l6 -6l-88 -60q-12 -2 -16 -2q-42 -4 -41 -8q-22 1 -72 10q-76 31 -134 120q-48 74 -74 164q-20 66 -20 121q0 38 24 123 q15 53 15 76q0 15 -3 46q-3 33 -3 46q0 8 13 66l10 -16h10q12 31 12 61q0 11 -2 25l-20 22q1 17 4 131l1 22q0 10 -9 34q-6 13 -15 82q-16 136 -51 184l-45 29l-31 4q-79 -12 -131 -53l-26 -60l-4 -69l43 -66l20 -10l23 10l26 -6q9 63 27 102l-10 29l49 -16l20 -27v-76 q-16 -14 -37 -43l-22 -6l-6 -10q-51 -4 -119 -17v33h-31q-75 88 -82 133l10 82l33 37q17 19 111 39q74 16 118 16q91 0 175 -50q40 -24 67 -58q13 -80 43 -125q1 -31 31 -119l-4 -14l4 -23l-14 -37l-29 -28q2 -40 23 -119l-7 -43l7 -27l-7 -10q1 -5 7 -64v-1q0 -14 -7 -27 l-10 -10v-23l-22 -4q-1 -31 -17 -106q-11 -51 -11 -73q0 -8 1 -16l-10 -12l6 -63h-6l-17 -39l11 -33l-4 -10q24 -99 53 -152l43 -43q42 -4 58 -4q46 0 83 27l37 4l10 16v13q35 22 100 119q59 90 74 139q-26 99 -26 203q0 94 26 143l21 20l-10 23l16 16q-12 27 -16 59l-11 7 l-6 36l17 7q3 22 6 52v1q-1 13 -13 70l23 22v43l16 21l17 -5l10 37l-21 60h-12q8 71 39 114l96 86l56 17l36 -27l11 -22l32 -23l-10 -14l-10 -45q10 -37 10 -189q-5 -25 -10 -37l4 -12q-12 -133 -37 -215q-35 -63 -56 -152q-3 -18 -15 -79l-54 -92q-7 -27 -43 -87l-6 -22 q11 -78 29 -244l26 -47q40 -33 93 -43l53 4l53 27l39 55l-16 76h-60l-69 -59l-17 10v26q22 51 76 93l31 10l43 -4zM660 -33v0h1h-1z"/>
<glyph glyph-name="V" horiz-adv-x="1614" unicode="V" d="M1651 1280q-6 -59 -27 -131l-33 -47l-32 -12l-27 -27l-27 -4q-47 15 -75 47l-17 29q0 82 17 106l49 27l47 -4l39 -23l4 -27l-17 -36l-43 -7l7 70l-17 12q-18 -6 -49 -59l6 -55l27 -37l22 -6q34 50 76 86q4 42 4 57q0 16 -4 61l-39 56l-49 4l-86 -64q-10 -30 -44 -74 q-39 -53 -48 -73q-16 -33 -30 -94q-21 -80 -35 -104q-61 -121 -73 -162q-17 -64 -18 -130l-33 -55q1 -12 1 -17q0 -74 -25 -195q-9 -43 -19 -58v-47l-6 -17v-65q0 -13 7 -37q6 -25 6 -38q0 -15 -7 -28q13 -31 13 -61q0 -10 -2 -25l-54 -16l-16 10h-16l-37 43l-23 13h-26 l6 14h-17v29l-12 -7v-16l-20 6l6 10l-13 7l7 36q-5 27 -7 36q-21 111 -20 136l10 13l-22 37l12 -5l10 37l10 11l-4 39l-59 16l-23 135l-20 10q2 17 2 29q0 26 -8 41h16l-16 65h-6l-4 43l-23 43l27 60l-11 70l-16 6l-20 -27l-7 4l-10 92l-22 43v33l-17 10q-15 104 -63 174 l-17 11l11 10l-7 6l-63 20l-6 29q-39 36 -92 53h-27v11h-47h-2v-1l2 1h-2v0l-71 -13l-25 -4l-11 -20q-16 -15 -35 -33q-20 -18 -36 -33l-10 -37h-17v-32l-10 4v-54l4 -19v-1l23 -6v-17l16 -22l-10 -4l4 -23q48 -39 108 -59h70l27 43v12l12 -16l10 4l10 49l23 27q11 35 11 54 q0 4 -1 11h-10v43l-17 23v14h-26l-33 16l-6 17l-33 -4l-4 -13l-49 -20l-27 -76l6 -10l54 -23l16 7q27 38 27 79l26 -16l17 -31q-22 -29 -21 -65l-22 -17h-27l-10 -22l-39 6l-53 39l4 4l-31 39l4 63q23 47 82 76l113 10l49 -14q40 -40 49 -59l14 -6q-4 -57 -4 -115v-14 l-16 -39l-10 -11l-23 -49l-53 -43l-33 -10l-22 4l-21 -10q-36 -4 -53 -4q-13 0 -33 4v10l-39 6l-63 49l10 11l-23 16l-16 27h-21l-32 55l16 86l21 10q4 5 7 9q32 57 32 88q0 2 -1 6l66 59h31q52 33 211 33q100 -26 112 -31q45 -22 55 -29q62 -42 91 -62l18 -13l10 -33 q24 -12 66 -58q41 -48 47 -71l-4 -17q12 -117 43 -151v-16l47 -97v-16l12 -6v-17l11 -26l-7 -11v-16l7 6h16l10 -55l-10 -4l-10 4v-27q5 -21 10 -32l-10 -5l10 -49l-10 -10l10 -39l-16 -10q-13 -16 -17 -39l39 -47h10l11 -33l16 -16v-10q37 -34 37 -119l12 -17q5 30 23 102 q22 92 22 153q1 22 2 32q14 34 21 64q23 96 47 189q6 13 20 54q1 17 9 96l2 17l53 65q2 47 91 158q91 108 142 133l80 10l55 -20l27 -27z"/>
<glyph glyph-name="W" horiz-adv-x="1810" unicode="W" d="M1122 1208l-22 76l-6 -6v16l-21 -16v-70l27 -59zM1835 934l-6 -43h-6l6 -29q-27 -52 -27 -74l-39 -28l-4 -37l-22 -23l-6 7l-31 -17q-36 15 -115 92v70l6 6l11 43l49 43l49 10l16 -10l-6 -16l-16 -10v-23h-6l-21 -33l-10 -90l31 -16l43 10q13 13 26 49q23 63 23 107 q0 58 -43 125l-37 32l-29 11l-47 -64l-12 -6l-10 -23l-21 -16q-10 -39 -43 -70l-6 -20q-38 -32 -53 -88q4 -15 4 -16q0 -27 -63 -193q-7 -19 -17 -59l4 -7q-8 -144 -16 -156q-6 -11 -11 -22v-6q0 -51 -16 -145l6 -17l-10 -32l10 -5l-6 -108l6 -10v-50l-10 -6l-12 6l-21 -6 l-27 23h-12l-26 16v17h-33l-21 26l-12 6v21l-4 6q-6 55 -6 96l-10 27l16 6v39l-27 43q2 15 2 25q0 31 -10 77q-15 70 -14 86v86v17q-8 19 -17 53q-13 87 -26 168q-14 -140 -37 -200q-2 -4 -17 -47q-10 -30 -28 -83q1 -10 -4 -43l-2 -4q-49 -100 -79 -266q-2 -7 -22 -107h11 l-7 -32h7v-33l-33 -27l-27 21h-22l-31 16q-28 37 -49 55l-17 4l-6 39l-4 4l10 50l-10 16l17 10v23l-23 49l10 10q-31 150 -31 185q0 15 5 26l-11 4q-1 17 -6 82q0 6 6 37l-32 145l10 7q0 41 -10 65l16 10l-6 23l6 4h10l-10 33l6 6l-33 106l17 60l-17 65l-32 27 q-18 86 -17 119q-32 50 -37 82h4l-20 69l-43 49q-86 37 -174 37q-21 -6 -53 -16v-10l-43 -33q-8 -32 -39 -71q-31 -40 -34 -47q-31 -65 -52 -175q-4 -20 -4 -31q26 -94 53 -135v-10l86 -23l27 7l59 43h22q44 26 70 86l10 55l13 14q-11 57 -39 109l-49 39h-74l-17 -17h-16 l-33 -43q-14 -59 -32 -88l6 -43l26 -31l37 -6l23 6l20 37q-1 4 -1 9q0 18 9 50q5 15 5 31q0 5 -1 13l-16 6l-6 10h-10v10q60 -11 96 -47q-4 -45 -4 -62q0 -4 2 -10v-3q2 -6 2 -7l-4 -26q-35 -23 -66 -70q-22 -3 -46 -6l1 1q-8 6 -41 7q-5 0 -16 2q-30 21 -53 55h-6l-17 27 q4 80 49 139l4 23q52 77 182 77q2 0 25 -1q46 -47 88 -99q4 -2 35 -135l-47 -139l-59 -59l-23 4q-46 -32 -70 -37h-22l-10 -6h-82l-17 12l-20 4q-10 6 -27 23l-16 4l-6 -11l-54 70q-11 37 -11 59q0 4 1 13l-12 16l-10 43l32 156h11l10 22l12 4v23q36 83 129 188l178 43 l76 -10l21 -16l55 -17l4 -10l23 -6l6 -16l20 -17h6v-14h4l33 -49h6q35 -39 54 -82l22 -17l10 -26l-6 -11l17 -10q6 -151 32 -200l17 -21l26 -104l-10 -43q0 -26 16 -85q17 -58 17 -103q0 -14 -6 -27l6 -11l-1 -10q-5 -32 -5 -41q0 -13 4 -45q2 -23 2 -35v-11v-5h-12l-15 -43 q2 -29 29 -84q22 -47 25 -55l-11 -17v-39q1 -2 1 -3l1 -3q2 -4 2 -8q30 49 98 267l5 18l-4 118q10 23 37 116q55 187 55 237q0 68 -45 198v18q0 66 33 117l39 17h20l12 10l15 -4l-4 -23l16 -10l4 -43l23 -33l-7 -38q-36 -44 -36 -103l4 -10h12l-6 -70l16 -32v-66h-6v-47 q0 -8 6 -49l6 -11l17 17q4 -59 26 -92l-6 -13l17 -90l-7 -16l29 -49q-1 -9 -1 -13q0 -25 11 -57q-12 -45 -12 -87q0 -14 2 -32l21 -6q0 -66 38 -194q1 8 9 48q12 68 22 95q6 15 6 18l33 369l10 -6l-6 65l33 60l16 10q13 106 56 162q36 51 115 94q12 7 30 14h33q53 0 112 -43 q15 -53 43 -75zM264 1020h1v0h-1z"/>
<glyph glyph-name="X" horiz-adv-x="1667" unicode="X" d="M1569 221l-6 -6q1 -16 1 -24q0 -46 -18 -78l-14 -4v-23l-16 -4l-8 -15q-22 -45 -39 -59q-24 -18 -81 -29q-9 -2 -20 -2q-29 14 -69 14q-3 0 -21 -1l-125 47l16 6l-32 10l-11 13v10l-26 10l-23 39l-20 10l-13 96l-26 17q-4 49 -37 90v33l-16 16l4 43l-31 33v10l-16 43v12 l-23 11l-33 69l-43 13q-31 -16 -53 -60v-16q-26 -14 -51 -41q-30 -34 -31 -55l-47 -33q-8 -23 -33 -53q-26 -33 -33 -50h-10l-22 -26l-11 4l-10 -43l-71 -86q-27 -64 -33 -129q17 -65 33 -92l-17 -11q-84 43 -112 107l-11 96q7 55 60 131l32 10l11 29l10 4q3 19 92 97 q13 11 25 22q16 14 25 22q87 76 89 97l17 12l-4 4h10l22 23l-6 10l27 22l16 43l23 -12l14 88h12v31q-27 31 -38 102l-27 37l-4 56l-12 16l26 14q0 21 -20 56h-17l-10 16h-16q-53 152 -152 236l-39 17v12l-80 47l11 7l-11 11h-26l-6 16l-60 16q-55 -27 -96 -32l-49 -65 l-54 -33l-6 -39q10 -79 33 -117q57 -55 122 -55q8 0 13 1l31 17q-2 11 -2 16q0 32 25 91l-7 27l-30 16l-33 -38l-6 -43l-17 -10l-20 21l10 87l60 43l65 -29q25 -24 59 -86l-6 -26l11 -10l-11 -33l11 -43q-15 -8 -20 -10q-70 -35 -77 -49h-39q-14 0 -26 6l-10 -16l-17 10 l-22 -16q-67 77 -113 96q-51 103 -53 146l10 43h-6v27l16 10l6 33q23 21 43 60q87 66 225 66q77 0 195 -39q39 -13 66 -27l92 -93q17 -9 43 -33l6 7q13 -74 78 -178l-17 -6v-16l27 -59l33 -21l10 -16l-10 -6v-43l20 -21v21q13 -17 17 -37l6 -6l16 -54h41l17 21l16 55 q17 30 47 47l16 29v20q14 25 63 62q51 40 69 73v7q36 28 72 107q27 58 46 80h15l-11 24l17 30l-6 29l6 4l22 -16v16l60 -87l16 -92l-12 -17l-37 -16h-10q-50 -107 -119 -144l-6 -17l-39 -43l-4 -16q-44 -29 -66 -76l-10 6l-16 -10l-7 16l-20 -22l-10 -37q-93 -82 -90 -115 l37 -96l-17 -6l-33 6l13 -27l-13 -12l88 -80q-1 -49 54 -108q11 -47 20 -129l33 -21l31 -98q17 -9 32 -55l23 -21v-22l10 -11l17 -43l16 7l10 -17l60 -6l36 10q35 20 60 66l-4 -23l26 17l21 49h-21l-16 -27l23 66l4 -29q19 37 32 49v43q-35 17 -75 103l-21 -21l-29 -12 l-4 28l-12 5l-27 -33l-36 6l-27 -10l-12 -17l12 -16v-23l20 -10v-43l33 -6q40 27 53 59h13v17q16 -12 30 -43l-30 -27l-13 -33h-59q-28 7 -54 15l-5 2l-47 86l16 59l47 66l49 33l27 4l59 32v-16l10 6l29 -10l27 -27l16 -6l17 -33l20 -10l-4 21l14 -4q5 -14 17 -60v-5l2 -28 q4 -66 4 -69v-11v-8v-4z"/>
<glyph glyph-name="Y" horiz-adv-x="1440" unicode="Y" d="M1292 948v135l-10 27q1 17 1 26q0 64 -34 126l6 26h-38v-10l-21 -16q-3 -34 -22 -76l6 -10l-13 -39l-4 6q-17 -41 -18 -101q-1 -40 -4 -54q-1 -9 -18 -53q-3 -7 -19 -52q0 -53 10 -74l23 -16v-13l-39 -47l10 -71l16 -17l17 -4l-4 -135q0 -14 4 -33q26 53 43 119l28 26 q20 18 26 119q6 106 6 110q0 8 -1 25l29 27zM1335 905l-10 -16l6 -21q-39 -78 -39 -108q0 -12 3 -43q0 -5 2 -29l1 -14l-32 -115h-17q-32 -44 -32 -76l6 -20q-33 -23 -66 -86q9 -41 11 -49q10 -44 12 -51q4 -17 5 -28q1 -26 11 -89q9 -16 21 -43q16 -92 16 -176 q0 -19 -5 -36q-6 -18 -6 -29q0 -3 1 -7h-6q-11 -32 -11 -49h-6v-53q1 -4 1 -5q3 -18 5 -18q0 -60 -26 -139h-17v-13l-10 7l-12 -43l-37 -50l-17 -10l-10 -16l-28 -10l-31 -39l-66 -27v-16h-10l-16 -21l-60 -16v16q-30 -29 -129 -29l-75 33q-21 24 -56 43q-61 106 -86 119 l-16 55q0 82 43 162l43 43v21l28 32l31 7l6 10q59 43 163 43h9q12 -5 23 -5q4 0 10 1l6 -33l21 -23l16 -53l23 -16l20 -60q-14 -35 -26 -43l-5 -16h-12q-1 -13 -37 -76l-22 -10l-10 -16l-66 6l-43 37l-27 49q9 43 33 63v13l27 10h16v-6h10l7 -11q-10 -13 -23 -16v-59l16 -11 v-22l13 12l20 -22q36 70 36 140q0 18 -3 32l-10 -4l-6 16l-33 10l-4 -10l-17 10h-92l-22 -10v-6h-11l-43 -17l-26 -65v-74l59 -158l47 -53l56 -12l14 14l98 19l9 7l38 28l50 37l18 14l10 22h10l11 33l12 -6q22 36 40 101q29 110 29 199q0 50 -10 116l27 -21v21l-27 38v31 q16 51 21 60l-4 75l-23 -10l-6 -10l-21 53l-16 -26l6 -23l-28 -43l-27 -10l-4 -21l4 -6l-59 -27l-5 -6l-22 -16l-6 -10l-31 -23v-16l-55 -10q-44 17 -76 17q-5 0 -16 -1v6h-17q-42 38 -86 59q-43 63 -53 103v27l-43 53q-3 25 -6 58v1q0 17 10 72l-10 20v17h10q-1 26 -1 40 q0 26 30 289v17l10 16v-12l16 16l4 66l23 43l-16 26v27l32 -4l-6 63l-16 29v64l16 39l-16 53l-10 10l-21 -16l-16 16q4 12 4 25q0 15 -4 47l-17 16l17 14l-99 76l-118 23l-50 -11l-4 -12h-39q-36 -32 -43 -53v-10h-4v-39l-12 -17l6 -10q-12 -42 -23 -84l-3 -12 q0 -80 16 -109l-6 -32q12 -53 39 -103l30 -26l29 4l14 32l50 27l16 39v16h-6q0 38 12 50l4 96l-30 69l-13 -4l-10 17q-9 -18 -27 -33l-6 -16h-16l6 -17l-6 -10q-4 -33 -4 -43q0 -9 4 -33l22 -16l11 -33h16l6 -23l-22 -20l-27 16l-27 43v17l-12 20l6 13l-16 4l6 22l-6 43h16 l6 37l-6 6l10 17l13 6l20 30h6l11 17l43 16h16l27 -16v-17l22 -16q38 -68 38 -135q0 -9 -1 -27l-4 -10l10 -20l-10 -46l-33 -14l4 -29l-26 -20l-4 -16l-13 -7l6 -16q-15 -39 -65 -76l-17 6v-16l-10 -10h-49l-10 10l-10 -4l-17 14h-16l-17 13l-4 20l-12 6q-17 47 -43 152 l-10 16l-17 86l7 21l-7 55q5 24 28 75q27 56 42 64v17l27 32l16 -6q18 23 34 34q29 19 95 32q60 11 125 11q19 0 33 -1l22 -16l-6 -17l60 -31v-6q79 -29 104 -71l26 -37q37 -54 41 -59q35 -61 35 -102q0 -13 -2 -21l33 -72q-19 -44 -22 -96l12 -23q-14 -27 -14 -71 q0 -13 2 -25l12 -10l-16 -29v-21l-7 -6l-10 -37l-10 -10h-6l-27 -39l10 -6l-16 -90h-10v27l-23 -27l6 -39l17 6l6 -16h-6l-17 -66h11q1 -7 1 -15q0 -16 -5 -38l4 -16l-17 -23l-10 -4l-6 -22l16 -11q-2 -27 -2 -44q0 -55 15 -101l-7 -10v-17l-10 -6l10 -27l43 -32l54 -11 l59 21v6q36 16 59 49h7l10 -12l39 16q24 29 37 60l12 6v37l63 65v189l-10 6l-10 20l-17 -20q0 24 8 56l3 11q10 40 10 41q1 0 1 9t4 36q1 6 7 62l-22 16q4 59 26 146l-16 75q26 89 26 149q0 14 -4 26q17 75 64 165h29l16 29l27 21q23 11 36 11q2 0 7 -1l10 -21l10 6h29 l26 -22q14 -37 33 -109l15 -10q12 -40 12 -60q0 -34 -13 -114q-10 -68 -10 -123z"/>
<glyph glyph-name="Z" horiz-adv-x="1249" unicode="Z" d="M1147 221q-2 -54 -27 -139q-26 -23 -33 -49q-26 -17 -43 -43q-17 -5 -59 -33l-27 16h-69l-43 -26l-66 4q-52 19 -139 72l-33 -7l-22 17h-47l-33 20h-33q-34 -6 -39 -10q-54 34 -129 39l-26 -6l-7 -17h-26l6 -22l-10 -14l-43 -27l-43 -6l-27 10l-43 55l-10 47l71 125 l11 -6l32 29l17 47l-6 12h-6l-7 31l70 86h10q28 37 189 272q20 27 45 68l16 6l17 23l10 -7l6 37q14 13 27 66l47 49l12 4l43 55l57 33l-6 70q52 34 55 53q-13 6 -26 6q-22 0 -92 -10l4 14h-27q-28 -8 -33 -10q-36 11 -117 65q-71 47 -130 50l-27 20l-10 -6l-56 23 q-16 -8 -32 -8q-4 0 -11 1l-10 -10h-26q-18 -4 -39 -37l-4 -22h-7q-3 -21 -20 -43q7 -41 43 -70l70 37l16 23l-10 16q-11 -3 -56 -33h-16l-4 27l37 69l65 23l27 -6v-21l16 -6l17 -22v-11l-6 -10l10 -39l-10 -47l-37 -39l-56 -16l-36 12l-39 -16l-43 4q-9 31 -38 71t-32 48 l43 161l33 39l65 33l60 -39q196 -21 333 -96l17 -27l16 -6l4 -10q58 0 88 16v11q33 -3 76 -7q37 0 99 21q61 22 90 22l10 13q18 -8 74 -82l-11 -47l-32 -43l-21 16h-16l4 -55l-17 -10l-20 -45l-27 -23v-6l-37 -10q-31 -43 -84 -107l-38 -12q-49 -71 -121 -197v-10l-49 -27 l-5 -28l-43 -23l-10 -33l-22 -4q-34 -92 -60 -108v-21q-63 -60 -96 -125l4 -32h-10v-11l-10 -6q1 -8 1 -15q0 -24 -7 -44l16 -27l-23 -33q116 11 170 11h21q39 -33 92 -47l10 26q76 -23 117 -23q6 0 18 1l5 -21q100 -39 145 -39h2l10 6l-6 17l16 20h33l10 -14l50 53l36 119 l-86 86l-49 16l-30 -10l10 -12l-43 -21v-6l-43 -20l-6 -56l10 -16l141 23l-10 -33l-92 -53l-43 4l-39 59v23h-4l4 96q43 85 131 98l102 -16l17 -17l26 -6q11 -32 51 -85q43 -59 56 -87z"/>
<glyph glyph-name="bracketleft" horiz-adv-x="922" unicode="[" d="M791 -100l-13 -29l-16 -12q-29 -7 -78 -7q-20 0 -43 1l-10 -5l-144 5v-13h-88q-29 10 -65 23l-4 43h22l13 37l-13 94q18 23 43 375l-37 39v139l-6 735q0 3 -6 20t-6 21q-2 34 -4.5 70t-18.5 67h23l-6 13h18l6 16q14 -2 178 -8q119 -4 160 -31l-4 -37q-37 12 -51 12h-129 l16 -71l15 -17v-24l-15 6v-12h-16l-12 -17l18 -33l-37 -40l31 -119l-12 -60l37 -57l-13 -61q14 -35 14 -62q0 -7 -1 -14l-13 -6l13 -84l-19 -4v-15h-12l-35 -82q11 -46 25 -196l32 -13l-4 -36l19 -15l-6 -55q0 -12 3 -38t3 -38q0 -31 -15.5 -117t-15.5 -129q14 -55 31 -120 q47 -2 94 -3q73 -3 88 -16l18 4l19 -4z"/>
<glyph glyph-name="backslash" horiz-adv-x="1001" unicode="\" d="M1001 -66l-12 -22l-28 -14l-23 -31l-39 -10l-61 88l-2 12q-22 29 -40 85q-28 84 -45 100q-11 13 -75 96q-38 50 -50 76q-5 11 -10 28q-18 57 -27 69q-6 9 -40 72q-8 14 -11 23q-12 29 -42 74l-35 16q-50 70 -79 129v25l-54 103h18q-25 64 -59 89l-13 -12q-11 51 -72 144 q-44 69 -52 106l-58 53q-21 80 -65 147l-27 4q31 101 96 146l25 -41v-10l20 -11q20 -45 64 -137q15 -19 41 -65q5 -19 25 -92l5 -17q21 -20 42 -65q20 -42 27 -50q79 -84 99 -107h17q78 -158 76 -251q23 -33 30 -43q88 -123 100 -177q1 -3 1 -9l24 -19q3 -18 26 -51 q24 -32 25 -53l33 -15q104 -143 107 -247q88 -81 118 -136z"/>
<glyph glyph-name="bracketright" horiz-adv-x="922" unicode="]" d="M571 1362l-18 -29l-10 -61l-29 -41v-53l10 -23l-10 -8l21 -47l-21 -29l-8 -43l-19 -22l13 -84l-13 -48l-10 -12l-6 -31q2 -20 27 -97q17 -52 17 -79q0 -7 -1 -12h-8q6 -13 29 -291q0 -18 -5 -47h-12l-22 -61l10 -29l18 -12v-60q0 -14 -7 -80q-2 -22 -2 -40q0 -22 3 -39 l-18 -37v-47l-70 -4l-31 -19q-8 1 -16 1q-25 0 -49 -7l-19 10l-22 -16l-19 6l-6 10l-10 -4l-84 10l19 9l-19 4l43 6l29 18q61 13 86 13h8v24q0 20 -10 76l22 -25v72l19 -23v29q-2 4 -3.5 9t-2.5 10l16 18l-4 29l-6 6l16 41l-10 84l-6 -6l-6 34h-13l13 37q-2 60 -7 178 q-1 23 -6 66q-5 14 -12 41v160l31 82l53 49l-47 -6l-6 12l6 6q-6 43 -6 47v215l16 -8v12l19 6l-7 37l7 11l-7 30l-22 13l-6 -35l-13 207h-43l-10 6h-59l-25 18q11 1 64 10q41 7 63 7h101q36 -11 81 -23l35 -49q-1 -11 -1 -22q0 -32 7 -60z"/>
<glyph glyph-name="asciicircum" horiz-adv-x="924" unicode="^" d="M823 342l-26 -33l-4 17l-9 16h-18q-49 51 -119 201h-12l-6 18h-25q-4 9 -22 37v35l-7 -10l-10 18l-20 6l-34 90v25l-24 43l-24 -49q-28 -18 -103 -158l-18 8q-40 -31 -61 -45l-11 -43l11 -6q-90 -59 -129 -170l-39 -33v8h-13l13 33v25q19 25 36 87q20 73 33 91 q28 30 60 70q7 19 28 59q27 28 72 94l23 10q21 23 59 80v35l88 98q11 -18 13 -47q5 -33 17 -54l22 -40q52 -94 75 -186l16 10v-25l15 9l18 -50h14q15 -17 30 -65q17 -49 25 -63q28 -47 66 -146z"/>
<glyph glyph-name="underscore" horiz-adv-x="1024" unicode="_" d="M475 -354q-9 -13 -21 -23l-14 6v-12h-22l-11 12l-18 -6l-27 11l-20 -11l-25 11l-12 -5l-2 5l-21 -5l-12 5l-10 10q-35 -24 -70 -27l-35 27l-65 -47l-14 16l-19 -10q-18 11 -32 11q-2 0 -9 -1l-22 59l59 31l6 6q36 -7 61 -9h1q13 0 142 16q49 -2 65 -2q33 0 60 10 q26 8 39 8q17 0 47 -6q28 -6 44 -6l6 6q56 -10 65 -10l28 4l17 -5l21 12l48 -3l24 9q4 2 43 -1q3 -1 22 -1q34 0 61 10q26 8 38 8q18 0 47 -6q34 -7 54 -7q4 0 13 1l29 -21l-6 -70l-8 11l-10 -6h-19l-47 22q-3 -16 -25 -32l-14 5v-11h-22l-11 11l-18 -5l-27 10l-20 -10 l-25 10l-12 -5l-2 5l-21 -5l-12 5l-10 10q-35 -24 -70 -26l-35 26l-65 -47l-14 16l-19 -10q-19 11 -32 11q-3 0 -9 -1z"/>
<glyph glyph-name="grave" horiz-adv-x="702" unicode="`" d="M514 963l-4 -15l-35 10q-22 24 -57 58q-32 20 -88 67q-18 29 -54 78q-34 27 -92 80l6 19l15 8l-6 20l20 21h66l55 -25q19 -30 18 -49l-8 -4l8 -17l31 -22l8 -31q26 -16 45 -41l-6 -30q36 -19 60 -54v-24l10 -23v-12z"/>
<glyph glyph-name="a" d="M930 272l-10 -36q-93 -114 -144 -144l-6 -16h-39l-14 -6l-29 6l-4 10h-16q-63 104 -93 188l-49 -59l-43 -20l-10 -23l-27 -4l-6 -12l-20 -11l-23 -49l-43 -14v-45l-43 6l-86 82q-21 44 -28 119l22 96q-22 -31 -76 -53v-13h-16v-10l-10 -4l-6 -22l-21 -11h-12 q-47 -13 -60 -28l-71 -11l-8 33q106 42 280 168q31 22 77.5 81t74.5 81q18 8 53 27l96 68q58 40 105 56l10 -6l10 6l39 -59l4 -22l-20 -60l-11 6l-6 -6l-26 -4l-7 -12h-20l-6 -10h-17l-10 10h-16l10 -27l-43 -16q-26 -20 -33 -37h-16l-16 -33q-34 -33 -48 -39l-6 -10v-10 l-43 -103l-16 -10v-12q-46 -72 -43 -107l10 -6q91 40 141 80v12q47 30 64 70q22 7 46 52q18 34 36 67q-1 7 -1 14q0 28 17 72l10 -10l11 6l12 -13l4 -10h12l5 -10h10q22 -58 22 -125v-76q0 -10 -4 -29q-5 -23 -6 -30v-64q7 -25 10 -28l49 16l5 12l65 47h2q35 27 90 86l8 5z " unicode="a"/>
<glyph glyph-name="b" horiz-adv-x="807" unicode="b" d="M565 1393l-10 6l-6 20l6 13l-16 10l-11 43h-16l-16 -17l-17 17l-65 -33v-4l-37 -33q-8 -83 -23 -102l6 -60l-10 -28l4 -11q-19 -36 -47 -112l-12 -10v-23q-12 -37 -43 -102v-11l-16 -38v-27l-11 -10l6 -7q-28 -100 -28 -145v-102q0 -28 9 -78q12 -69 13 -80q15 35 49 98 h5l28 64l-6 12q22 28 37 86l33 37q1 12 33.5 75t41.5 72q10 35 27 107q4 45 19 133q3 12 21 43q15 27 15 45h4v23q21 32 33 129zM684 432q-10 -12 -10 -151l-10 -11v-26q-16 -10 -39 -66l-11 -6l4 -27l-14 -32v-11l-16 -16v-10h-6l-7 -17h-10l-6 -26q-35 -36 -113 -66h-26 l-6 6l-33 4q-98 66 -107 66l-6 23l-75 90q-6 34 -45 110q-35 68 -35 113v356q0 20 8 57q11 46 12 56q1 25 6 70l70 292q11 23 27 54q14 39 28 79q17 46 43 72q6 47 47 96q17 17 33 34q22 22 39 22q6 0 43 -12.5t59 -10.5l27 -33l20 -4l39 -32l-6 -7l6 -20h-10q15 -18 15 -49 q0 -8 -1 -17q-7 -53 -15 -106q-6 -46 -6 -79q0 -14 1 -26q-62 -121 -92 -264l-49 -65l-4 -33l-23 -14l-10 -29l-17 -16l-26 -86l-6 -5l-21 -65q-10 -5 -33 -43v-23l-10 -4v-16l-12 -10l-4 -39l-12 6q-7 -41 -43 -82q38 -89 38 -129l-12 6l-4 -12l16 -53l21 -11 q21 -64 49 -108q22 -14 66 -53l30 -7l39 11l33 32q11 36 15 46q12 28 28 40l4 17l-4 33q7 5 33 36l4 33l-10 -4l-17 14q6 166 6 168q0 7 -12 93l-20 10l-11 12l-12 -6l-4 6l-6 -6h-17l-10 -10l-16 -6l-17 -43l-16 -17l6 -6q-11 -20 -11 -53q0 -11 1 -23l-12 -26l-11 -11 l17 -10l16 4v-20l-6 -6l10 -5l6 -55l-16 27l-10 -4l-49 26q-13 13 -27 70q2 75 86 201l55 37q56 6 60 6q12 0 43 -11l16 -12h10v-16h11q59 -81 59 -139h-10z"/>
<glyph glyph-name="c" horiz-adv-x="834" unicode="c" d="M844 219l-10 -16l-27 -15v-20l-27 -6l-6 -10q-61 -29 -92 -89l-53 -26v-10h-6l-11 -21l-47 -20q-17 0 -52 -1t-52 -1h2q0 2 -94 16l-11 6v-6l-49 10l-106 92q-6 12 -17 27q-10 7 -26 23q-38 45 -66 151q-6 18 -13 35q-7 21 -3 35l-6 16q14 73 14 133q0 20 -2 39h4l49 92 h6q115 147 291 215l70 6l33 -20l6 -16l49 -23q44 -39 53 -80v-12l10 -21v-49l11 -10v-12q0 -47 -21 -86l-16 -10l6 -7q-14 -10 -33 -43l-16 -10l-11 -22l-32 -15l-6 4l-21 -26h-16q-13 0 -43 10l-23 23q-6 79 -33 108l7 27q-11 30 -11 47q0 16 4 45l23 31l16 6l27 -11l6 -22 l-29 -59l7 -54q17 -47 49 -69l20 30l12 7q18 33 48 102l-5 16l-16 6q1 12 1 25q0 37 -7 72l-10 10v29l-17 14l-22 6v6l-43 4q-99 -16 -146 -112l7 -23l-56 -96h-4l-6 -23h-6q-2 -24 -21 -79h7l-23 -17q0 -38 10 -108l-10 -27q1 -15 15 -84q13 -64 12 -72q18 -18 32 -65 l60 -37v-12l112 -33q47 17 78 17q8 0 15 -1l6 6v7l32 26l27 4l33 23l4 10l27 6l6 21l59 16l27 23h4l59 49h2l17 -6z"/>
<glyph glyph-name="d" horiz-adv-x="825" unicode="d" d="M494 393l-17 29l-26 20l-13 99l-20 -13h-60q-32 -41 -86 -90l4 -16l-10 -16h-16l-49 -44q-19 -50 -37 -102v-92q8 -30 16 -55l60 -64q29 23 65 33l27 31l4 16l39 16l20 33l23 10l6 27l-6 6q44 52 69 92l-20 54zM715 1069l-27 66v26l10 -6q18 45 18 74q0 7 -1 12l-23 49 l13 27v72q-2 37 -39 129h-4l-13 32l-26 4l-11 -26l4 -27l-10 -39l6 -14q-2 -20 -22 -55l6 -4l-16 -89l-23 -30l-4 -23l-16 -10v-43l-7 -12v-97v1q2 0 23 -125l-16 -21h-11q-6 -40 -6 -65v-11l17 -16l16 20l4 -47l-4 -12l10 -4l-16 -27l10 -12v-16l-4 -5l10 -6l6 -20l-32 10 l-7 -22l27 -48q6 -79 6 -81q0 -7 -6 -50q8 -15 23 -96l10 6l12 64l10 -4q2 23 13 52q19 47 20 50q6 26 17 76q30 134 30 188q0 27 -4 54l21 26q7 46 7 94q0 15 -1 31zM866 -119l-92 37l-10 -4q-105 61 -244 313q-10 -10 -62 -87q-43 -64 -63 -70l-4 -11l-26 -16v-16l-23 -4 l-6 -13l-37 -4q-13 -13 -27 -16l-6 10l-37 6l-39 31q-5 18 -63 84q-45 52 -45 149q0 117 39 179l16 16l10 33l17 14q4 17 37 55l82 43q39 79 129 103v59q0 55 -17 162q13 28 14 67q2 66 3 68q23 194 55 244v20q33 70 86 211q53 33 76 70l43 -10v6q38 -32 63 -82 q0 -29 11 -69q16 -53 18 -66h16v-4l-22 -60l16 -55q-16 -115 -16 -135q0 -120 10 -135q-8 -12 -27 -31v-33q0 -2 7 -33l-13 -10q-3 -52 -6 -69q-4 -21 -20 -62q1 -8 1 -18q0 -25 -15 -67q-23 -64 -23 -65q-5 -23 -17 -71l-49 -172l10 -66l-14 6l-12 -43q29 -36 33 -82 q26 -18 43 -79q28 -22 58 -70q26 -41 77 -72q19 -37 59 -63z"/>
<glyph glyph-name="e" horiz-adv-x="793" unicode="e" d="M608 594l-12 22q-41 37 -92 37h-43q-70 0 -103 -22l-10 -10l10 -5l-47 -65l-6 -23l-16 7v-23l-10 -14v-17q13 1 27 1q42 0 91 -13q33 2 98 25q72 26 80 47l5 10l16 10zM817 258l-16 -10v-6q-13 -13 -17 -21l-22 -16v-6l-23 -19q-49 -8 -110 -45l-27 17l16 -23h-22 l-37 -33h-39l-20 -10h-5q-16 0 -61 -4l-16 10l-17 -6q-24 12 -45 12q-15 0 -30 -6q-22 2 -70 43v10l-33 27h-4l-12 16l-14 7l-7 10l-16 10q-7 17 -23 29v10l-14 16v49l-16 15l-13 -4q-3 37 -26 63l-4 33l10 39l20 4l-10 6v27h-10l-6 16l-27 17l17 49l32 4l33 -43q9 27 47 76 t60 55l12 -6l14 20v12q92 39 131 39q6 0 11 -2l16 6h43l16 -10l17 4l49 -10q40 -23 69 -59v-33l33 -53l-16 -27v-12l-6 -17v-16h10l-16 -43l-15 -10h-12q-16 -7 -27 -21h-16l-10 -16q-40 -6 -65 -6h-11v6q-43 5 -81 5q-16 0 -32 -1l-12 -10h-20l-7 -6l-16 16h-33v-27 q12 -55 17 -69l-17 -6l29 -43v-27l31 -10l28 -33l17 -6l4 -17l39 -10q40 6 64 6h11l5 11l6 -11l16 4l33 -4l37 21l10 -4l12 10l27 4v12l63 -6v10l31 7q36 21 45 36q12 8 33 25l10 -8v-33z"/>
<glyph glyph-name="f" horiz-adv-x="840" unicode="f" d="M1034 1323l-26 -16q-12 -42 -12 -74q0 -10 1 -19l-36 -36l-7 -27l-10 4l-59 -49l-13 6v-16l-16 -11l-37 -6q-124 59 -151 109l-11 59q14 59 50 129l36 39l66 17l37 -33q16 -33 16 -99q-5 -21 -10 -30l4 -17l-14 -12h-23l-10 12v47l10 17v26q0 3 -3 15t-3 14 q-36 0 -70 -22q-13 -34 -20 -86l10 -39l-6 -21l39 -49l59 -10q67 47 97 139l6 -14h10l23 96l-13 23l-16 -7q6 74 6 76q0 4 -6 60l-31 32q-35 22 -95 22q-12 0 -24 -1v6l-22 10l-6 -20l-17 -6l-10 6l-10 -29l-10 12l-13 -32l-4 10l-16 -6l-6 -15h10q-31 -49 -60 -131 q-3 -18 -10 -53q-2 -8 -10 -24.5t-10 -24.5q-1 -17 -6 -49q-16 -39 -33 -119q6 -14 10 -47l12 -6q4 -17 4 -27q0 -35 -13 -95q-15 -69 -17 -93v-19q0 -42 -6 -112l-11 -17l11 -4l6 -22l-13 -21q20 -16 50 -16q15 0 32 4l4 -15l148 5l59 26l-6 12l33 21l10 16l-20 23l-29 -29 l-16 33l6 27l22 -5l21 11q18 -22 49 -37l-6 -55l-27 -21v-12l-26 -21l-27 -6l-12 -10v-16h-11l-10 -21l-129 -16v16l-16 14v7h-72l-20 -37l6 -56q-8 -40 -13 -53l7 -26q-12 -24 -27 -103l-16 -22l4 -17l-11 -16l7 -33l26 -4l6 -16v-43l-16 -23q-13 -62 -33 -96l6 -17l-6 -32 l6 -11l-39 -125l-10 7q-7 -29 -7 -72q0 -17 1 -37h-4l-29 -76l-16 6l-10 -49l6 -16v-33l10 -20q-8 -107 -27 -136l-16 -10l6 -6l-12 -10l-16 -33l-15 -6l-6 -16l-39 -27l-10 -21q-51 -34 -146 -65h-10l-16 -10q-31 10 -43 10q-4 0 -115 -6l-26 28l-50 21l-69 65 q-19 35 -29 83q-7 41 -14 83q17 104 39 152l26 16l4 17l13 6v10l26 23h11q21 18 59 26q31 -14 55 -14q8 0 15 2l38 -14l11 -17l49 -22l43 -49l-6 -44l12 -10v-22l10 -15l-10 -16l4 -16l-4 -13l4 -4v-22q-20 -41 -20 -60l-33 -32l-39 -5l-4 5h-27l-28 -21l-43 10l-43 56 q-1 6 -6 31q-5 22 -5 32q0 2 6 70l15 22l16 6l6 -28l-10 -43q17 -32 33 -90l10 14l21 -27l16 23l27 16l22 37l6 33q-8 33 -28 53l-5 -10v70l-22 22l-27 -6l-37 27h-55q-8 -25 -43 -60q-12 -31 -12 -68q0 -16 2 -34l-6 -11l12 -20q-1 -4 -1 -10q0 -32 28 -115l69 -92l27 -16 l70 -5l12 11h16l4 10l13 -6q28 9 59 6v-6q15 9 27 28l32 17l-6 20l37 17l29 49l10 4l21 59l12 13l-6 10l10 6l6 -23h6q4 15 4 43q0 3 -2 9t-2 8l-16 10l-17 -16l-6 22q17 82 17 129q0 19 -3 54.5t-3 54.5q0 38 24.5 108t24.5 107q0 15 -11 72l17 59l4 -6l12 33l-6 16l6 4 l10 -10l11 6l32 59l-10 4h-26q11 103 11 154q0 12 -1 21q26 44 26 75l-10 47l-12 -4v43h-21v17l-22 4l-16 12l-5 -16q-2 0 -11 2t-11 2l-113 -4l-32 -17h-11v-6l-16 -4q-20 -25 -23 -39h-16l-4 -49l10 -16l-6 -11l16 -26h13l16 -6l-6 -27h-17l-10 -10l-6 6l-10 -6l-60 33 l-16 36l16 23l17 70q67 65 122 88q49 21 148 30v6l74 5q-4 57 -4 86l20 81l13 -16l10 16l-6 27q12 44 18 110q4 56 8 111q13 34 33 103q3 42 33 135v16q10 13 22 56q24 14 45 65q25 64 46 91q41 53 118 81l13 -29l32 13h21l10 16l23 4q49 -12 69 -33l10 -16l46 -31l-7 -6 l17 -16l4 -21l39 -55z"/>
<glyph glyph-name="g" horiz-adv-x="737" unicode="g" d="M748 -389l-17 -17v-8q0 -57 -37 -131v-26l-69 -88l-13 6v16q-21 -46 -86 -86l-26 16v-22l-37 -16l4 -5l-43 -16l-10 4v6l6 6l-17 5q-28 -33 -65 -50q-28 1 -82 7q-5 0 -15.5 4.5t-15.5 5.5q-31 3 -61 6q-37 5 -58 22h-32l4 15q-57 12 -113 71l-16 48q6 36 6 38 q0 17 -3 48.5t-3 48.5q0 18 28 84q26 61 37 78q38 54 113 104q36 12 70 20h118q57 -18 109 -69q17 -21 28 -63q14 -52 21 -66v-45q0 -18 -65 -123l-11 4v-10q-2 0 -14 -3t-14 -3q-4 0 -54 6l-14 -11l-72 17l-4 10l-22 16l-17 -10l-53 27l-22 26q-5 33 -5 54q0 16 5 49 q25 56 59 65v17l12 16q29 -9 60 -6l26 -22l11 -21l-17 -10l-33 -6l-32 -86l22 -56l43 -30l70 30l22 45h11l22 21l33 -6l10 16l-22 33l-27 10l-10 60q-34 28 -43 49l20 16l-4 10l-29 17l-26 -4v-7q-56 -6 -60 -6q-6 0 -43 6q-35 -9 -78.5 -49.5t-56.5 -74.5l-16 -11 q0 -6 1 -19.5t1 -19.5q0 -2 -6 -39l8 -24l-14 -6l6 -17h-17q21 -30 21 -53l-21 6l-10 -22l21 -17h16l16 -10l6 -16l31 -21l6 -39h27l16 11l54 -27h65l27 10l6 -20l16 -6l17 22l16 -6v10q25 -4 37 -4q10 0 22 4v17l37 -17l33 23v10l10 -4l56 47l4 22l14 7l-4 14q55 46 76 158 h12l4 6l17 -23v70h-11l-6 -10l-10 10h-23q-11 44 -11 69q0 7 1 13l-33 37l13 22h-23l10 17q-29 29 -53 32l-6 15q-20 19 -37 22l-6 -10l-37 10l-39 -6l-16 6l-4 10l-17 -4l-16 11q-23 -4 -43 6l-10 -6l-82 86v22l-21 21l4 22l23 33l16 4q16 19 47 27l23 28q-22 22 -59 64 q-17 25 -50 76q3 14 3 31q0 51 -29 120q27 191 65 303h4q17 24 43 74h13l10 22l49 7l59 -17l27 -26l-6 -29l6 -10l-16 -11l-23 -55l-10 -10l-10 -27l-23 -10l-4 -16l-29 16l-4 -27l11 -22l-17 -49l-26 -21v-141q0 -11 5 -34.5t5 -35.5q0 -10 -4 -22l-13 -21l29 -69l37 -33 l16 16l21 4l12 -10l37 53v13l22 -6l33 10l21 49l-17 37l17 22l10 6q-2 10 -2 20q0 30 14 60l-16 43q1 7 1 15q0 24 -14 75q-12 45 -10 56l-10 16l-43 33v39h21q21 0 49 -17l22 5l17 -11l-7 11l80 88l-10 4q16 27 16 86l-10 39l-10 -33l-39 -27q-6 17 -6 70q8 30 12 39l-6 14 h66l53 -26q56 -61 59 -119l-16 -4l-10 -23l-27 -20l-22 -45l-33 -15q-15 -19 -47 -49l-23 -6l-20 -27h10v-6l16 -10l-16 -6l10 -31l-10 -43l16 -29l4 -53h-4l10 -22l-6 -37l17 -33l-4 -33l-66 -123l-10 11l-12 -27l-15 -10h-28l-5 -17h-6v-12l-20 -10l10 -17l-39 -41 l-86 -22l-20 -29v-20h-6l-11 -43l4 -13l-4 -10l70 -26q27 3 51 3q66 0 111 -26l16 -14q36 -7 70 -33l6 4l26 -16l76 -97l11 11l12 -11z"/>
<glyph glyph-name="h" horiz-adv-x="1067" unicode="h" d="M645 1343q-20 55 -20 98v11l-13 16l6 27q-26 53 -26 82l-33 -6q-49 -56 -49 -162h6l-27 -102q-4 -21 -10 -131t-6 -146v-10q-16 -25 -16 -47l-17 -6q-11 -93 -11 -139q0 -11 1 -19q46 63 119 201q2 20 10 59q8 16 21 49q16 77 65 225zM1079 215q-11 -26 -37 -76 q-14 -23 -73 -102l6 -10l-49 -11l-27 -22l-102 29q-76 36 -135 165l16 -4l6 17h21l-33 26l-4 11l10 6l-10 16l-6 4l-7 -4l-4 4l17 17l-6 10l-23 -4q-16 46 -16 92q0 15 2 31q-47 69 -50 125l-75 -142v-26q-41 -31 -82 -127l-60 -148q3 -24 -4 -49l11 -16q-12 -42 -12 -76 q0 -11 1 -21l-16 -22l10 -17h-37l-12 17l-20 10l-11 23l-28 16h-21l-22 20l-4 23l-17 16q-6 20 -6 109q0 2 3 15.5t3 15.5h4q41 123 41 190q0 17 -2 33h10l17 80q-29 -32 -82 -97q-8 -18 -27 -49q-26 -23 -76 -69l-8 -8q-61 -29 -94 -41h-16l-4 34q57 10 96 62h10v12l16 4 l23 27v12q67 51 135 146h4l39 36q14 54 33 158q-1 30 -1 76t1 106q13 60 37 179q0 27 6 81q11 36 33 109q5 50 26 145q19 37 54 109q5 11 27 76.5t22 72.5l37 39l6 17h6v16l16 -12l10 22l21 -10v10h16l17 -43q-1 -8 -1 -16q0 -32 25.5 -82t24.5 -74l20 -32q-4 -37 -4 -56 q0 -4 2.5 -13t1.5 -13q-1 -22 -25 -107.5t-34 -103.5q2 -10 2 -23q0 -56 -29 -133l-16 -10q-47 -121 -76 -152v-59l-14 -27h-12l-17 -59q-20 -8 -47 -39q-6 -12 -6 -27q0 -4 6 -59l-22 -27l-7 -43l-20 -32l-16 -86l-17 16l-10 -33h10q-9 -22 -6 -39l-4 -10l16 -21l11 5 l-11 -113q45 62 105 203q42 103 84 207l37 38l38 5l7 16q18 -19 59 -37q27 -31 74 -115l16 -118h-4l10 -37h-10l-6 -43q21 -64 39 -86l4 -23l-4 -6q3 -18 20 -47l-10 -12v-21h4l-4 -49l43 -37h21q40 24 95 83t79 101z"/>
<glyph glyph-name="i" horiz-adv-x="866" unicode="i" d="M946 250q-4 -13 -67 -109l-13 -4l-2 -12l-18 -21l-27 -12l-26 -43l-27 -16v-10q-48 -18 -92 -18q-11 0 -23 1l-10 4l-16 -4q-38 4 -109 27q-74 66 -92 198h12v17l-16 22l10 11l-10 16h-12q-11 37 -11 145q0 60 -4 93q-1 6 -8 28q-6 18 -4 31l-4 6l-20 -68 q-15 -56 -13 -63l-16 -20l-6 -27l6 -23l-33 -75l-33 -21q-12 -32 -37 -72v-20l-16 -10v-23l-43 -22v-27l-6 -4l6 -33q-30 -23 -43 -72l-27 -22l-6 -33l-31 -26l-22 -50l-10 -4l-43 4l-43 23l-13 27l33 16l6 16q39 16 94 93q51 71 66 120l29 21l-6 6q22 33 26 49h6 q8 25 43 59q6 32 28 75q32 62 36 71q1 13 6 37q10 26 49 114v21q25 25 37 98l-10 43h6l4 37l12 10l10 -4l11 4l43 -16l22 -21l-16 -16l33 -22l16 -70l-16 -37l-13 -12q21 -37 30 -100q7 -53 13 -105q5 -15 13 -47q-2 -17 4 -45h-4q6 -46 6 -79t-6 -54q28 -49 75 -109v-10h-6 l10 -23l33 -6q63 6 172 92q25 20 80 103zM543 1026q0 -19 -11 -76l-20 -26l-88 -6l-27 32q0 83 33 142l76 -7l20 -16l6 -27l7 5q0 -3 2 -11t2 -10z"/>
<glyph glyph-name="j" horiz-adv-x="584" unicode="j" d="M455 778l-6 -12l-11 -4l11 -33l-11 -129h11q-5 -20 -5 -33q0 -10 5 -26l-5 -13l-12 13q-9 -17 -8.5 -48.5t-5.5 -43.5l10 -17l-6 -49l6 -27l-22 -26l6 -60q-33 -65 -33 -102q0 -13 3 -41t3 -41l-6 -129l-6 -6l6 -10l-10 -17v-37l-17 -28v-54l-10 -20v-17q0 -29 2 -75.5 t2 -74.5v-17l-4 -7l-39 -161q0 -23 -10 -70q-13 -20 -33 -65q-66 -53 -108 -113h-21l-10 -10l-23 -6l-10 -11h-43l-117 35q-4 3 -14 10q-30 12 -80 41h-6v6q-24 18 -76 48l-10 12l-16 4q-13 12 -21 16l-12 17q-10 71 -10 53q0 16 5 51t5 51q22 51 44 101q36 76 54 90 q84 65 173 65q13 0 26 -2q42 -19 71 -26l31 -27q42 -126 42 -157q0 -13 -3 -21l4 -23l-10 -20v-10h-10v-13l-17 -4l-16 -26v-29l-21 -21h-32l-115 50l-10 14l6 55l-16 53q25 63 63 93l23 -27l-27 -66l4 -4v-65l6 -10h6l4 -17l17 -12l26 12l13 21q-6 55 -6 59q0 9 5 29.5 t5 29.5q0 48 -27 109l-33 10q-18 -7 -36 -4l-60 -28q-2 -25 -33 -80l6 -11h-12l6 -22l-10 -10l4 -43q-12 -27 -12 -50q0 -9 2 -16l16 -20v-29l23 -31l-12 -45l22 -37l27 -6l39 -43l63 -26l82 10l43 33l4 32l33 37l16 66l23 6v26l20 -6l13 6q-23 27 -23 54q27 85 33 157 l-6 17h32l-10 47l4 16h13l4 27l-21 22q-16 121 -16 146q0 34 43 184h6l4 -10l16 10l-20 53v23l10 10q-6 43 -6 49q0 46 14 127q16 94 19 127v13q0 28 6 73v5q0 34 -12 92q-21 -26 -21 -43h-6l-10 -27l-10 -6v-17q-20 -25 -64.5 -119.5t-52.5 -125.5q-44 -48 -143 -127 l-17 34q23 19 46 57q35 58 38 62q19 19 51 58l39 75q14 19 37 56q76 147 109 284h20v6l66 -10zM487 1075l-16 -16v-6h-10l-17 -49l-49 12l-16 37v26q-13 23 -17 49h7l16 17l53 6l11 -29l32 -20z"/>
<glyph glyph-name="k" horiz-adv-x="893" unicode="k" d="M621 1300l-7 89l-10 4v55l10 27q-12 31 -10 47l-22 32l-43 7v-11l-17 -12l6 -10l-6 -6l6 -27h-10l-6 -10v-23l-10 -4l-17 -33l-10 -6l-16 -43h-6l-17 -37h13q-17 -32 -17 -69h-29l-14 -76q0 -20 10 -92h-16l-6 -27l-17 -16l-10 -86l6 -17v-174l-16 -10q7 -21 4 -43 l-10 -6v-33l-10 -20v-54q0 -2 4 -10q1 -3 12 -88l-6 -10v-10l43 53v6q63 71 123 239q41 129 82 257q-4 32 -4 53q0 4 4 12q0 24 6 70q1 3 17 48q13 34 9 48zM944 221q-34 -55 -125 -125q-71 -37 -130 -37h-9l-98 37h-11l-20 17v-17l-33 17l-22 28l-37 11l-10 16v10l-33 10 v39l47 -6q7 27 33 49l22 11l4 16l17 10q2 17 28 43q3 22 15 49l22 23v47l-16 12l-10 -12l-17 -4l-6 -23l-16 -4l6 -28l-23 -4l-26 -33l-21 -6v-11l-12 -6v-16l-14 -4v-11h-13l-4 -6l17 -26l-33 -13l-17 -20l-10 6q-12 -21 -29 -65l-10 -11q-17 -54 -33 -108 q-19 -60 -20 -113l-39 -12l-53 55q1 20 1 41q0 61 -7 121q11 19 6 59l-27 -39l-12 -4l-14 -22l-17 -10v-11l-6 -6h-10q-20 -45 -76 -76l-23 54l17 6v10q52 34 135 135v6l27 27q3 50 16 145l10 7l-4 16l21 47l-11 29l-16 16v59q0 12 4 40q3 25 2 40l21 27l-21 12l4 15 q-14 20 -14 59l10 29l4 -7l17 7l6 36l-6 11l-4 43h-13q18 212 56 303h4v22h6v13q0 58 33 106v10l16 7q43 49 92 133l17 16l10 23h16l21 32l22 11l17 16h20v20l6 7l17 -7l4 -26l88 -103v-27q0 -30 1 -70q3 -71 3 -97q0 -13 -7 -48q-6 -31 -3 -48l-7 -7l7 -4q-4 -23 -17 -39 v-32l-10 -4q-9 -55 -33 -119l10 -12q-2 -30 -16 -86l-10 -11l-6 -53l-21 -39l6 -10q-15 -35 -49 -103q-15 -18 -39 -65l-16 -16l-4 -17l-17 -16l-16 -47l-82 -88l-4 -37l-16 -17v-86q16 14 28 37q17 34 21 39q21 27 63 80l17 6l16 17q26 3 43 20h23l32 29h47l39 -39 q14 -64 17 -119l-6 -21l-17 -16l-10 -43l-16 -6l-7 -10l7 -6l-7 -11h-16l-4 -16l-12 -10v-6l-31 -23v-10q37 -21 113 -53l32 -33l43 -17l17 7l4 20l16 6l12 -6q39 28 78 57q51 40 68 66l10 -21v-10z"/>
<glyph glyph-name="l" horiz-adv-x="778" unicode="l" d="M565 1452q0 10 -4 23l-6 4v12l-20 20v17h-7l-22 69l-4 -16l-6 23l-17 16l-4 -10l-12 10l-4 -16l-13 -11l-4 -22l-16 -4q-16 -96 -39 -119v-12l-43 -80v-6q-19 -16 -36 -63.5t-17 -76.5q0 -12 4 -44q3 -28 2 -44l14 -20l-26 16l6 -49l26 -37q10 -27 7 -45l4 -4l-4 -6 l10 -16l6 -80h-12l-4 -33l-7 20l-20 -20q12 -41 12 -90q0 -22 -2 -45l10 -27l-10 -22q5 -24 5 -46q0 -9 -1 -18l39 -65q22 32 34 81q10 43 19 86l7 -6l6 39l-6 10l6 27l26 10v8q0 33 21 68q0 31 -4 39l37 86h-7v10l-10 17l6 26l4 -4v10l23 17q9 37 23 112q-1 12 -1 28t1 38 q6 17 14 53q-1 14 -1 36t1 50q1 12 9 38q7 23 7 38zM840 244q-25 -31 -54 -60l-20 -8l-35 -43q-49 -10 -86 -41q-55 -6 -57 -6q-61 0 -131 49v6q-13 21 -29 31v16l-4 7l-6 -11v27l-10 -6l-31 55l-21 10v4l-22 29h-6v21l-17 10q-21 -14 -30 -47v-13l-13 -10l-4 -26l-33 -43 h-6l-4 -23l-71 -102l-5 -17l-55 -63l-4 -17l-23 -16l-4 -12v6l-22 -12l-10 -15l-33 -12q-30 7 -61 7q-12 0 -25 -1l-10 27q82 24 208 164h7q4 10 20 26l6 21h6q26 32 79 134q55 106 57 132l-13 4l-30 82l4 37q-12 10 -64 145l4 12q-10 82 -10 103q0 7 3 21.5t3 21.5v135 l21 -33l16 11l-6 43l-37 38q0 167 33 291q26 99 112 248l11 6v10h16v17q27 18 43 22l6 17l6 -6l31 16l16 -6l7 22h36l29 -39l17 -10l14 -53q18 -6 45 -33l4 -16l23 -17l-7 -20l-10 -12l4 -54l-4 -10l17 -22l-7 -54h-6v-39h-4l-6 -20l10 -27l-10 -16v-55l-16 -31l-4 -59 l-23 -50v-16h-6q-14 -34 -20 -91q-10 -88 -11 -93q-9 -31 -22 -97l-33 -38q-21 -51 -43 -150h-17v-16l-16 -29q6 -40 12 -53l-12 -6q18 -79 59 -166l13 -6q7 -49 30 -58q13 -29 42 -46.5t35.5 -23t31.5 -10.5q16 0 39 7q28 8 37 10q30 30 53 33l12 16l23 8q38 35 61 66 l13 -13z"/>
<glyph glyph-name="m" horiz-adv-x="1307" unicode="m" d="M1307 211l-27 -16l-66 -11l-59 17v4l-43 6l-27 16q-24 4 -36 11t-23.5 30t-19.5 29l-17 53q4 41 4 66q0 6 -20 108l-12 11l-21 -7v-10l-33 -37v-12l-10 -4q-19 -43 -27 -72l11 -4l-11 -6l-22 -64l-6 -6q-3 -84 -37 -172l-33 4l-4 -4l-33 27l-16 4l-17 109q11 30 11 43 q0 111 -21 168l17 -7v56v-3q-2 0 -17 99l-16 -10l-12 4l-11 -10l-4 -21l-6 4q-8 -33 -22 -53l12 -10l-17 -13l-12 -26l-10 -10q-19 -35 -34 -91q-19 -77 -25 -94h10q-1 -14 -1 -28q0 -35 7 -68l-21 -16l5 -33q-8 -23 -5 -43l-6 -6l6 -17l-6 -10l6 -27h-12v-26 q-12 -16 -16 -39h-10l-11 -21q-25 0 -75 -43l-23 21v12l-10 4v49q0 2 6 33l16 10q-6 43 -6 50q0 77 17 122l-17 88l10 15l7 22q-42 46 -50 109l11 4l-5 39l-26 27q-9 21 -23 65l-10 4q-83 -117 -92 -151q-51 -40 -66 -97q-19 -9 -59 -69h-4l-16 -13v-10h-7l-67 -61l-12 -2 v30l26 33h4q10 24 45 60v6q14 37 57 102.5t56 102.5l16 16v16l27 21l6 12q33 36 93 63q54 24 95 24q9 0 17 -1l4 -6h16l13 -16l-6 -33l10 -31l-4 -22l20 -27v-141q16 57 125 206l-6 11l55 59q17 3 48.5 10t47.5 11l27 -21q18 -43 18 -92q0 -16 -2 -33l11 -26q-4 -74 -4 -109 q0 -23 4 -59q13 42 39 65l10 43h6l47 70l76 43q11 0 76 -37l6 -23l16 -16l17 -96l20 -10l6 -56l33 -63v-13q15 -24 33 -30l10 -17h59q27 8 37 13l17 -2v-27z"/>
<glyph glyph-name="n" horiz-adv-x="1114" unicode="n" d="M1112 209l-16 -14l-27 -11v-10q-25 10 -60 10q-20 0 -36 -4l-33 17l-6 -11l-60 56l-10 41l6 24l-16 23l-49 26l-10 37l-17 6q-67 113 -69 152l4 6l-11 4l-20 -10l4 -6l-37 -37q-9 -23 -33 -168l-16 -21l6 -38l-16 -17v-26l-17 10l7 -17v-16l10 -14l-6 -17l10 -12v-86 l6 -16l-6 -11h-10q1 -5 1 -12q0 -25 -12 -70q-27 24 -86 60q-12 83 -12 164q0 11 8 58t8 66q0 15 -4 21l5 4q-1 17 -1 38q0 63 7 163l-33 70q-31 0 -89.5 -44t-72.5 -79h-6q-74 -70 -107 -148h-12q-29 -26 -90 -108q-42 -32 -71 -32q-5 0 -9 1l-28 -12h-25q16 16 20 22 l25 17q8 17 32 37q31 25 38 32q11 20 34 55q24 25 70 76q17 20 64 86l16 17l6 30l27 33q18 4 40 20q26 19 35 23q14 6 99 29l74 -23l45 -53q3 -35 4 -102l6 -6l26 53l17 6v20l37 33l59 17l43 -5l59 -59q-5 -17 -4 -22h-6v-43l17 -17l10 6l6 11h16q22 -27 60 -60l-23 -51 l27 -29q0 -31 41 -90l41 -22l10 6l16 -13l43 7l27 -17v-14z"/>
<glyph glyph-name="o" horiz-adv-x="801" unicode="o" d="M719 340l-23 -76h-4v-10l-16 -10l-12 -43l-11 -6q-18 -29 -43 -86h-16l-21 -33l-12 -6v-4q-49 -17 -129 -17q-29 7 -37 10l-12 -6h-21l-43 23l-12 -6l-4 12l-16 -6l-11 10h-16l4 6l-10 4q-33 38 -53 45q-69 88 -94 166t-25 195q12 55 16 69l17 7l4 22l33 31h6 q23 94 59 125l27 -6l16 28l27 21v6l80 33l32 -13v6l27 -6l12 -16l27 -14q14 -37 49 -76l-22 -60l-11 5l-16 -5v-12h-16l-27 23l-10 -11l-60 -22l-12 10l-10 -10h-11l-22 -21v-28l-43 -37l-16 -33l-27 -6l-10 -10l-6 -27l6 -33l-13 -26q-4 -41 -4 -66q0 -39 11 -80l16 -22 l10 -37q14 -4 76 -76q53 -13 109 -26q97 0 129 20v12l10 4v7q92 97 92 161q0 57 -27 129q-31 18 -71 18q-8 0 -15 -1l-6 16h-10l-10 -10h-6v-27l-11 4l-39 -10v-6l-26 -4l-21 -29v-69l11 -27l26 -16l6 6l27 -6l10 10h10q23 14 39 16l33 72l16 -6l-12 -66l-20 -33l-6 -30 l-27 -13v-10l-33 -10l-43 4l-10 12l-27 11q-9 16 -33 43l-6 16l-32 33l6 69l-11 7q0 61 17 102l10 4l16 39q14 14 60 20l16 -10q32 13 47 10l13 13l26 10l27 -6l92 -64l6 -12l15 -10q4 -38 22 -103l10 -6l6 -14v-17z"/>
<glyph glyph-name="p" horiz-adv-x="1014" unicode="p" d="M932 406q-6 -18 -6 -125q0 -27 -18.5 -81.5t-35.5 -80.5v-6l-10 6l-12 -33l-70 -53v-6h-10v-17l-65 -4l-87 37l-26 129l43 12q18 -40 37 -98l28 -20h15l-4 4l16 6v10l33 16l20 23l39 102q-1 21 -1 39q0 89 16 140l-5 20l-10 12v15l-28 49q1 6 1 13q0 28 -26 74 q-30 52 -35 70l-16 5l-15 32l-16 -20l-6 14l-10 -10h-23q0 -35 -33 -64h-4l-22 -28l-4 6q-32 -21 -60 -59l-12 -60l-21 -33l5 -69l16 -23q-21 -44 -21 -139q0 -12 3 -43q3 -27 2 -43l12 -12q-1 -17 -9 -56t-8 -57q0 -54 11 -70l-6 -16l12 -16v-23l4 -10q0 -53 -16 -86 q6 -49 6 -53q0 -8 -5.5 -23t-5.5 -22q0 -218 27 -269l-6 -16h16q1 -9 1 -19q0 -22 -5 -47l15 -26v-39l6 -10l16 -11l6 -10h-6v-22l-27 16l-16 -16l-22 10l-21 28h-43l-43 31l-22 -10l-11 10h-49l-6 17q14 2 39 22q17 58 17 75q0 3 -1 5h17q-17 33 -17 76q13 35 27 75h-10 q4 21 4 33q0 39 -4 60l4 10q-6 7 -6 42q0 13 1 29q4 83 5 83v-3q0 18 -5 55t-5 54q0 19 8 59t8 60q0 8 -4.5 25t-5.5 24q-6 53 -6 113q0 32 9 89q12 77 13 89l10 16q-10 138 -10 168q0 21 10 102l-16 -12l-37 -76l-6 7q-8 -27 -43 -74.5t-59 -65.5v-32l-39 -50l-4 6l-33 -16 l-23 4l-4 -20l-12 -11l12 -6l-12 -6l-21 -37q-34 -21 -49 -39l-26 -4l-9 -12l-16 -10q-12 8 -41 16l6 12l23 11q45 64 80 75l49 64q23 8 100 114q71 97 88 134l23 18l4 27l16 4l23 55l-6 47l16 33h6q10 32 10 168q0 14 -6 27l17 6v31l10 6l12 -6q51 36 76 38q4 11 31 37h12 l4 -20q-11 -30 -14 -87q-4 -60 -13 -87q11 -31 11 -47q0 -31 -9 -82q-10 -59 -12 -80l6 -12l-12 -80l16 -6h17l16 26h6l-6 12h10q11 20 56 60q42 18 103 18q22 0 46 -2l39 -22h16l11 -17h16v-16l23 -27v-16l14 -27v-16l12 -16q12 -27 15 -95q3 -64 12 -77z"/>
<glyph glyph-name="q" horiz-adv-x="760" unicode="q" d="M811 -469l-10 -102q-33 -59 -56 -76v-17l-16 -43h-31l-59 -59l-29 -12l-20 12l-53 4l-50 23q-67 79 -98 182l6 55q-10 22 -10 103q0 20 4 53l17 22q4 93 32 140l-6 32l17 39v47q0 13 -5 29l-6 10l11 43h12l10 27l-6 49l6 27l-6 33l-4 4h-12q-33 -30 -43 -70l-48 -20 l-6 -23l-10 -10v-17l-16 -22l-76 -4l-33 10l-10 -6l-23 12l-10 17l-22 4l-54 75q-16 47 -16 125q0 92 43 224l33 100q11 25 96 102q10 14 33 37q41 25 125 88q31 0 112 37l56 -20l36 -39l17 -49l-6 -11h-27l-10 17h-23l-20 -11l-10 -12h-23v-10l-16 -4l-6 -23l-21 -10 l-10 -27l-33 -28l-39 6q-8 -24 -31 -66l-16 13l-29 -33q-17 -51 -14 -59l-39 -43q-5 -29 -16 -44l-21 -6v-10l-6 -6q-1 -11 -12 -78q-5 -32 -5 -56q0 -12 1 -22l-11 -12v-59l17 -43v-27l37 -16h16q26 16 86 88q53 64 76 100h6l4 12l17 4q9 34 22 50l10 53l43 59l-16 13 q12 42 12 62v7l10 23l-10 10l10 43l-6 10l6 76l-16 33q31 -8 37 -6l12 -17h10l23 -16h20q7 -3 20 -10.5t19 -10.5q-1 -53 -12 -157h-4l-6 -21l-23 -10q-4 -15 -4 -98l-16 -11q-3 -25 -17 -69l11 -6l-11 -66l-16 -20l16 -33v-37h-10l-12 -88l-14 -17l4 -4l-11 -55l7 -20 q-19 -53 -19 -119q0 -19 2 -39q-34 -62 -34 -112q0 -9 1 -17l-22 -53q-3 -16 -4 -43l10 -158l53 -86l17 22l32 -6l76 43q36 59 76 135h4l6 11q-4 23 6 43l-43 147l-32 -12l-39 -37q-8 -94 -47 -158v-43q28 36 59 56q1 52 20 135h17l6 -6l10 6v-13l6 -4v-39q0 -30 -16 -63 l4 -6q-13 -12 -37 -39l10 -4l-10 -10v-7l-49 -32h-33l-43 32q-10 72 -10 54q0 19 10 86l17 12l16 59l39 37l43 17q14 19 47 49l39 -6l37 -49l6 -31l33 -49q-2 -8 -2 -17q0 -24 12 -53z"/>
<glyph glyph-name="r" horiz-adv-x="717" unicode="r" d="M748 209q-3 -33 -74 -120q-67 -82 -99 -101q-16 -6 -53 -13q-5 0 -16 1t-17 1q-12 15 -40.5 38.5t-40.5 37.5q-14 119 -17 119v-3q0 9 3 25q3 18 3 27q0 4 -6 60l27 53l-4 28l4 5q-19 16 -19 65q0 17 2 37l23 39h10l8 63q-41 39 -84 72l-4 16l-12 11l-20 -23l-11 -37 l-16 -22l-6 -31l-10 -12v-27q-23 -19 -36 -56q-23 -62 -24 -63q-9 -17 -86 -102l-22 -10v-13l-17 -10v-18l-18 -10l-6 -19l-11 6l-6 -20l-24 -19l-19 -2l-18 13l-2 10l10 10h10l-4 23l21 6q3 27 48 81t68 64l27 49l-16 11q19 40 53 122l29 29l26 90q-5 11 -10 39l10 33 q-76 96 -76 237v11l-10 6l17 37l20 -6l10 32l13 -4l69 4l60 -63l20 -49l-14 -43l14 -86l-10 -13q1 -10 1 -21q0 -33 -11 -75q18 -28 43 -49q32 -11 69 -37l17 27h26q6 0 43 -6l29 -27l-17 -33v-47l-12 -12l-4 12l-39 -55l6 -17l-16 -20l6 -16l-22 -27q1 -8 1 -16 q0 -36 -18 -82l17 -43l-37 -86q7 -96 20 -172l35 -9q51 8 99 59q1 1 73 93l4 22l23 27l2 6l8 10l12 -10l10 -2zM391 169v-1v1z"/>
<glyph glyph-name="s" horiz-adv-x="782" unicode="s" d="M707 205q-17 -28 -17 -96q-19 -24 -53 -72q-31 -19 -92 -60l-82 -14q-50 6 -152 43l-30 -6l-50 37l-22 55v60q0 70 16 92l-10 4l6 16q17 12 43 55q22 35 70 54l6 10h4l23 16q71 11 53 11q14 0 39 -4q20 -23 53 -72q-1 -21 -1 -40q0 -47 7 -79q-8 -24 -6 -31l-16 -12 l-11 -27l-43 -20l-12 -23l-20 17l-43 10l-33 33l-23 53v33l29 12q12 -30 27 -39l-7 -26l7 -11l16 -6l4 10h23q20 28 20 119q-9 45 -14 60l-33 6l-39 -17l-4 -16l-43 -21v-16l-23 -12l-10 -31l4 -33l23 -12v-20l-10 -11l4 -16l-4 -27l-7 -6l11 -16l-4 -17l16 -32v-11 q37 -33 80 -36l16 10q10 -5 37 -10q29 0 82 4l49 32q47 83 47 136q0 35 -10 194q-27 21 -37 76l-12 10q-1 12 -25 106q-19 71 -19 93q0 4 1 6q-27 40 -27 92l6 27l-26 32q-26 -25 -29 -43l-14 -16l-13 -37h-16l-4 -16l-16 -6q-16 -40 -43 -92v-21l-13 -12l-4 -21l-10 -10 l-16 -39q-10 -12 -29 -16q-22 -29 -31 -60l-12 -10l-16 -39l-15 -10l-6 -16v-17l-16 -4l-23 -49l-14 -6l-4 -23q-35 -34 -138 -71l11 41q21 21 49 36h-6q16 18 43 56l22 16q33 38 33 70q46 37 96 155h6v23h17l4 37l29 33l4 26q25 25 71 105h4q9 28 23 43l4 26l16 27 q0 32 23 65v21l16 22l-6 54l6 10v33l11 10l22 -4l10 4q50 -37 76 -37l37 -43q27 -73 27 -98q0 -10 -4 -31l-17 -12l4 -37l13 -17q-4 -30 -17 -59l4 -16l-10 -6q-9 -22 0 -54l-10 -32l10 -21l33 -22v-50q19 -27 22 -53l-16 -26l4 -54l12 -12q14 -49 27 -59q3 -24 17 -67 q11 -32 11 -67q0 -13 -1 -28z"/>
<glyph glyph-name="t" horiz-adv-x="768" unicode="t" d="M788 205q-28 -50 -87 -103q-64 -58 -113 -69l-10 -10q-32 14 -82 14l-7 16l-59 43l-4 17h-6q-12 38 -29 155q-15 100 -37 148l-20 -33v-10l-17 -6l-26 -27q-1 -18 -11.5 -51t-11.5 -51q-21 -25 -24 -58l-45 -61l-23 -10l-4 -33q-25 -19 -55 -70l-37 -22l-12 -25l-29 -8 l-16 -35l-82 -51l-60 -12l-22 4l-19 -4l-8 10l6 10q34 18 76 55l49 17v4l31 20v21l33 10l16 41q15 9 31.5 34t27.5 34v16q16 6 54 63v13q2 12 26 37v10l27 33l6 22h6q34 55 79 155q51 111 62 165q5 42 25 133h-20l-7 6l-26 -10l-33 4l-16 -21q-23 -1 -43 -1q-39 0 -64 5 l-12 -26h-37l-33 26l-16 49l-21 17l11 10v6q21 -11 62 -11q14 0 30 1l4 -6l16 10l70 6l16 10l43 -10l6 -6l17 6l-6 10l71 -4q3 28 26.5 75t27.5 71q-1 18 0 53q3 78 24 227l10 21l80 -10l29 -17l-29 -37l17 -69l-11 -17l-18 -118l6 -17v-28l-12 -15v-28l-4 -11h-6 q-5 -29 -5 -54q0 -11 1 -22h30l-10 -16l70 -16l-4 28h106l45 -28l-16 -21l-66 -6l-16 -16q-49 -11 -70 -11h-6q-19 -12 -49 -16l-4 -16h-17q-19 -20 -22 -37l6 -6l-6 -21l22 -16q-16 -49 -16 -121l6 -20l-12 -11v-43q-27 -36 -27 -104l-10 -10l16 -103l-6 -10l10 -6 q-1 -9 -1 -18q0 -36 18 -78l26 -33l50 -6q89 41 198 166z"/>
<glyph glyph-name="u" horiz-adv-x="1030" unicode="u" d="M1034 211q-44 -53 -102 -86l-55 -4q-28 17 -58 20q-18 24 -33 27l-14 20l-12 7q-76 67 -107 178v10l-12 23v32l-4 11q-16 -33 -49 -99q-22 -33 -60 -102l-16 -10q-9 -18 -23 -54l-30 -28l-13 -27l-36 -37l-82 4l-17 23l-37 16q-40 50 -49 80l-10 6q-6 33 -27 60 q-8 38 -6 59l-4 6q-21 -18 -55 -65l-37 -27l-6 -10q-47 -32 -100 -47l6 43q36 34 88 73l6 -6l49 72l-10 -6l4 20l6 6h16l21 54l27 22l6 23l-27 -17l33 54v-11q18 41 20 64l-10 22l16 37l11 6v17l6 6v26l37 70h26l17 -22v-15l16 -12l-4 -4l10 -6l-6 -6l23 -31l10 -6l6 -11h4 v-28q-15 -32 -47 -96h-6q-33 -160 -33 -244q0 -79 16 -107v-12l23 -31l43 15q54 62 113 151l10 6v6l29 27l30 70l-4 10l47 125l13 -6q5 32 4 39l22 32l76 -12q9 -26 20 -80l-4 -12q19 -31 19 -70q0 -13 -2 -26l53 -103v-43q9 -26 33 -75l16 -7l10 -10q13 3 39 -10 q60 18 109 72z"/>
<glyph glyph-name="v" horiz-adv-x="856" unicode="v" d="M958 772l-32 6l6 17l-17 10l-12 -10l-4 4v6l-27 -6l-12 -11q-26 -7 -52 -7q-9 0 -17 1l-7 -10l-20 -16l-27 -6q-3 -5 -64 -83q-40 -50 -55 -89v-21l-26 -16l4 -66q-76 -259 -123 -334v-28l4 -4l-20 -82q-18 -8 -39 -33h-21l-6 -10h-10l-12 -7h-11l-4 -10l4 -16h-26v-10 h-17v22q0 2 3.5 15.5t3.5 15.5l-7 22h-10l-6 17l6 86q-34 63 -34 111q0 7 1 14q-15 15 -20 57q-3 31 -6 61q-6 15 -17 44q-52 173 -69 270l-66 74l-26 6l-11 -6l-6 -11l-10 -4l-12 4l-4 -4h-13q-16 -10 -30 -33l-23 5v-11l-16 -16q-5 16 -5 23q0 2 1 4l4 6h10l-10 16l16 10 v11q8 18 55 37q42 18 64 18q45 0 119 -17q37 -22 69 -75v-11l23 -32v-27l16 -22l-6 -11l16 -26v-49q17 -22 17 -76l33 -49l-7 -27l7 -27l-7 -6q-3 -40 -4 -119l27 -63q31 58 37 106l-4 29q9 21 11.5 58.5t8.5 54.5l17 22q2 29 16 60h6l4 20l27 6v17h12q2 18 10 53l-16 16 l22 27v22l27 37h16v-10l21 4l43 72l-12 18l28 25l23 4l43 29v-7l16 11q4 -1 8 -1q26 0 89 23q50 -3 108 -26l6 -13h-16l20 -16q7 -17 7 -29q0 -4 -1 -8z"/>
<glyph glyph-name="w" horiz-adv-x="1350" unicode="w" d="M1360 475q-71 -43 -172 -43q-9 0 -29 4q-23 6 -31 6l-10 -16q4 -25 4 -37q0 -157 -43 -233h-4l4 -11q-67 -56 -86 -92q-35 -16 -108 -16l-86 29l-60 53q-6 28 -42 70q-40 49 -50 71l-10 59l-16 -22l-11 -53l-22 -33v-27l-27 -28v-11l-16 -10l-31 -43q-67 -26 -82 -26 l-22 10q-19 25 -60 43q-56 57 -81 137q-13 41 -31 160h-11q0 -17 -21.5 -44.5t-21.5 -37.5l-22 -10v-5q-18 -17 -33 -38h-10v-11l-6 -6h-11q-12 -18 -53 -40t-63 -23v39q19 3 37 20l26 4l4 10l45 29l-6 16l17 21h10l16 27v39l17 10l16 33l10 4l-6 16q20 15 23 29l22 20 q5 57 31 86v33l16 39v20l17 6l16 17q35 7 92 10l21 -27l12 -38l-23 -11l7 -16l-17 -37h-16l-6 -12l12 -4l4 -49h-4l10 -50h-6l12 -16l-6 -10q1 -6 -6 -43l12 -10l-33 -60l-6 -59l23 -56l4 -4l16 -39v-16l23 -27l-6 -16l22 -20l31 10q6 9 33 22l6 11h6l10 26v17l33 49v4l-6 6 l16 27v10l11 12l-5 4l5 6l6 -6q12 50 43 142v43q0 14 -6 26h12l-6 17h10l-4 16l26 16q20 5 47 5q14 0 29 -1l17 -20l-7 -6l7 -10l-13 -37q20 -57 23 -92l-6 -13l16 -31v-49l10 -16l13 -59l10 -11l-6 -26l43 -60l55 -16l59 4l17 12q12 21 27.5 72t15.5 74q0 43 -11 121 q-11 82 -12 120q-28 62 -53 82l-6 21l16 12v4l49 17l37 -5l-4 -6l21 -6v-16q14 -11 22 -31l37 -22l10 -33q55 -13 88 -37q53 -1 150 -16v-17z"/>
<glyph glyph-name="x" horiz-adv-x="788" unicode="x" d="M817 238q-57 -58 -80 -62q-26 -33 -90 -67l-59 -11q-49 14 -114.5 66t-86.5 96h-10v27l-23 10l-10 -16h10l-20 -54l-17 4l-32 -36l-23 -11l-4 -16l10 -16l-10 -11l-6 -16h-4q-25 -61 -72 -88q-4 -22 -33 -60l-10 -4q0 -31 -27 -98v-10l-22 -17v-36l-31 16l4 4l-59 92v23 l-4 4l16 6q8 19 37 43v10l10 17h17v6l32 37l7 22l20 21l10 49l45 26q23 31 54 82l26 17q25 57 54 86q-31 62 -86 188q-8 34 -37 98v17l-23 37l-20 10l-76 6l-27 -10l-6 -12l-10 -5v-12l-23 -4l-10 -22l10 -11l-10 -10l-39 10l-26 27l75 65q50 22 136 37q60 -20 184 -59 l33 -27l-7 -6l27 -14q20 -59 39 -76l-6 -29l16 -26q17 8 103 168l10 6v16h6l16 21v10l43 49l33 -6l4 12q21 -25 39 -33q40 -55 37 -81h-37l-39 -21l-16 -39l-21 -16v-15h-10q-4 -8 -72 -81q-14 -24 -59 -66v-31l6 -22l-22 -33q8 -34 6 -53q18 -61 59 -119v-23l10 -20 q20 -19 50 -27h26q33 15 60 23q27 19 41 39q17 2 41 14l2 12l12 7l2 8l18 18l11 2z"/>
<glyph glyph-name="y" horiz-adv-x="1190" unicode="y" d="M842 -215l-23 123l-4 -17l-29 -26l-14 -33l-16 -4l-33 -109l-6 -6l6 -26q-19 -67 -16 -76h-7q-6 -34 -26 -96h16l-6 -27h6q9 -60 33 -141l27 10h10l12 16l10 6q21 54 21 109v14l12 17l-6 16q7 16 7 43q0 11 -1 23l4 10q5 45 6 135zM1010 584l-13 4l-20 -10 q-30 -61 -33 -109l10 6q12 16 56 109zM1194 231l-12 -18v-6q-35 -26 -37 -37q-69 -58 -207 -100l-16 -43l-21 -4l-10 -23v-8q0 -59 14 -168q9 -29 6 -45l-16 -23l-4 -53l-6 -6l16 -10l-6 -11v-7q0 -31 -17 -143q-19 -123 -26 -147q-4 -14 -43 -102l-27 -16l-16 -23l-49 -26 l-17 6v16l-4 -12l-39 16q-12 37 -36 55q-10 40 -33 80q1 17 1 33q0 49 -7 96l22 49v43q7 9 21 56q3 10 55 119q5 15 16 43q16 20 43 59v16h4l23 47l27 7v6l32 53q-12 61 -16 152h6v20q-64 -43 -82 -76h-10l-49 -30l-37 4l-23 -11h-75l-21 11h-12v12l-27 10q-28 58 -49 129 l6 66l6 10l-6 33l10 -6q0 39 23 69q2 51 10 152q7 21 17 65v76q0 50 -17 70l-26 -11l-11 17l-16 -12l-16 6l-27 -6q-24 -29 -43 -37v-23l-33 -14v-6q-49 -29 -76 -125l-43 -27q-3 -13 -69 -145q-6 -19 -23 -54l-10 5l-6 -11l-10 -6v-10l-29 -53l-45 -37l-8 33q19 25 32 30 l-6 11q22 52 39 75v11l17 16l4 23q37 47 45 79q31 23 69 101q36 72 76 94l10 33q26 22 33 53q63 59 156 59q14 0 58 -9q48 -10 61 -17l22 -21h4q9 -22 23 -33l6 -16h4v-10q0 -21 6 -55q-6 -13 -10 -37h-6v-23l-6 -4l6 -22l-6 -21l-17 4v-43l17 -10v-33q0 -9 -5 -29 q-5 -23 -6 -30l-10 -17h-22l-11 -37h11q-4 -24 -4 -38q0 -2 2 -10.5t2 -10.5q-9 -41 -17 -49l6 -43l23 -39l-16 -20l10 -23l49 -20h20l7 16l20 -6q33 28 92 86q21 32 70 86q5 31 -4 49q2 2 10 27l-6 59q29 57 29 80q0 3 -1 6h5q2 40 25 85q20 39 40 79q65 54 105 54 q4 0 8 -1l22 -10l-10 -12l14 -5v-38l7 -11l-17 -22q-2 -37 -28 -98q-30 -69 -58 -74q-9 -18 -22 -53l-11 -13l7 -4l-11 -6q-50 -121 -49 -135l-6 -10v-23l-10 -20v-33h10v-17l10 -26l-20 -33l10 -10q15 4 119 65q96 57 125 76q12 11 43 29z"/>
<glyph glyph-name="z" horiz-adv-x="786" unicode="z" d="M453 -119l-7 10l7 50h-13l-26 -27v10q-40 -31 -49 -65q-49 -22 -76 -22q-5 0 -10 1l-37 -43h-11l-6 -16l-22 -17l-4 -22l-27 -31l-22 -12q-15 -28 -33 -31q-24 -27 -37 -82q5 -24 5 -47q0 -9 -1 -18l12 -11l80 7q62 28 82 53l4 22l-10 11l27 6l43 47l12 -10l59 37l-6 22 l-10 6q2 15 26 64v6h11q4 57 16 86zM360 307l-108 6l-6 -10l-70 -49h-10l-33 -16l-10 -43l20 -23l50 6l26 -16l33 10l-16 16l22 7l16 16l11 -23l37 23l12 37h4v16l6 17h6zM795 217l-7 -14l-14 -13q-1 -2 -63 -77l-33 -11q-15 -14 -47 -36l-13 -17l-10 -6l-10 6v-16h-10 l20 -86l-16 -13l-17 7q8 -29 7 -33l10 -4q-4 -41 -10 -60h-11l4 -12q-4 -48 -4 -64v-6q-8 -9 -16.5 -37t-5.5 -38l-21 -17l-6 -26h-10l-16 -17l4 -16l-11 6v-16h-10l-10 16l-6 -23l-17 -20q-39 -9 -75 -49h-17l-53 -43l-33 -6l-22 6l12 -23h-27l-32 -16q-68 12 -76 12 q-2 0 -33 -6l-22 10q-7 24 -48 76q13 103 54 141h6l16 33h10l-6 10q109 153 191 172l-6 13q19 19 49 30l10 -10q32 36 59 53l-6 13l60 43q-2 24 -2 42q0 34 8 50l-27 76q-13 -14 -22 -45l-21 -11v-10h-12v-10l-43 -33v4l-64 -14q-35 14 -65 14l-6 17l-21 -4l-22 10l-4 -6 q-17 20 -39 32l-11 23l-26 20l4 7l-10 53h10l12 39q70 75 189 75q-4 0 108 -22l21 49h6l33 21v32l10 17l-23 39l13 20v17h10v10q0 -8 -10 33q-15 60 -19 69q-13 34 -41 60l-82 16l-16 -4l-21 16l-28 -6q-10 -7 -31 -43l-39 -22l-26 -33l-27 -80l27 -39l32 6q55 41 60 82 l-11 16l-12 -16h-4v-12h-33v16l37 33l27 -6l6 -10l6 10l27 -15l16 -28l4 -37q-11 -40 -31 -66h-16q-5 -5 -59 -36l-49 4l-17 22q-42 21 -49 37l-4 33l-12 22v17l-5 10q5 12 5 22q0 11 -5 27l11 27l-11 16l21 21l-10 22l26 6l13 10l10 -6l4 11l23 16q30 12 141 12l35 -8 q119 -28 196 -154l-6 -6l12 -26q0 -72 11 -92l-11 -23l11 -4l-27 -146l-23 -28l-6 -27q23 -28 45 -76l27 -20l-6 -23l26 -49q48 19 104 65q88 72 95 77z"/>
<glyph glyph-name="braceleft" horiz-adv-x="829" unicode="{" d="M826 -78l-18 -51l-66 -16l-17 8q-129 58 -156 74q-65 40 -85 90q-7 20 -10 49q-4 44 -14 67l-47 43l26 41l-76 99q-29 38 -29 97q0 14 3 42q3 29 3 46q0 38 -13 79q1 26 -66 58q-54 25 -74 40q-32 23 -53 56q-5 8 -4 13v1l55 14l16 4q67 15 70 21l47 67l-4 60l-12 28 l-12 -4q1 21 44 64q36 37 41 48q38 59 60 95q16 21 29 68t29 63q3 4 3 11t-7 27q-6 20 -6 28q0 5 3 10q43 38 93 90q20 28 69 37q40 9 58 22l92 -4l22 -32l-67 -29l-64 -14l-8 -48q-39 -38 -75 -71v-21l-19 -61l-6 -4l12 -15l-53 -94l-9 15l-10 -19q1 -59 -28 -100l8 -60 l-43 -32q1 -8 -15 -27q-19 -22 -18 -27l-33 -41q-92 -81 -151 -96l-1 -1h-1q2 -5 34 -9q52 -11 56 -27l82 -18l61 -51l21 -15l6 -37l16 -28v-62h-6q6 -64 6 -102v-10l6 -11q-1 -7 -1 -15q0 -36 31 -93q33 -57 32 -80q7 -13 7 -39q0 -17 -3 -43q-3 -24 -3 -40q0 -35 17 -52 q15 -14 42 -29q32 -17 48 -43l58 -8l30 4h47z"/>
<glyph glyph-name="bar" horiz-adv-x="623" unicode="|" d="M403 913q-8 -166 -59 -254q12 -129 12 -173q0 -70 -14 -91l12 -28q-7 -18 -2 -57t-4 -58l19 -31q6 -60 6 -100q0 -96 -37 -166q35 -121 35 -171v-5l-23 -15l-31 3l-34 -15l-39 10l-8 107l4 12q-2 12 -2 24q0 28 11 82t11 81q0 32 -11 93q-13 70 -16 97v9q0 24 8 58 q12 48 13 62q-2 18 -2 45t2 64q5 36 5 59q0 24 -5 35l-21 31q-5 61 -5 101q0 31 3 48l11 23l6 118l16 -10q4 24 4 44q0 37 -12 63l-16 -4q11 36 11 86q0 19 -2 56.5t-2 56.5q0 45 9 79l-23 74q18 63 18 128q0 17 -1 34l-23 16q81 71 158 78v-47l-6 -9l14 -20 q-6 -50 -14 -150q3 -17 3 -46q0 -14 -1 -31q1 -22 -10 -56q-15 -49 -17 -55q4 -15 4 -37q0 -13 -1 -29q-2 -26 -2 -44q0 -13 1 -21q12 -48 33 -143z"/>
<glyph glyph-name="braceright" horiz-adv-x="829" unicode="}" d="M582 567l-47 -67l4 -60l12 -28l12 4q0 -20 -44 -64q-33 -33 -36 -39q-17 -33 -65 -104q-15 -19 -29 -66q-13 -49 -29 -65q-3 -4 -3 -10q0 -8 5 -23q8 -24 8 -34q0 -5 -3 -9q-41 -38 -93 -90q-20 -28 -70 -37q-42 -10 -57 -22l-92 4l-22 32l67 29l64 14l8 48l3 3 q20 23 72 68v21l19 61l6 4l-12 15l53 94l9 -15l10 19q-1 58 28 100l-8 60l43 32q-1 7 11 22q22 26 22 32l33 41q91 80 151 96l1 1h1q-1 5 -34 9q-2 1 -9 3l-10 2q-35 9 -37 22l-82 18l-61 51l-21 15l-6 37l-16 28v62h6q-7 61 -7 95q0 8 1 17l-6 11q1 5 1 16q0 36 -32 92 t-31 80q-7 13 -7 37q0 20 3 45q3 26 3 41q0 34 -18 51q-13 14 -40 28q-33 18 -49 44l-58 8l-30 -4h-47l18 51l66 16q24 -11 110 -50q118 -52 144 -113q10 -23 13 -57q5 -43 15 -68l47 -43l-26 -41l75 -99q30 -40 30 -95q0 -16 -3 -44q-3 -29 -3 -47q0 -38 13 -78 q-1 -26 66 -57q67 -32 66 -36l8 -5q54 -36 54 -44l-1 -23q0 -3 4 -3l-55 -14q-28 -6 -33 -7q-53 -10 -53 -18z"/>
<glyph glyph-name="asciitilde" horiz-adv-x="924" unicode="~" d="M831 852l-8 -59l-4 -9l-20 -14v-25h-8l-7 -24l9 -14l-23 -11l10 -18l-10 -16l-18 -3l-21 9l6 -33l-24 -17l-6 -24l-15 6l-33 -6l-45 -16l-24 16q-26 1 -88 22l-39 41q-11 -2 -33 13l-24 30l-11 -14q-18 14 -43 14l-26 21q-6 -2 -18 3q-15 7 -19 7l-33 -24v-11l-25 -18 v-10l-28 -9q-18 -27 -35 -118q-6 5 -21 0q-14 -5 -20 -5q-2 0 -4 1l-8 63q10 105 57 152l14 30h33l41 41l70 4l12 -4l33 6q50 -25 73 -25q4 0 7 1q13 -15 67 -45q14 -9 39 -25h14v-18l25 -17l23 -28l6 28l24 -4l6 25l-10 14q66 0 94 15q3 16 31 49l10 32z"/>
<glyph glyph-name="nonbreakingspace" horiz-adv-x="430" unicode=""/>
<glyph glyph-name="exclamdown" horiz-adv-x="508" unicode="" d="M338 82l-21 6q-6 -50 -6 -88l11 -27q-90 19 -123 65q-12 18 -43 50l-17 4l-16 60h10l6 16q-9 24 -10 98v1q0 2 2 8q1 7 2 12l27 22l16 123l-16 43v39l-10 10l-7 27l39 39q-4 46 -26 108q-1 31 26 86l-10 33l10 4q15 43 29 147q9 66 20 107l21 17l10 -17l23 -6l32 -27 l11 -26q-18 -78 -18 -119q0 -8 1 -20h-4l10 -46q-5 -22 -4 -28q3 -24 0 -41t-12 -23q1 -12 9 -60q0 -4 2 -15q2 -13 2 -16q8 -49 8 -58l6 -6l-6 -11l12 -16v-10l-17 -6v-21h-16q-2 -22 -6 -58v-1q0 -23 4 -59q3 -30 2 -41v-14v-5l16 -33l-10 -16h4l11 -86l-15 -49zM328 1260 l-21 -17q-4 -24 -16 -59l-6 4h-27l-27 22h-12l-10 37l10 13h17l12 20l-39 6l-16 10l-5 119l74 -20q17 -22 55 -60q11 -31 11 -49v-26z"/>
<glyph glyph-name="cent" horiz-adv-x="760" unicode="" d="M387 582l-14 10l-1 7q-5 22 -5 26v75l10 11l-4 6l-6 69h-37q-27 -46 -86 -112v-3q0 -14 -2 -29q-2 -12 -2 -19v-64q0 -86 39 -180q19 -29 61 -100l20 -11v25v53q0 82 8 137q6 40 6 71q0 9 -1 28h14zM657 446q-19 -51 -20 -86h-6l-6 -38q-11 -26 -75 -67q-66 -39 -97 -40 l-11 -16v-56q0 -17 9 -61q9 -41 9 -59v-11q-1 -6 -1 -8l-56 16q-5 7 -30 27l4 33l-10 20q1 6 1 11q0 15 -7 52q-5 23 -5 37v9l11 6l-7 10q-68 26 -117 60q-102 72 -114 145l-14 68q-14 65 -14 97q0 83 22 126h6l6 39q25 50 80 119v16h10l13 16l4 -6q52 22 131 23l-3 14 q-10 44 -10 57q0 19 9 63q9 49 9 66q0 7 -1 15l10 -6h16l13 6l37 -10l39 -50h-17l4 -20l-16 -6l-10 -17q2 -19 2 -32q0 -29 -9 -50l-10 -10v-33l99 7l43 -27h10v-23l37 -26v-21l-27 -59l-10 -6l-37 10l-12 16h-17q-24 17 -59 17l-10 -6q7 -53 7 -99q0 -38 -5 -71 q-2 -15 -2 -27q0 -14 3 -51q3 -35 3 -53v-168q-10 -43 -17 -70l4 -16q63 17 115 86q16 97 43 129h37z"/>
<glyph glyph-name="sterling" horiz-adv-x="1098" unicode="" d="M469 201l-66 45l-73 6l-70 2h-13h-14h-6q-11 -3 -28 -8l4 -8l-35 -7l-4 -10l4 -4l-29 -10l-18 -29l8 -88l35 -37q5 -1 53 -30l35 -7q65 16 106 39l4 -2q25 26 35 29v4l45 39zM1063 70l-10 -2l-4 -15q-30 -35 -50 -38h-22l-6 -7v-24h-25l-20 -15q-57 1 -160 61 q-90 54 -139 109l-56 8q-65 -62 -96 -87q-58 -46 -113 -62l-10 -10l-39 -4l-14 14l-8 -10l-25 -4l-14 -9l-29 9l-16 -4l-23 8q-39 44 -73 49l-25 49l-10 8l-15 105l11 32l-4 15l32 35l11 -7l10 21l14 4l33 25h39q14 8 39 24q112 0 137 -14l4 -15l96 -6l6 21l-8 10v53 q0 68 8 78l15 4q-7 35 -7 69q0 10 1 27h-17v-4l-16 -4l-14 -10l-60 -8l-4 -17l-25 5q-29 17 -77 59l24 -6q66 13 121 16l27 15l39 -5l-13 97h-8l-10 -19q-25 -9 -53 -12l-15 12l-28 -6l-170 74q90 8 204 8q70 -13 78 -14l-12 69l35 129q-4 19 -15 45q0 29 25 68v10 q34 54 53 62l4 12l25 12l10 15l174 79q20 -11 76 -23q52 -11 76 -30l29 -59q3 -38 30 -166l-26 -14l-15 -39l-53 -15l-39 -39l-8 11l-21 -11l-10 15h-24l-23 14l-10 17v21h18l6 -28l15 7l28 -7l29 39l6 64l-10 14l4 49q-4 24 -18 39h-15v23l-10 20l-24 4v13l-15 -7l-20 21 q-39 -12 -62 -31q-8 -14 -31 -53q-18 -30 -18 -57l-18 -17q0 -34 2 -41q-2 -8 -2 -11q-7 -26 -7 -35q0 -2 1 -7l-11 -16v-156l45 -14q39 4 85 4q23 0 57 -4t47 -4l10 -7l-20 -14h-19l-4 -10l-45 6l-29 -14h-43q-55 10 -73 14l-5 -10l11 -84q103 -6 135 -27l43 4v-49l-19 6 l-34 -12q-1 0 -2 1q-64 14 -84 19l-45 -8v-14l-11 -17q-1 -6 -1 -15q-3 -59 -3 -71q0 -7 1 -27q1 -37 1 -67q0 -49 -2 -67l21 -4q16 -21 136 -98q143 -91 148 -93l15 10h30l15 74l-10 8v11l-54 -5v39l31 15h33l33 -35l34 -8q27 -57 27 -102q0 -9 -2 -27z"/>
<glyph glyph-name="currency" horiz-adv-x="1016" unicode="" d="M768 596l-27 55q-7 11 -36 115l-91 45v18l-26 5l-8 20l-21 -4l-55 12h-39q-5 -3 -8 -4q-5 0 -11 6q-7 6 -11 6q-2 0 -5 -4l-35 -16l-57 -66l-53 -28l-11 -86l11 -15l-33 -73l49 -109q5 -13 23 -29q29 -25 29 -38q0 -4 -3 -9q14 -13 45 -13q8 -2 15 -13l43 -9q1 5 3 5 q9 0 15 -42l49 23l39 -8q1 2 21 15q14 9 14 14v1v1l20 8l93 31l26 32l10 99zM881 279q-2 3 -70 71q-14 17 -33 37h-2q-30 -11 -89 -74q-6 -7 -25 -25h-39l-48 -12q-20 5 -70 5h-38h-25q-74 23 -129 59q-21 -23 -51 -84q-4 -23 -35 -47q-12 -8 -23 -9q-10 0 -21 -7 q-3 -1 -5 -1q-4 0 -8 5q-5 4 -10 25q-6 28 -6 30q0 18 33 18q3 0 3 5t-3 13q-2 5 -6 16v1q1 2 2 2h1q2 7 16 7q15 0 17 8q11 42 29 71l-62 53l-12 54l-25 47l-29 55v23q7 10 10 13q30 40 30 54q0 4 -2 6l16 68l21 18q11 5 11 9q0 3 -5 5q-1 -1 -4 -1q-7 10 -15 10h-2h-3 q-8 1 -15 8q-15 27 -43 66q-33 26 -33 41q0 17 33 28q25 8 39 13l3 3q9 9 13 9q10 0 18 -34q7 -35 31 -48q27 -18 43 -45q5 -9 7 -9q7 0 69 95v-6l45 24l41 11l4 -15l31 -8l18 -12h25l53 -10l57 -13l33 4q31 -16 74 -69q8 18 35 53q12 5 28 22q1 10 13 31q11 2 28 8 q6 8 23 17q22 -42 22 -57q0 -5 -12 -33q1 -3 1 -6q0 -4 -1 -9q-2 -3 -9 -5q-5 -2 -7 -5q-1 -1 -1 -4v-3q1 -3 1 -9q-13 -11 -25 -35v-4l-2 -10q-8 -2 -20 -10q-1 -1 -4 -8h-1q15 -18 62 -71v-36l-33 -48l49 -34q-14 -83 -41 -129q0 -7 17 -21q8 -11 39 -33q6 -5 13 -13 l13 -13q35 -33 35 -49q0 -62 -18 -62q-5 0 -20 8q-14 8 -20 8q-3 0 -5 -1z"/>
<glyph glyph-name="yen" horiz-adv-x="965" unicode="" d="M895 1161l-21 -20l-36 -11l-4 -20l-17 -16l-14 -63h-17v-23q-29 -63 -104 -177l-8 -36q-30 -37 -39 -78l-29 -29v-16l133 -23l6 6l11 -10v14l10 -10l31 6l30 -37l17 -51l-23 -16h-14l-35 51q-16 -1 -28 -1q-37 0 -76 7v6l-11 -4q-36 -13 -51 -12l-31 -31l15 -35l10 -6 q75 0 180 -26l11 -21l12 -4l-6 -22h-41l-17 10q-44 -6 -82 -25l-36 15l-37 -7l-15 7l-6 -7l-4 -24l16 -4q-4 -65 -16 -105h-6v-20l6 -8l4 -15l-10 -30l10 -21l-10 -6q1 -6 1 -9q0 -10 -5 -22h10q0 -68 4 -78l-4 -6l10 -8l21 -90h-12l-3 6v-20l-16 -6l-33 20l-8 -4l-22 4 l-41 -8l-58 35l17 24q-1 9 -1 11q-5 37 -5 41v1q0 6 6 37q-8 24 -11 41h17q6 11 24 41l-10 41l-10 10l4 23l-14 10v23l10 4q4 16 4 29t-4 24l10 14l-10 11l-4 -11l-12 11l6 73l-6 4q-60 -3 -144 -30l-12 -13h-21l-30 43v21l-11 27l17 6l14 -6l6 8l4 -8q24 1 150 6 q13 0 43 -11l4 29h-14l14 31l-37 16l-51 -6l-57 23h-35q-31 -23 -53 -27l-11 4v33q5 17 11 31h6l20 36l15 -20q93 -10 116 -10q10 0 52 3l10 1q-51 112 -88 167q-16 20 -43 60q-5 12 -19 41q-10 23 -82 113v20l-37 37q-1 9 -14 27v10l-33 10l11 10l12 27q53 32 149 41 l11 -12h26v-25l-12 -10l6 -31l27 -4l14 -12l27 -4l12 -37l-23 -4l-6 -27l6 -10h-22q13 -27 29 -37l-7 -4l41 -10q6 -63 22 -88v-25h7q16 -26 49 -88q3 -26 29 -88l12 -6q49 45 83 120q21 46 50 88q54 78 64 110q51 156 65 200l29 4v16l55 -36z"/>
<glyph glyph-name="brokenbar" horiz-adv-x="623" unicode="" d="M377 594l-62 -115q26 -28 26 -55q0 -15 -9 -29l12 -28q-4 -13 -4 -31q0 -9 2 -26q1 -14 1 -27q0 -18 -5 -31l18 -31q7 -59 7 -100q0 -92 -37 -166q34 -117 34 -170v-6l-22 -15l-27 -55l-39 43l-39 10l-8 107l4 12q-1 10 -1 20q0 30 11 86t11 81q0 28 -15 109 q-12 66 -12 90t8 58q13 54 13 63q0 2 -1 8v16q0 73 3 100q2 21 2 40q0 25 -4 38l-21 31q0 39 90 39q9 0 27 -1zM393 913q-5 -70 -50 -70q-6 0 -15 1l-90 67l16 -10q3 24 3 42q0 37 -11 65l-17 -4q12 37 12 87q0 12 -2 55q-2 44 -2 60q0 38 9 76l-23 74q18 68 18 127 q0 11 -1 35l-23 16q21 21 47 45q25 22 53 25l58 -39l-6 -9l14 -20q-6 -49 -14 -150q3 -17 3 -49q0 -53 -15 -95q-7 -23 -13 -44q5 -17 5 -37q0 -10 -2 -29q-2 -23 -2 -44q0 -16 15 -81q15 -67 19 -83z"/>
<glyph glyph-name="section" horiz-adv-x="1194" unicode="" d="M666 475l-9 103q-14 6 -39 17l-6 3q11 10 11 25q-41 42 -81 66q-64 36 -79 70q-19 36 -71 50q-56 16 -73 49q-8 16 -53 31q-1 -4 -7 -9q-4 -3 -5 -8v-3v-8q0 -8 -2 -23q-9 -7 -25 -25q-13 -30 -13 -78q0 -46 34 -76q33 -27 33 -59h41q1 0 2 1q4 1 5 1q7 1 26 -14 q13 -8 28 -8q41 0 68 -17q11 -15 28 -19q17 -7 29 -18l31 -47l43 -12l34 -25l29 -22q9 17 21 55zM705 383q-7 -12 -33 -29q14 -30 16 -47l6 -31l-24 -28l6 -41l12 -27l4 -30l-8 -31q-25 -33 -33 -94q-37 -24 -170 -115l-82 -14l-39 -25q-9 -1 -14 -1q-35 0 -94 34l-31 -6 l-49 36l-22 56v59q1 72 16 92l-10 4l6 17q14 11 43 55q21 34 69 53l7 11h4l22 16q11 3 16 2l41 8q17 -1 35 -4q20 -20 54 -72q-1 -21 -1 -39q0 -45 7 -79q-6 -21 -6 -31l-17 -12l-10 -27q-44 -27 -76 -27l-43 11l-33 32l-22 54v32l29 13q13 -31 26 -39l-6 -27l6 -10l17 -6 l4 10h22l29 37l4 80l-27 61l-32 6l-39 -16l-4 -16l-43 -21v-16l-23 -13l-10 -30l4 -33l22 -12v-21l-10 -10l4 -16l-4 -27l-6 -6l10 -17l-4 -16l17 -33v-10q37 -33 79 -37l17 10l37 -10q54 20 106 69q45 43 73 103v109l17 39q1 15 -22 39q-23 26 -23 40q0 3 -4 19l-1 5l-1 5 q-4 19 -4 21v30l-29 31l-69 33q-6 15 -25 22q-7 2 -57 8q-18 2 -74 17q-6 7 -35 22q-2 -1 -4 -1q-4 0 -12 4q-3 10 -10 24q-2 2 -8 5q-9 7 -25 20q-5 16 -23 45q-43 44 -43 82q0 23 21 65q2 21 16 66q19 18 30 30q22 28 44 39q-39 23 -39 97q0 106 12 130q11 21 42 52 q29 28 28 43l115 100q81 1 155 8l119 -10l16 -33l31 -6l17 -14v-16l38 -43l17 -99l-23 10l6 -63h-6l-10 -16h-6l-10 -17v-10l-6 -12h-17l-4 -21l-43 -10l-16 -33l-50 4l-16 13h-20q-14 13 -33 20l-17 -4l-6 20l-53 39v60q0 7 6 43l43 53l64 16l16 -10l23 -33l10 -69l-10 -13 l-43 39l-23 48l-27 -15l-6 -88l23 -47h108q39 42 60 86l-6 92l-66 86l-92 4q-23 -5 -94 -19l-15 -3q-6 -20 -43 -66q-2 -3 -8 -3q-13 0 -31 3q-12 2 -19 2q-5 0 -6 -9q-1 -14 -7 -66l-2 -13q-6 -11 -17 -43l-10 -6q20 -3 20 -11q-1 -5 -6 -9q44 -50 44 -64q0 -5 -4 -12 q-3 -5 -3 -9q0 -5 4 -10q14 -6 31 -24q43 0 90 -15q16 -41 39 -51q76 -43 115 -71q39 -15 88 -39q47 -35 59 -54q17 -28 18 -56q2 -26 11 -77q6 -16 6 -61q0 -86 -65 -123z"/>
<glyph glyph-name="dieresis" horiz-adv-x="702" unicode="" d="M264 1067l-16 -43l12 -16l-27 -33l-75 20l-49 66v33l-7 10q12 16 17 39h76q26 0 43 -17l26 -39v-20zM600 1077q-1 -3 -18 -58l-4 -11l-21 -7l-39 17v-6l-63 28l-29 43v27l29 20l4 13l6 4h27q16 0 81 -10l5 -11l22 -16v-33z"/>
<glyph glyph-name="copyright" horiz-adv-x="1460" unicode="" d="M1194 406l4 12q15 141 32 151q9 -2 18 47q0 3 3 14q2 10 2 14q11 51 23 48q16 0 16 7q0 5 -12 22q-15 22 -15 38q0 2 1 7q1 12 -6 41q-5 24 -5 28q-2 0 -12 29q-5 26 -4 39q-4 11 -29 12q-21 2 -25 11v59q-26 15 -42 25q-16 28 -15 51v1l-4 19q-2 12 -16 23 q-54 24 -84 31q-13 12 -18 20q-64 29 -88 29q-5 0 -35 3q-13 2 -18 2q-12 0 -21 -7l-33 20q-28 17 -55 17q-14 0 -33 -8q-12 -5 -27 -5h-16q-4 0 -23 7q-28 12 -44 12q-8 0 -25 -13h-1q-15 0 -65 -27l-14 -8q-52 -27 -54 -27q-8 0 -20 10q-16 13 -19 13q-6 0 -14 -20 q-15 -35 -24 -41l-1 -1q-4 -4 -13 -18l-4 -4l-3 -5q-11 -16 -27 -16q-24 0 -38 7q-44 -63 -66 -80q-13 -23 -17 -29l-1 -3q-9 -12 -9 -43q0 -14 2 -20q9 -38 9 -39l-2 -34q0 -17 -16 -28q-12 -8 -15 -15q0 -31 4 -49q-14 -35 -14 -88q0 -60 41 -92v-76h8v-112q14 -31 18 -50 q23 -19 39 -24q11 -11 24 -36q10 -18 48 -54l6 -6h1q15 0 78 -20q64 -19 77 -19q12 -7 31 -7q18 0 38 3q19 2 28 2q19 0 53 -17q21 -10 31 -10q15 0 25 19q7 12 14 12q2 0 10 -1h10h7q4 -1 20 -1h3q13 0 33 -9t27 -9q3 0 6 1q12 5 45 5q4 0 12 -1q45 8 65 15q9 2 59 42 q1 0 14 11q10 7 13 10q46 37 58 37q19 25 22 47q13 8 14 31q0 23 38 24zM1022 885l-9 -4l1 -27v-23l-8 -26q-11 -27 -11 -29l-6 -2v-12l-35 -23q-47 -31 -89 -31q-4 0 -13 1l-51 20q-25 47 -31 74l8 49q0 1 1 2l6 10q2 3 3 5q2 4 6 10q0 1 1 2l14 12l55 10l4 -6l11 2 q20 -14 26 -31l2 4l4 -10l21 -10l-14 -29h-23l-8 2l4 13l-4 14l-19 -4l-16 4q-16 -4 -27 -14h-6l-16 -25l4 -6l6 -37l21 -18q12 -8 34 -8q48 0 64 18l18 20h6v11l7 4l12 32v29q-26 64 -45 82v6h-6l-4 29l-15 16q-16 6 -31 10l-4 9h-8l-10 10h-59l-21 -10l-14 8l-13 -8 q-5 1 -8 1q-20 0 -80 -22l-6 2l-10 -10h-12v-6q-24 -24 -35 -29q-25 -44 -25 -88l-6 -4v-18l-10 -17v-12q-16 -41 -43 -51q0 -29 -2 -33q-3 -17 -3 -30q0 -6 2 -14q2 -7 2 -21q0 -13 -2 -34q-1 -11 -1 -20q0 -26 8 -43v-8l6 -2q2 -6 2 -12t-2 -15q-4 -22 -4 -25v-1v-2l6 -7 l4 -26l9 -17l16 -10l6 -18l18 -19l3 -16l6 -4l16 -23q21 -2 37 -19q5 -5 29 -34l13 -3l37 -8q31 -6 38 -7l4 10l20 6l25 -6l-2 -12q9 0 30 10q22 10 31 10l2 9h15l3 4q10 12 15 30l23 6l4 10l12 11q1 1 2 3t8 9q6 11 6 35l6 6h11l6 37l-12 33l-11 6h-12l-29 22l-10 4l4 7 q-17 -2 -86 -21l4 -4q-24 -25 -28 -33l-2 -12v-29l16 -12h25l16 6l6 33l8 10h17l4 -33h-6l-5 -28l-16 -11q-3 -13 -22 -26h-17q-5 1 -6 2q-20 5 -22 8l-19 27l-14 49l14 55l12 6q10 24 58 51l63 9l56 -25v-4q4 -1 18 -12q15 -12 18 -11l11 -8v-6l10 -18l-10 -6l6 -7v-34 q1 -30 -39 -93l-6 -2v-6l-39 -41h-4v-10l-17 -7l-35 -13l-34 -14l-17 -7h-16l-4 -2h-41q-15 5 -23 6l-20 -4l-6 8q-25 -4 -31 -4h-4h-2q-29 18 -47 17l-6 6q-54 20 -72 32l-10 21q-25 7 -79 76q-8 10 -15 15q-13 8 -15 11q-47 42 -47 76h-2l-8 33l4 18q-2 44 -2 56l-10 34 l-7 2l7 76l18 41l-2 10l8 31l33 25q23 61 35 71l24 7q21 32 39 55q45 33 74 49q11 3 33 8q32 14 51 25h10q22 24 76 24q21 0 61 -10q18 -18 47 -18l21 -21q13 -1 25 -12v-10l16 -9l20 -6v-26l13 -11h10l12 -12q7 -40 31 -53v-8zM1364 662q-9 -9 -19 -76l-3 -19 q-2 -15 -3 -19q-8 -59 -14 -71q-1 -26 -25 -76q-41 -84 -87 -127q-29 -27 -48 -41q-15 -23 -65 -67q-68 -39 -137 -74q-6 -2 -9 -2q-30 -1 -30 -6q-15 1 -35 16q-7 2 -28 2q-94 0 -139 -33q-24 -18 -46 -18q-43 0 -94 29q-2 1 -2 6v1v1q0 4 -2 4q-18 0 -39 -12t-31 -12 q-15 0 -107 43q-25 12 -34 16q-46 8 -107 23h-2q-13 0 -25 4q-2 1 -3 9q-2 8 -7 11q-23 26 -50 97q-9 25 -13 34q-4 37 -10 53q-2 6 -24 23t-22 31q0 10 23 43q-18 9 -49 41l-41 69q13 43 22 70v88q11 10 28 26l11 136v24q2 38 40 75q33 34 45 58q32 65 47 82q18 23 38 37 q61 64 63 64q14 8 61 11q49 4 59 10q12 9 26 27q16 19 25 23l104 -4q13 6 34 6q9 0 28 -1q7 -1 15 -1q17 0 28 4l84 21q53 -35 97 -35q18 0 35 3q16 3 39 3q37 0 52 -25q17 -29 46 -32q25 -5 71 -16q23 -23 63 -48q31 -8 40 -31q11 -32 17 -48q19 -14 50 -72q3 -8 17 -32 q19 -31 19 -48q0 -6 -5 -24q-5 -16 -5 -24v-3q0 -18 -7 -27q-7 -11 -7 -25q0 -23 37 -57q22 -19 22 -30q0 -4 -3 -16q-9 -40 -9 -52v-20z"/>
<glyph glyph-name="ordfeminine" d="M795 1028l-9 -31q-77 -92 -114 -114l-4 -13h-31l-12 -4l-23 4l-4 9h-12q-47 74 -74 151l-39 -49l-35 -16l-8 -17l-22 -4l-5 -10l-16 -8l-18 -39l-35 -13v-34l-33 4l-70 65q-19 44 -22 97l18 75q-3 14 -3 22q0 49 124 148q12 5 43 21q50 39 160 100l8 -6l8 6l31 -47l4 -18 l-16 -47l-8 4l-7 -4l-20 -5l-4 -10h-17l-6 -8h-12l-8 8h-15l9 -20l-33 -15q-22 -11 -27 -28h-14l-12 -27q-26 -25 -37 -31l-6 -8v-8l-35 -82l-12 -8v-10q-37 -55 -35 -84l8 -6q62 24 113 63v10q37 26 51 56q21 8 65 96q-1 34 15 67l8 -8l8 6l8 -10l4 -8h11l2 -8h8 q18 -42 18 -101l-8 -137v-12v-8l1 -5q4 -17 7 -20l39 14l4 11l53 37q26 18 74 69l6 2z" unicode=""/>
<glyph glyph-name="guillemotleft" horiz-adv-x="979" unicode="" d="M616 55h-4l-12 -1h-6q-9 -1 -17 -1q-16 0 -34 8q-20 25 -64 55q-33 23 -47 36q-10 15 -45 59q-51 40 -149 143l-54 27l-10 57l-20 25l30 20l29 6l10 23v10q31 19 112 114l24 28l22 26q71 86 94 96q9 26 29 37l6 -16l18 6l7 -14l-25 -43h-6l-8 -35l-31 -31l-8 -24h-6 l-15 -19l-10 -47l-14 -12v-8l-15 -7q-2 -41 -25 -77q-26 -42 -28 -52v-28l14 -15l-6 -22l27 -21l14 -4l4 -18l-4 -8v-13q15 -12 87 -71l16 -13l4 -30q14 -19 14 -33l88 -107h8zM825 59l-4 -12h-26l-39 31l-8 26q-71 47 -140 150q-74 33 -157 156q-4 3 -5 16l-10 14l21 6 l-6 33l59 109q23 6 84 101q42 67 51 77l-4 8l29 6l39 37h14l18 -22v-15h-2v-16q-28 -19 -52 -92q-25 -76 -52 -99l-8 -47l-19 -20l-6 -47l-10 4l4 -10l35 -13l-4 -8l-17 6l-8 -12l19 -4l10 -16l18 -11l-14 -22l31 -54h14l14 13q8 -20 8 -51l31 -27q4 -44 23 -82l-2 -12 l18 -13q8 -12 43 -53q4 -17 10 -35z"/>
<glyph glyph-name="logicalnot" horiz-adv-x="954" unicode="" d="M772 569l-18 -34v-6q0 -16 -14 -44t-15 -49q-6 -69 -6 -182l14 -10q-16 -71 -63 -71q-6 0 -13 1l-59 31l-6 26q26 92 26 131q0 9 -2 15l-16 -4q29 62 43 202h1v1q-8 8 -36 8q-37 0 -65 -12q-18 -8 -28 -13q-25 -12 -35 -12l-89 10l-41 27l-102 -27l-15 16l-22 -10 q-24 11 -39 11q-3 0 -10 -1q-7 2 -25 17q-3 5 -3 9q0 13 11 34l74 31l8 6q72 -13 98 -13h3l40 -6l12 -1q34 -6 62 -6q9 0 19 1q39 9 77 17q5 1 21 3l35 5q34 -6 68 -8q0 2 1 3v1q2 1 3 4l116 -8q31 -2 31 -23q0 -25 -41 -70z"/>
<glyph glyph-name="sfthyphen" horiz-adv-x="913" unicode="" d="M801 565l-6 -69l-11 10l-12 -6h-20l-56 22q-6 -19 -30 -33l-17 7v-13h-26l-13 13l-20 -7l-33 11l-22 -11l-31 11l-12 -4l-5 4l-22 -4l-16 4l-11 10q-43 -24 -82 -27l-43 27l-75 -47l-17 16l-22 -10q-22 11 -39 11q-2 0 -10 -1l-25 60l70 30l6 6q64 -10 79 -10q3 0 161 19 q56 -3 75 -3q44 0 81 11q21 6 38 6q18 0 65 -8q28 -5 52 -5q8 0 16 1z"/>
<glyph glyph-name="registered" horiz-adv-x="1460" unicode="" d="M1194 406l4 12q15 179 30 188q9 1 19 33l3 10q1 4 2 10q12 35 24 33q16 0 16 7q0 5 -12 22q-15 22 -15 38q0 2 1 7q1 12 -6 41q-5 23 -5 28q-2 0 -12 29q-5 26 -4 39q-4 11 -29 12q-21 2 -25 11v59q-27 15 -42 25q-15 28 -15 51v1l-4 19q-2 12 -16 23q-55 24 -84 31 q-12 11 -18 20q-15 7 -76 34l-15 7q-56 0 -71 -14l-33 20q-51 31 -66 31q-11 0 -22 -13q-11 -14 -27 -14h-16q-4 0 -23 7q-28 12 -44 12q-7 0 -25 -13h-1q-15 0 -65 -27l-14 -8q-52 -27 -54 -27q-8 0 -20 10q-16 13 -19 13q-6 0 -14 -20q-15 -35 -24 -41l-1 -1 q-4 -4 -13 -18l-4 -4l-3 -5q-11 -16 -27 -16q-22 0 -38 7q-44 -63 -66 -80q-13 -23 -17 -30l-1 -2q-9 -12 -9 -43q0 -14 2 -20q9 -38 9 -39l-2 -34q0 -16 -30 -35q-33 -22 -36 -28v-1q0 -4 23 -15q16 -7 16 -12q0 -6 -32 -43q-42 -48 -42 -75q0 -32 42 -40q59 -12 59 -23 v-76h8v-112q14 -31 18 -50q23 -19 39 -24q11 -11 24 -36q10 -18 48 -54l6 -6h1q15 0 78 -20q64 -19 77 -19q73 -47 111 -47q18 0 45 11q17 7 25 7q15 0 26 -12q7 -8 13 -8q10 0 25 25q14 24 26 24t32 -9t27 -9q3 0 6 1q12 5 45 5q4 0 12 -1q45 8 65 15q8 2 59 42l14 11 q8 6 13 10q34 28 43.5 32t46.5 8q4 1 7 1q11 8 11 25q0 9 -2 21q-4 19 -4 26q0 25 30 26zM758 662l-29 11h-24v-18l8 -6h22l17 6zM862 731q0 23 6 57q4 25 4 41q0 18 -8 54l-18 12l-21 55l-26 33l-37 4l-25 -10l-2 4l-18 -4h-4v-10l-54 -33l-8 -19l8 -20l-4 -6l7 -12h4 l6 -43l-10 -23q3 -10 17 -31v-39l6 -18v-43l15 14q26 4 37 4q18 0 64 -24v10q12 12 28 16q22 28 33 31zM1036 319l-39 -47l-28 -16h-2q-46 0 -93 36q-45 37 -61 85l6 22l-2 2l10 33l11 10q-15 75 -19 136l-31 49l-32 -13l-8 2l-35 3l-33 28q5 -13 5 -24q0 -3 -1 -9l-6 -6 v-26l-12 -27l-7 -2v-23q0 -1 3 -14q4 -11 4 -16q0 -10 -7 -47q-4 -22 -4 -29l-4 -4l4 -10l-10 -29l-12 -10v-2l-10 -6l-11 -31l-7 4v-14l-5 -7h-10l-2 -12q-24 -24 -31 -33l-2 -6l6 -12l-6 -4l-37 10l-6 19l10 34l8 -8l9 10q0 52 10 68q0 29 4 43h4l6 14l5 -2v35l-5 14 q10 70 10 85q0 6 -2 26t-2 27t4 22q5 20 5 33h2l10 43l-17 29q1 13 1 20q0 27 -5 49q-3 13 -3 52q0 18 3 40q-13 43 -26 76q-22 18 -31 23l-74 6l-39 -12q-6 -4 -7 -5q-19 -18 -26 -20v-20l-16 -11l-2 -12l-8 -6q0 -12 -1 -22q-1 -11 -1 -20q0 -15 8 -35q7 -20 8 -32 q10 -5 14 -6q47 -18 48 -20q30 54 30 121q0 23 -6 30l-8 13v6h12v4l11 4l16 -10q41 -59 45 -99l-4 -8l-6 -4v-6l-17 -4l-6 -27l6 -29l-2 -12l-20 6l-16 -6l-45 -20l-41 16l-9 -2l-6 6l-2 10l-20 11l-6 12l2 2l-15 12l-4 47l4 7l-10 18l6 33h6l4 6q-1 7 -1 14q0 16 3 35 q41 26 66 55l55 19q85 -1 119 -13l6 -8h6q36 -22 43 -41l6 -2l7 -16l-7 -12l17 -21q11 26 39 49l4 -6l8 -4l70 59q39 -9 50 -11q50 -15 114 -48q30 -62 41 -100q-5 -12 -5 -19q0 -5 2 -15q3 -11 3 -17q0 -31 -17 -66l-8 -4l-6 -19l-10 -8v-10l-20 10v-14h-5v-10l-10 -4v-11 l-6 -2l-7 6v-6l-16 -14l-4 -18l-18 -17l49 -35q4 -40 32 -61l7 -27l-4 -14q23 -41 23 -128q0 -15 -1 -46l16 -29h17l4 5q28 36 36 36q6 0 9 -12q9 -12 14 -15zM1364 662q-9 -9 -19 -76l-3 -19q-2 -15 -3 -19q-8 -59 -14 -71q-1 -26 -25 -76q-41 -84 -87 -127 q-29 -27 -48 -41q-15 -23 -65 -67q-68 -39 -137 -74q-6 -2 -9 -2q-30 -1 -30 -6q-15 1 -35 16q-7 2 -28 2q-94 0 -139 -33q-24 -18 -46 -18q-43 0 -94 29q-2 1 -2 6v1v1q0 4 -2 4q-18 0 -39 -12t-31 -12q-15 0 -107 43q-25 12 -34 16q-46 8 -107 23h-2q-13 0 -25 4 q-2 1 -3 9q-2 8 -7 11q-23 26 -50 97q-9 25 -13 34q-4 37 -10 53q-2 6 -24 23t-22 31q0 10 23 43q-18 9 -49 41l-41 69q13 43 22 70v88q11 10 28 26l11 136v24q2 38 40 75q33 34 45 58q32 65 47 82q18 23 38 37q61 64 63 64q14 8 61 11q46 3 73 13q32 12 59 25l82 18 q13 6 34 6q9 0 28 -1q7 -1 15 -1q17 0 28 4l110 -24q3 -2 8 -2q8 0 20 4q24 8 38 8h6q20 0 34 3q16 3 39 3q37 0 52 -25q16 -27 39 -32q26 -5 50 -32q18 -19 28 -23q76 -9 92 -23q9 -10 28 -65q19 -14 50 -72q3 -8 17 -32q19 -31 19 -48q0 -6 -5 -24q-5 -16 -5 -24v-3 q0 -18 -7 -27q-7 -11 -7 -25q0 -23 37 -57q22 -19 22 -30q0 -4 -3 -16q-9 -40 -9 -52v-20z"/>
<glyph glyph-name="overscore" horiz-adv-x="1024" unicode="" d="M473 1515q-8 -13 -21 -23l-14 6v-12h-22l-11 12l-18 -6l-27 11l-20 -11l-25 11l-12 -5l-2 5l-21 -5l-12 5l-10 10q-35 -24 -70 -27l-35 27l-65 -47l-14 16l-19 -10q-18 11 -32 11q-2 0 -9 -1l-22 59l59 31l6 6q36 -7 61 -9h1q13 0 142 16q49 -2 65 -2q33 0 61 10 q25 8 38 8q17 0 47 -6q28 -6 44 -5l6 6q51 -10 63 -10h2l28 3l17 -5l21 12l48 -3l25 10q4 1 42 -2h22q34 0 61 9q26 9 38 9q18 0 48 -7q33 -6 53 -6q4 0 13 1l29 -21l-6 -70l-8 11l-10 -6h-19l-47 22q-3 -17 -25 -33l-14 6v-12h-22l-11 12l-18 -6l-27 11l-20 -11l-25 11 l-12 -5l-2 5l-21 -5l-12 5l-10 10q-35 -25 -70 -27l-35 27l-65 -47l-14 16l-19 -10q-18 11 -32 11q-3 0 -9 -1z"/>
<glyph glyph-name="degree" horiz-adv-x="573" unicode="" d="M446 905l-38 41q-5 20 -5 33q0 12 5 22q-18 14 -39 58l-41 18q-1 -5 -1 -7q0 -12 5 -30l-29 4l-27 -4q-1 -4 -4 -13t-4 -13l-12 -2l-49 6l-12 -41l-7 -51l-24 -33l26 -25q9 -19 21 -61l45 -23v-10l12 -6l8 -12l13 1l26 1h21q1 2 3 2q3 0 6 -3q2 -3 6 -3q1 0 3 2l17 8 l30 33l27 16l6 45l-6 6zM543 893q-16 -96 -86 -168l-49 -26h-25l-31 -7q-10 2 -34 2h-54q-36 10 -94 78l-35 -4l-39 35l-8 35l-16 30l-20 37v15q8 10 8 22q0 13 -7 29l10 35h7q7 17 40 34q40 22 48 33l41 49v-4l28 17l27 6l2 -11l20 -4l13 -8h16l27 -16l39 -7h20 q7 -4 21 -14q13 -9 51 -32l12 -29l57 -49v-25l-20 -31z"/>
<glyph glyph-name="plusminus" horiz-adv-x="954" unicode="" d="M827 94l-6 -69l-10 10l-12 -6h-21l-55 22q-6 -18 -31 -33l-16 7v-13h-27l-12 13l-21 -7l-32 11l-23 -11l-31 11l-12 -4l-4 4l-22 -4l-17 4l-10 10q-44 -25 -82 -27l-43 27l-76 -47l-16 16l-23 -10q-22 11 -39 11q-3 0 -10 -1l-24 60l69 30l6 6q61 -10 78 -10q2 0 164 19 q57 -3 76 -3q40 0 72 9q28 8 43 8q20 0 67 -8q28 -5 52 -5q8 0 16 1zM842 565l-6 -69l-11 10l-12 -6h-20l-76 22q-7 -19 -31 -33l-16 7v-13h-27l-12 13l-21 -7l-32 11l-23 -11l-20 7q-2 -25 -2 -50t2 -71l3 -12l11 -48l13 -62l5 -22l15 -10q-5 -70 -51 -70q-6 0 -15 1 l-63 30l-11 27q3 26 3 42q0 36 -11 64l-16 -4q9 34 9 115q0 20 -1 70q-26 -10 -49 -13l-43 27l-96 -47l-17 16l-22 -10q-22 11 -39 11q-2 0 -10 -1l-25 60l70 30l6 6q64 -10 95 -10q11 0 136 17l1 2q1 2 1 6l-22 74q5 8 8 16q22 50 22 63q0 16 -5 39q-1 5 -2 8l-7 33v2 l-22 17l5 5q41 42 56 51q18 12 39 13l57 -39l-6 -8l14 -20q-6 -48 -14 -150q2 -18 2 -53q0 -41 -6 -59h14q14 -1 50 10q22 6 38 6q19 0 76 -8q35 -5 62 -5q6 0 16 1z"/>
<glyph glyph-name="twosuperior" horiz-adv-x="688" unicode="" d="M594 590q-3 -14 -14 -29q1 -6 1 -10q0 -14 -8 -25l7 -6l-7 -10l7 -23l-19 -8l-10 -8l-2 -6l-31 -4l-16 18l-23 4v6l-12 11h-21q-18 0 -24 -2l-60 10l-47 -14l-20 6l-4 -6l-31 -23l-20 -4l-7 -12l-16 -17l-12 -2q-29 18 -82 43l10 10l5 -2v21h-11l-4 6q0 24 16 59 q13 30 17 41h10l35 48l4 10l-6 -4l-4 8l16 6l-4 -16l6 -4l27 55l4 -12q10 11 24 22l41 66q29 21 58 30q16 41 67 111l-8 -2l-4 8q11 31 11 59q0 7 -1 15l-14 24l-21 6l-24 39l-23 7l-16 14q-4 -1 -10 -1q-11 0 -29 5q-28 8 -39 8q-4 0 -16 -3q-9 -3 -12 -3h-1l2 -4l-51 -12 l-10 -11q-3 -18 -25 -45q-4 -22 -4 -33q0 -13 4 -34l29 -25l27 6v-14l8 2l12 16v15l-6 16l14 12v23h-8l-2 -10l-12 -4v-2h-10l-13 16l2 6l15 6l6 10l6 5l8 -7l25 -4q14 -11 24 -43q-1 -32 -12 -61h-29l-4 -23l-22 -10q-17 5 -64 21l-8 -4l-4 6h-6q-8 23 -31 53l-4 35l-12 30 l10 35l8 -8l21 27l20 10q8 7 14 35q13 -1 21 -1q32 0 51 17h16l11 8l-4 6q21 -3 39 -4q5 1 7 2q20 5 23 5l2 -7l4 4l15 -4l14 4l12 -10l27 -4v-7h23v-11l12 1h14l8 1q22 -9 68 -29l4 -27q14 -6 29 -24l14 -47l20 -19l-6 -2l-6 -14l2 -6q-5 -5 -10 -17l8 -16l-4 -8v-25 l-16 -18l-15 -6l-51 -72l-4 2l-2 -6l-6 4q-18 -13 -32 -20q-19 -9 -27 -37l-62 -29l-10 4v-22l-25 -9l-14 -4l-4 -8l-2 2l-10 -10l-5 -29l5 -10l-11 -33l-6 -6h-8l-16 -18h30q76 1 105 14l22 -14q13 -3 18 -3q64 -6 64 -10l2 -10l15 -4l-5 -6v-2l11 -4l18 4q34 20 49 49z "/>
<glyph glyph-name="threesuperior" horiz-adv-x="674" unicode="" d="M567 645l-14 -41l-10 8q-2 -20 -8 -39q1 -6 -11 -16q-11 -11 -12 -14l-16 -25l-52 -18v-19l-16 -4h-22q-39 -6 -71 -20q-15 -6 -28 -6q-6 0 -14 2l6 -7h-27q-3 1 -5 2q-15 2 -15 5q-3 0 -16 -1h-5q-8 -1 -17 -1q-51 0 -93 36l-12 41l-9 4l-2 13l-14 10v18q11 43 14 50 q15 19 29 28v4l8 2l10 11l39 16h10q32 0 82 -18l7 -11l-11 -6h11l4 -20l2 10h18v-8h6l-6 -35l4 -12l-16 -4l-35 26l2 6h-10l-8 11v-7l-11 15q-25 0 -40 -10l-21 -9h-16l-15 -28v-35q16 -43 70 -64l43 -4l29 8l4 -6l12 4l-6 7q23 10 49 34l6 -20q24 35 31 72l6 -2l25 16l6 18 l-10 43h-3l3 37l11 -6v-14h5v12l7 -12v35l-5 16l4 4l-12 29l-13 2v-13q-22 20 -92 62l-10 -6q-15 7 -33 7q-6 0 -16 -1l-12 -16l-19 -3l-15 13v16q-5 1 -22 27h11l4 2h45l32 12h19l55 49l-2 -8l14 6v8h7l-2 13l2 -2q0 27 14 55l-4 6l4 2l-10 14l-6 33l-17 25l-12 4 q-21 25 -37 35l-6 -6l-25 10l-4 -6l-35 -23l-24 17l-2 -11l-10 -2l-11 -20l-2 2q-1 -2 -1 -3q-3 -5 -3 -7q0 -10 4 -28h21l18 -9q26 18 29 28l2 13l10 4l21 -10l18 -33l-6 -27l-6 -6h-13l-16 -6h-22l-5 4l-22 -4l-12 10l-29 10l-27 39v13l1 6v14l6 6l-5 12l5 13l10 4l16 18 q60 27 86 27l31 -8v7h41l10 1l6 -8l45 -9h6q26 -14 58 -40l6 -5l10 -16l-4 -2l21 -10v-27l-7 -12l11 -12l28 -43l-22 -21q-2 -6 -5 -9q-18 -23 -17 -24l1 -4l-6 -6l-6 -29l6 -8l-53 -18l-16 -9h-66q5 -2 26 -10q4 -1 17 -8l29 4l47 -30l43 -9l33 -37l16 -38l-8 -7 q13 -23 24 -55z"/>
<glyph glyph-name="acute" horiz-adv-x="702" unicode="" d="M598 1257q-3 -16 -29 -57q-13 -11 -45 -16l-18 -15h-14l-7 -4h-8q-32 -36 -67 -51l-19 -27l-16 -8q0 -7 -23 -45l-26 -16l-15 -23v4q-35 -29 -56 -29q-3 0 -9 1l-17 -19v-4h-20l-4 35l24 21l4 22q81 60 142 170l10 -4l8 8l6 -12l15 8l-4 14l22 17l-8 8l8 10v3l-1 2v2 q-1 4 -1 6q0 1 1 5v2q1 3 1 5l45 39q60 -15 88 -15q5 0 13 2l-9 -10l25 -6z"/>
<glyph glyph-name="mu1" horiz-adv-x="1030" unicode="" d="M1034 211q-44 -53 -102 -86l-55 -4q-27 17 -58 20q-18 24 -33 27l-14 20l-12 7q-75 67 -107 178v10l-12 23v32l-4 11q-17 -34 -20 -41q-9 -17 -21 -43q-7 -13 -14 -23q-18 -28 -54 -94l-16 -10q-6 -11 -23 -54l-30 -28l-13 -27l-36 -37l-82 4l-17 23q-1 -34 -1 -46 q0 -58 16 -77v-86q54 -112 54 -125q0 -41 -28 -41q-22 0 -33 41q-9 31 -12 33q-16 11 -41 37q0 5 -4 20q-5 0 -18 6q-3 4 -2 22v7q0 47 -13 82q-4 30 -14 41q-5 7 -13 32q-18 57 -18 100q0 84 4 116q-6 33 -6 54v5l-4 6q-2 -3 -3 -3q-10 0 -10 47l1 52v11l27 22l6 23 l-27 -17l33 54v-11q19 42 20 64l-10 22l16 37l11 6v17l6 6v26l37 70h26l17 -22v-15l16 -12l-4 -4l10 -6l-6 -6l23 -31l10 -6l6 -11h4v-28q-9 -19 -40 -81l-7 -15h-6q-33 -166 -33 -254q0 -67 16 -97v-12l23 -31l43 15q52 59 113 151l10 6v6l29 27l30 70l-4 10l47 125l13 -6 q5 32 4 39l22 32l76 -12q10 -29 20 -80l-4 -12q19 -33 19 -70q0 -10 -2 -26l53 -103v-43q7 -22 33 -75l16 -7l10 -10q4 1 6 1q12 0 33 -11q61 19 109 72z"/>
<glyph glyph-name="paragraph" horiz-adv-x="897" unicode="" d="M838 1370q-16 -18 -16 -60q0 -30 7 -77l-16 -33h-10l-17 -82h-6l-1 -11q-5 -36 -5 -42v-188l6 -17h-6v-10l8 -31l31 15q-14 -29 -43 -66q-8 -47 -33 -76l17 -20q-17 -71 -17 -109q0 -11 3 -37q2 -15 3 -28l-12 -49l-10 -5l10 -10l-10 -78l16 -57l-28 -133l12 -29 l-70 -125l-65 -65l-11 -4l11 -17q-57 -4 -92 -32l-84 -13q-12 3 -44 9q-106 21 -120 36l-15 27l-16 6l-29 27l-4 37l-39 38l7 5q-28 46 -28 121q0 7 1 14q36 41 43 82l10 4l6 -4q10 5 15 8q50 28 60 28h1v7l37 6l33 -6l26 10l11 -10l32 -7l13 -16l43 -10l43 -66l4 -43l12 -4 q-14 -33 -14 -60q0 -8 2 -22l-54 -63l-32 -12h-33l-16 6l-11 -11l-4 11h-33l-12 26v23l-10 -17l-10 11l-6 16l12 6l-12 4l-5 60l27 49l27 10l-6 -16h22l10 -11l11 7l-11 -39l-10 -11l6 -26l-6 -33l16 -22l17 -5l4 -6l12 6l17 -6l4 11l22 16q22 51 22 75q0 4 -1 11l-4 -14 h-13l6 53l-6 20l-47 45l-43 15q27 -18 37 -31l-33 16h-49l-43 -28l-16 6l-4 -17l-11 -6l-12 -20l-4 6q-18 -43 -18 -86q0 -12 2 -29l16 -4q21 -36 21 -55l32 -16l35 -53h31l18 -13q11 -8 82 -8q11 5 74 12l24 57l11 -16l22 16l6 43l15 23l18 49l3 21q5 35 7 44q9 50 9 67 q0 14 -11 67v96q18 41 18 138v10q0 64 3 77l-33 -14l-113 -10q-84 17 -90 59l-98 37l-16 20l-88 148l4 27l-11 47l29 20l-10 33q0 24 4 43q11 45 43 84q12 16 73 73l60 58h6l21 27h16l12 16h11v10q13 15 37 15q11 0 39 -4q18 -3 30 -3q19 0 33 11l12 20l25 -6q8 19 16 19 q3 0 16 -6q13 -5 26 -5q8 0 15 2l82 -31l43 68z"/>
<glyph glyph-name="middot" horiz-adv-x="434" unicode="" d="M311 569l-6 -14l-26 -23h-43l-21 -32l-29 -4l-4 10l-10 4l5 16l-27 23q-27 45 -27 89v13l17 43q38 -7 118 -26q31 -46 53 -99z"/>
<glyph glyph-name="cedilla" horiz-adv-x="702" unicode="" d="M557 -272q-11 -46 -11 -68q0 -3 1 -12h-10l-33 -49h-10l-13 -7l-20 7v-17l-23 -10l-4 6l-55 -22q-59 14 -107 43l-39 49l11 59q24 25 45 33l20 -6l10 6l39 -33l-10 -33h-33l-6 17l-37 -17l11 -36l69 -17l23 17l26 4l21 23h15v18q1 2 2 7q1 7 16 19l16 8v27l-20 49h-17 l-6 23l-33 -6q-24 12 -76 12q-21 0 -47 -2l-16 -10l-16 26l10 23l-6 4q17 60 82 118q9 7 33 13q16 3 22 6l-1 1q1 1 3 1l-1 -1l-1 -1q3 -4 27 -17l8 -4l6 -4q20 -11 21 -16q-1 -2 -9 -2l-18 -26h-25l-29 -5q-14 -1 -43 -37q62 -20 136 -26q10 -23 75 -60z"/>
<glyph glyph-name="onesuperior" horiz-adv-x="614" unicode="" d="M565 475l-71 -24h-31q-18 0 -68 6l-6 -5h-53l-10 5q-21 -7 -42 -7q-6 0 -18 1l-22 -7l-11 2l-12 -10l-10 8l-4 -4l-23 11l-10 18l-27 10l5 6l10 2v9l28 10l11 -4l6 10l10 -6h10l11 -4l12 14l-6 19l16 4v6h10q-1 4 -1 8q0 9 7 16q-6 7 -10 21v34l-1 58q0 50 11 66l21 10 l6 16l-6 8l6 9l-6 16l-16 -10l-21 12v8l-16 14v11h16l-10 37l20 45l23 -11l10 2q-18 34 -37 46l4 98l-69 -103l-37 -6q-14 -8 -43 -35q-20 -19 -51 -26l-37 10q25 6 51 19l4 12q13 9 29 31q14 18 37 26l13 29v-17l13 7l8 20l23 45q39 35 86 98l98 -6v-30q0 -10 13 -25 q11 -18 11 -26q0 -2 -1 -5h-6l-4 -55q31 -27 36 -43l-10 -4v-6l-16 -8l-17 -19q-5 -18 -6 -27q1 0 0 -9q5 -14 6 -19l23 -25l-16 -14l10 4v-35q0 -2 -6 -12q-4 -7 -4 -19v-17q1 -15 1 -19q0 -10 -8 -41q-7 -24 -7 -37q0 -4 1 -8l-4 -5q7 -33 37 -112l-2 -6h-25v-43l158 4z "/>
<glyph glyph-name="ordmasculine" horiz-adv-x="801" unicode="" d="M670 1001l-17 -55h-2v-6l-12 -8l-10 -31l-4 -6q-18 -27 -33 -61h-14l-15 -25l-8 -4v-4q-27 -9 -94 -10q-5 2 -12 3q-10 3 -15 5l-8 -6h-14l-33 16l-8 -4l-2 10l-13 -6l-8 8h-12l4 4l-8 2q-20 29 -37 33q-88 110 -88 264q5 25 12 49l10 5l4 16l25 24h4q12 67 43 91l21 -5 l10 21l20 14v4l58 27l24 -12v6l21 -6l6 -11l20 -10q10 -24 35 -57l-16 -41l-6 2l-13 -2v-10h-10l-20 16l-11 -6l-41 -16l-8 6l-8 -6h-8l-17 -17v-18l-30 -29l-13 -26h-20l-4 -9l-6 -20l6 -25l-12 -20q-2 -13 -2 -41q0 -39 8 -64l10 -14l10 -29l8 -8l18 -18l19 -19l8 -8 l82 -20q71 0 91 14v8l8 4v4q65 69 65 125q0 41 -16 86q-22 13 -48 13q-5 0 -16 -1l-4 13h-8l-6 -8h-6v-19l-6 2l-29 -6v-4l-20 -4l-15 -23v-49l10 -18l17 -13l4 7l20 -7l9 7h6q16 11 28 14l25 51l10 -6l-8 -45l-14 -25l-6 -22l-19 -8v-9l-22 -7h-33l-6 14l-21 6 q-8 14 -22 30l-4 13l-25 24l4 49l-8 7q0 41 12 73l8 4l13 27q7 15 43 14l10 -6q6 1 7 1q20 5 26 5h2l10 11l18 5h21l65 -48l7 -9l8 -8q4 -28 16 -76l8 -6l6 -8v-10z"/>
<glyph glyph-name="guillemotright" horiz-adv-x="979" unicode="" d="M567 485l-14 -14v-16q-59 -60 -82 -66l-35 -57v-15l-37 -22q-17 -65 -45 -90l-4 -21l-26 -16h-9l-14 -27h-16v-22l-15 -15q-3 -15 -26 -43l-17 -8l-10 -18h-18l-15 8v39l11 22q119 240 129 262q11 25 20 56q1 27 14 67q-9 19 -9 42q0 6 1 16l-35 22q-4 38 -24 58l-39 26 l-8 23l8 8l-68 61l-30 74l-23 15v14h1q2 1 5 1h2l6 1q3 -1 35 -5q3 0 10 -1q51 -37 146 -117q25 -41 82 -90l4 -19q50 -47 141 -110zM825 463l-6 -4l-2 -13l-12 -4v-14l-12 -8l-7 -14l-53 -52l-20 -6v-10h-8l4 -16l-23 -50q-66 -27 -84 -71l-22 -11l-31 -47l-64 -43v-6 q-22 -23 -67 -57h-15l-14 24l4 21q49 19 135 176l54 37l-9 20l7 23l16 8q16 24 38 43v17h-18l17 16h8l10 16l-6 11l25 10v6l-11 6l15 18l12 7l-45 41h-8q-11 15 -64 74q-40 44 -55 81q-76 47 -86 82l-53 49l33 4q86 -50 142 -86q25 -21 124 -92q14 -50 78 -96h12 q29 -33 61 -90z"/>
<glyph glyph-name="onequarter" horiz-adv-x="1608" unicode="" d="M1256 580l-6 40l-10 7l4 8l-12 6l-5 -18v-19l-18 -24l-10 -37l-20 -23l-7 -14q-76 -68 -75 -117h-9v-8l-28 -25l-6 13l-3 -5q-17 -24 -34 -47h45l4 -10h16l4 -8l7 -2h10v-4h12l2 10l10 6l11 -2l-4 -4v-6h20l16 10h50q0 56 18 103v4q0 4 -2 17q-2 10 -2 14q0 27 10 108 l2 -4l4 28zM1592 377l-2 -2v-17q-32 -88 -71 -118l-33 -10h-23l-6 -5l-12 -6l2 -6l-39 -10q-19 6 -49 22l-30 -8l1 -18v-19h-2l-14 -28l-17 -7l4 -6v-12l13 -14h6q2 -18 2 -30q0 -7 -2 -15l10 -15l-10 -2l-10 6v-35l-15 -16l-6 -10l12 -6l5 -19l-5 -26q-18 5 -30 21h-15 l-6 20q-2 2 -3 4q-3 3 -12 13q-7 6 -18 27q-9 16 -12 26q0 20 -1 35q-1 35 -4 44q-1 4 -1 10v1q4 44 6 71l10 14l-26 17h-39q-4 0 -14 -3q-7 -2 -13 -3v8h-3l-8 -1h-4q-5 -1 -11 -1h-64q-10 0 -23 3q-16 3 -24 3l-6 8l-20 -6v18q-10 7 -15 33l8 -4l-4 21l6 6q11 21 35 28v11 q9 1 23 20l8 19q0 1 -3 4q-6 4 -6 7q0 5 29 5v8l11 4l10 21v12h-6l2 8v8l2 2q7 6 32 20q28 15 46 48l-15 10q11 23 33 55l6 -8q57 67 94 150h19q17 -18 29 -47q16 -37 51 -88q-2 -5 -2 -12q0 -17 5 -29q8 -19 7 -21q-1 -4 0 -6h-1v-14v-39l5 -19l-6 -34l-16 -11 q1 -32 -13 -96l7 -10v-47l18 -8h20l6 8h17l6 -8h14l-8 12q7 -2 12 -2q16 0 56 16q19 8 28 8h2l9 9v6l16 12v4q11 11 45 35zM1202 1135l-14 -33v-17l-49 -49v-20l-23 -12v-21q-39 -58 -79 -86l-27 4l-16 -20l4 -17l-11 -6l11 -16q1 -30 -13 -78q-18 -64 -20 -78l-27 -33 q-24 -10 -33 -22l-14 -4q-16 -43 -39 -60v-26l-10 -23v-20l-6 -13l6 -10h-10q-14 -38 -14 -62q0 -7 1 -14h-16l-16 -16l-37 10l-10 -4l-7 -16l11 -6l-31 -5l-6 -16l-33 -16l-10 -17q3 -31 4 -49q-8 -36 -14 -53l-17 -16v-11l-43 -32l-22 -39l6 -11q-29 -37 -33 -59l-22 -20 v-17l-17 -16l-4 -23l-16 6l-43 60h-6l-33 37v26l11 14q45 57 103 125q34 39 55 90q33 83 74 107v6h11q4 28 16 47v13h10q4 13 17 26l22 -6l17 6l26 54l-10 6q14 13 29 45q21 45 41 61l6 29l10 10l4 27l-4 6l16 4l17 22l4 -6l12 33v43l31 70v12q92 102 115 162l10 4 q3 16 33 39l10 26l10 -16v16l16 -10l7 -10l6 4l14 -20l16 -7l39 23zM565 475l-71 -24h-31q-18 0 -68 6l-6 -5h-53l-10 5q-21 -7 -42 -7q-6 0 -18 1l-22 -7l-11 2l-12 -10l-10 8l-4 -4l-23 11l-10 18l-27 10l5 6l10 2v9l28 10l11 -4l6 10l10 -6h10l11 -4l12 14l-6 19l16 4v6 h10q-1 4 -1 8q0 9 7 16q-6 7 -10 21v34l-1 58q0 50 11 66l21 10l6 16l-6 8l6 9l-6 16l-16 -10l-21 12v8l-16 14v11h16l-10 37l20 45l23 -11l10 2q-18 34 -37 46l4 98l-69 -103l-37 -6q-14 -8 -43 -35q-20 -19 -51 -26l-37 10q25 6 51 19l4 12q13 9 29 31q14 18 37 26l13 29 v-17l13 7l8 20l23 45q39 35 86 98l98 -6v-30q0 -10 13 -25q11 -18 11 -26q0 -2 -1 -5h-6l-4 -55q31 -27 36 -43l-10 -4v-6l-16 -8l-17 -19q-5 -18 -6 -27q1 0 0 -9q5 -14 6 -19l23 -25l-16 -14l10 4v-35q0 -2 -6 -12q-4 -7 -4 -19v-17q1 -15 1 -19q0 -10 -8 -41 q-7 -24 -7 -37q0 -4 1 -8l-4 -5q7 -33 37 -112l-2 -6h-25v-43l158 4z"/>
<glyph glyph-name="onehalf" horiz-adv-x="1608" unicode="" d="M1512 114q-5 -17 -14 -29q1 -6 1 -11q0 -12 -8 -24l7 -6l-7 -10l7 -23l-19 -8l-10 -8l-2 -6l-31 -4l-16 18l-23 4v6l-12 11h-14q-23 0 -31 -2l-60 10l-47 -14l-20 6l-4 -6l-31 -23l-20 -4l-7 -12l-16 -17l-12 -2q-21 14 -82 43l10 10l5 -2v21h-11l-4 6q-1 22 16 59 q9 20 17 41h10l35 48l4 10l-6 -4l-4 8l16 6l-4 -16l6 -4l27 55l4 -12q7 8 24 22l41 66q31 22 58 30q18 45 67 111l-8 -2l-4 8q11 32 11 57q0 6 -1 17l-14 24l-21 6l-24 39l-23 7l-16 14q-6 -1 -10 -1q-12 0 -29 5q-26 8 -39 8q-2 0 -13 -3h-4q-10 -3 -11 -3h-1l2 -4l-51 -12 l-10 -11q-3 -17 -25 -45q-4 -22 -4 -32q0 -12 4 -35l29 -25l27 6v-14l8 2l12 16v15l-6 16l14 12v23h-8l-2 -10l-12 -4v-2h-10l-13 16l2 6l15 6l6 10l6 5l8 -7l25 -4q14 -10 24 -43q0 -33 -12 -61h-29l-4 -23l-22 -10q-23 7 -64 21l-8 -4l-4 6h-6q-9 25 -31 53l-4 35l-12 30 l10 35l8 -8l21 27l20 10q9 9 14 35q13 -1 22 -1q32 0 50 17h16l11 8l-4 6q28 -5 39 -4q5 1 7 1q20 6 23 6l2 -7l4 4l15 -4l14 4l12 -10l27 -4v-7h23v-11l12 1h14l8 1q25 -10 68 -29l4 -27q15 -5 29 -24l14 -47l20 -19l-6 -2l-6 -14l2 -6q-5 -5 -10 -17l8 -16l-4 -8v-25 l-16 -18l-15 -6l-51 -72l-4 2l-2 -6l-6 4q-22 -15 -32 -20q-19 -9 -27 -37l-62 -29l-10 4v-22l-25 -9l-14 -4l-4 -8l-2 2l-10 -10l-5 -29l5 -10l-11 -33l-6 -6h-8l-16 -18h30q75 1 105 14l22 -14q14 -2 18 -3q56 -10 64 -10l2 -10l15 -4l-5 -6v-2l11 -4l18 4q34 19 49 49z M1203 1135l-15 -33v-17l-49 -49v-20l-22 -12v-21q-39 -58 -80 -86l-27 4l-16 -20l4 -17l-10 -6l10 -16q1 -30 -13 -78q-18 -64 -20 -78l-27 -33q-25 -10 -32 -22l-15 -4q-16 -43 -39 -60v-26l-10 -23v-20l-6 -13l6 -10h-10q-13 -35 -13 -61q0 -5 1 -15h-17l-16 -16l-37 10 l-10 -4l-6 -16l10 -6l-31 -5l-6 -16l-33 -16l-10 -17q3 -31 4 -49q-8 -36 -14 -53l-17 -16v-11l-43 -32l-22 -39l6 -11q-29 -39 -33 -59l-22 -20v-17l-17 -16l-4 -23l-16 6l-43 60h-6l-33 37v26l11 14q45 52 103 125q36 41 60 101q30 74 70 96v6h10q4 28 16 47v13h11 q4 14 16 26l22 -6l17 6l26 54l-10 6q14 13 29 45q21 45 41 61l6 29l10 10l4 27l-4 6l17 4l16 22l4 -6l12 33v43l31 70v12q92 102 115 162l10 4q3 16 33 39l10 26l10 -16v16l17 -10l6 -10l6 4l14 -20l17 -7l39 23zM565 475l-71 -24h-31q-18 0 -68 6l-6 -5h-53l-10 5 q-21 -7 -42 -7q-6 0 -18 1l-22 -7l-11 2l-12 -10l-10 8l-4 -4l-23 11l-10 18l-27 10l5 6l10 2v9l28 10l11 -4l6 10l10 -6h10l11 -4l12 14l-6 19l16 4v6h10q-1 4 -1 8q0 9 7 16q-6 7 -10 21v34l-1 58q0 50 11 66l21 10l6 16l-6 8l6 9l-6 16l-16 -10l-21 12v8l-16 14v11h16 l-10 37l20 45l23 -11l10 2q-18 34 -37 46l4 98l-69 -103l-37 -6q-14 -8 -43 -35q-20 -19 -51 -26l-37 10q25 6 51 19l4 12q13 9 29 31q14 18 37 26l13 29v-17l13 7l8 20l23 45q39 35 86 98l98 -6v-30q0 -10 13 -25q11 -18 11 -26q0 -2 -1 -5h-6l-4 -55q31 -27 36 -43l-10 -4 v-6l-16 -8l-17 -19q-5 -18 -6 -27q1 0 0 -9q5 -14 6 -19l23 -25l-16 -14l10 4v-35q0 -2 -6 -12q-4 -7 -4 -19v-17q1 -15 1 -19q0 -10 -8 -41q-7 -24 -7 -37q0 -4 1 -8l-4 -5q7 -33 37 -112l-2 -6h-25v-43l158 4z"/>
<glyph glyph-name="threequarters" horiz-adv-x="1608" unicode="" d="M567 645l-14 -41l-10 8q-2 -20 -8 -39q1 -6 -11 -16q-11 -11 -12 -14l-16 -25l-52 -18v-19l-16 -4h-22q-39 -6 -71 -20q-15 -6 -28 -6q-6 0 -14 2l6 -7h-27q-3 1 -5 2q-15 2 -15 5q-3 0 -16 -1h-5q-8 -1 -17 -1q-51 0 -93 36l-12 41l-9 4l-2 13l-14 10v18q11 43 14 50 q15 19 29 28v4l8 2l10 11l39 16h10q32 0 82 -18l7 -11l-11 -6h11l4 -20l2 10h18v-8h6l-6 -35l4 -12l-16 -4l-35 26l2 6h-10l-8 11v-7l-11 15q-25 0 -40 -10l-21 -9h-16l-15 -28v-35q16 -43 70 -64l43 -4l29 8l4 -6l12 4l-6 7q23 10 49 34l6 -20q24 35 31 72l6 -2l25 16l6 18 l-10 43h-3l3 37l11 -6v-14h5v12l7 -12v35l-5 16l4 4l-12 29l-13 2v-13q-22 20 -92 62l-10 -6q-15 7 -33 7q-6 0 -16 -1l-12 -16l-19 -3l-15 13v16q-5 1 -22 27h11l4 2h45l32 12h19l55 49l-2 -8l14 6v8h7l-2 13l2 -2q0 27 14 55l-4 6l4 2l-10 14l-6 33l-17 25l-12 4 q-21 25 -37 35l-6 -6l-25 10l-4 -6l-35 -23l-24 17l-2 -11l-10 -2l-11 -20l-2 2q-1 -2 -1 -3q-3 -5 -3 -7q0 -10 4 -28h21l18 -9q26 18 29 28l2 13l10 4l21 -10l18 -33l-6 -27l-6 -6h-13l-16 -6h-22l-5 4l-22 -4l-12 10l-29 10l-27 39v13l1 6v14l6 6l-5 12l5 13l10 4l16 18 q60 27 86 27l31 -8v7h41l10 1l6 -8l45 -9h6q26 -14 58 -40l6 -5l10 -16l-4 -2l21 -10v-27l-7 -12l11 -12l28 -43l-22 -21q-2 -6 -5 -9q-18 -23 -17 -24l1 -4l-6 -6l-6 -29l6 -8l-53 -18l-16 -9h-66q5 -2 26 -10q4 -1 17 -8l29 4l47 -30l43 -9l33 -37l16 -38l-8 -7 q13 -23 24 -55zM1256 580l-6 41l-10 6l4 8l-13 6l-5 -18v-19l-17 -24l-10 -37l-21 -23l-6 -14q-77 -68 -76 -117h-8v-8l-29 -25l-6 13q-6 -10 -37 -51h45l5 -11h16l4 -8l6 -2h10v-4h13l2 10l10 6l10 -2l-4 -4v-6h21l16 10h49q0 56 19 103q0 4 -3 21q-2 9 -2 15q0 24 11 107 l2 -4l4 29zM1592 377l-2 -2v-16q-31 -89 -72 -119l-33 -9h-22l-6 -6l-13 -6l2 -6l-38 -10q-21 6 -50 22l-29 -8l1 -18v-19h-2l-15 -28l-16 -6l4 -7v-12l12 -14h6q2 -15 2 -29q0 -9 -2 -16l11 -15l-11 -2l-10 6v-34l-14 -17l-6 -10l12 -6l4 -19l-4 -26q-20 5 -31 21h-14 l-6 20q-2 2 -16 17q-30 37 -30 83v6q0 29 -3 40l-2 13v3v3q2 23 6 66l10 15l-27 16h-38q-5 0 -14 -3q-7 -2 -13 -3v8h-3q-7 -1 -8 -1h-5q-6 -1 -11 -1h-63q-9 0 -24 3q-12 3 -18 3h-3h-2l-6 8l-20 -6v19q-11 8 -15 32l8 -4l-4 21l6 6q9 21 35 29v10q8 1 22 20l8 19q0 1 -3 4 q-3 4 -5 7q2 5 27 5h2v8l10 4l10 21v12h-6l2 8v9q1 1 2 1q3 3 41 26q23 13 37 42l-14 10q11 25 33 56l6 -9q56 67 94 150h18q21 -20 30 -47q12 -30 50 -88q-2 -5 -2 -9q0 -11 4 -25q8 -29 9 -34l-3 -14v-39l7 -18l-7 -35l-16 -10v-5q0 -34 -12 -92l7 -10v-47l17 -8h21l6 8 h16l7 -8h14l-8 12q6 -2 11 -2l83 25h2h2l8 8v6l17 12v4q14 14 45 35zM1203 1135l-15 -33v-17l-49 -49v-20l-22 -12v-21q-38 -57 -80 -86l-27 4l-16 -20l4 -17l-10 -6l10 -16v-6q0 -25 -13 -72q-21 -76 -20 -78l-27 -33q-25 -10 -32 -22l-15 -4q-17 -44 -39 -60v-26l-10 -23 v-20l-6 -13l6 -10h-10q-14 -34 -14 -59q0 -7 2 -17h-17l-16 -16l-37 10l-10 -4l-6 -16l10 -6l-31 -5l-6 -16l-33 -16l-10 -17q5 -33 4 -49q-9 -37 -14 -53l-17 -16v-11l-43 -32l-22 -39l6 -11q-27 -37 -33 -59l-22 -20v-17l-17 -16l-4 -23l-16 6l-43 60h-6l-33 37v26l12 14 q52 65 102 125q36 40 61 101q29 75 69 96v6h10q4 29 16 47v13h11q3 13 16 26l22 -6l17 6l26 54l-10 6q16 15 34 54q19 38 36 52l6 29l10 10l4 27l-4 6l17 4l16 22l4 -6l12 33v43l31 70v12q95 105 115 162l10 4q3 17 33 39l10 26l10 -16v16l17 -10l6 -10l6 4l14 -20l17 -7 l39 23z"/>
<glyph glyph-name="questiondown" horiz-adv-x="1028" unicode="" d="M915 166q-30 -53 -125 -129q-48 -39 -86.5 -52.5t-102.5 -13.5q-117 0 -226 41q-48 18 -74 41h-6q-41 20 -119 70l-10 33q-14 6 -34 56q-17 47 -19 67l10 16l-10 22v33l3 12l11 39l12 42l4 14l13 16l4 33l12 6l4 20l43 27l17 55l26 27l17 6l22 37l4 23h17q30 49 81 69 l33 -6l70 39l10 33q2 16 -29 65q-22 35 -24 54l6 10q-3 16 -3 27q0 37 23 65l43 -12l17 6l33 37l16 -4q21 -87 21 -217q0 -44 -11 -103l-37 -63l-22 -13l-17 -20l-20 -6l-6 -11l-23 -16l-20 10l-27 -4q-6 -24 -6 -32v-1l-20 -16q-1 -5 -1 -9q0 -11 5 -24q-34 -31 -76 -129 q-39 -97 -37 -145h-6l-16 -6v-23l6 -14l-17 -6l17 -23l-6 -16l4 -2l14 -7l18 -9l7 -3l6 6v-12l22 17l4 -54l17 11l32 -50q81 -52 129 -69l39 6l21 -6l16 16h17v6l16 -12l27 6l22 -6l10 16l-6 13l6 4l11 22v10h32l7 27h10q2 25 26 60v59l11 16v6q0 5 -4 35q-1 6 -2 27 q-4 44 -21 74l-4 4v22l-23 33q-30 27 -75 31l-21 -15q-33 -57 -33 -149q0 -30 4 -57l7 -5l26 11l27 43h12l4 -33l6 -4l-38 -49l-44 -11l-106 48l-66 71v43l-6 17l23 30l16 6l4 11h6q4 9 43 32h11l65 33v10l33 13q95 -12 178 -88l37 -97l6 -6q55 -111 55 -165q0 -7 -2 -23z M641 1317q-10 -48 -10 -83q0 -20 4 -42l-17 -6l-10 -10q-71 27 -129 59l4 22l-10 11l-4 43l10 32l-6 11h10v22l72 -6z"/>
<glyph glyph-name="Agrave" horiz-adv-x="1804" unicode="" d="M729 557h-4q-23 0 -43 4q-28 6 -45 6q-13 0 -34 -5q-14 -3 -25 -5l-23 -22q-4 -25 -49 -70q-1 -10 -7 -34q-7 -22 -7 -38l-17 -26l-16 -123l-23 -33l-43 -10l-33 -23q-140 29 -151 141l6 54q35 29 43 49h6l4 16l17 4l16 -20l-10 -29l16 -31h-10v-28l-23 -10l-6 -17 l29 -53h10l6 -16l60 6l30 63l-20 103q-18 1 -49 32l6 23l-66 10q-71 -20 -90 -46q-20 -23 -45 -36v-10l-16 -33q0 -73 -10 -119l26 -53l23 -10l16 -43l103 -66q30 -6 35 -6q7 0 61 6q56 64 125 86h-27l4 23l23 -6q38 25 43 43l-10 6q36 58 90 123l-11 22l23 11zM1171 707 l-55 249h12v37l11 11v43q-16 7 -33 28l-6 90l6 13l-49 92l-4 -66l-6 -6l-21 -102q-42 -46 -76 -135l-16 -11q-39 -92 -43 -162l-17 -26q1 -5 1 -8q0 -39 -39 -107v-16l26 -15h23l22 11l15 -17q61 -4 98 -16l37 6l39 -16q20 5 38 5q8 0 15 -1v55l10 10q2 9 3 13q3 41 9 41z M1722 172h-12l6 -47l-10 -39h-6l-17 -53l-20 -6l-6 -17q-52 -27 -141 -27q-14 0 -43 1q-119 35 -189 178q-4 56 -16 86h-17q-38 92 -53 168l10 10l-4 39l-16 4v49l-23 -6v16q-44 19 -89 19q-12 0 -29 -2l-37 -21l-56 11l-43 26l-53 -20l-43 16l-22 -12l-2 -8l-9 -30l-12 -40 l-4 -14q-21 -36 -49 -103l12 -31l-33 -81l-22 -23l-4 -37q-19 -20 -33 -65l-55 -60l-60 -10l-10 -16l-16 -4l-17 -13h-26l-54 -26l-6 16l-37 -10l-39 10l-4 10l-16 -4l-72 21q-13 16 -51 28q-37 13 -45 20q-7 6 -55 42l-11 8l-43 102v70q28 52 39 125h11v10h16l37 70l49 22 l6 27q13 -6 27 -6q12 0 35 3q24 3 41 3q52 0 92 -23l47 -53l12 33l27 16l16 47l31 13l16 20q39 19 49 33h50l10 6l76 -27l49 11q3 32 33 99q27 62 27 103q0 1 -1 19q13 15 52 99q36 77 40 100l54 71l16 76l-6 31q11 27 11 41q0 3 -1 8q12 12 39 82q114 0 184 10 q11 -10 30 -10q12 0 30 4l4 -10h26v-11l-4 -6v-10q-18 -18 -43 -23l-12 -16l-16 -59l28 -60v-59q0 -24 -16 -64l33 -43v-16l4 4l10 -90l-10 -23l43 -79l-21 -39q0 -45 10 -66l-10 -47l27 -59l10 10l39 -10l119 20q17 8 60 42q43 35 46 50l13 -6l-13 -47l6 -22l11 -11v-10 l-27 -22l6 -21l-12 -12l-53 -21h-37q-29 -20 -49 -22q-9 14 -39 26h-54l-10 -4l-10 -12l14 -20q8 -29 17 -82l28 -48l-6 -28q40 -76 54 -156l26 -33l12 -4l5 -49q15 -17 59 -55l39 -10l43 16l26 27q13 28 13 83q0 17 -2 52l-17 16h-10q-25 -26 -33 -59l-26 -10l6 -43l16 -13 l10 17l11 -11v-16l-4 -4h-33q-21 5 -49 14q-7 42 -7 66q0 7 1 16h-11v23q11 36 17 47h10l6 16l43 27l49 6l37 -16v-37l23 -6l32 -54v-12zM1210 1577l-4 -15l-35 10q-22 24 -57 58q-32 20 -88 67q-18 29 -54 78q-34 27 -92 80l6 19l15 8l-6 20l20 21h66l55 -25q19 -30 18 -49 l-8 -4l8 -17l31 -22l8 -31q26 -16 45 -41l-6 -30q36 -19 60 -54v-24l10 -23v-12z"/>
<glyph glyph-name="Aacute" horiz-adv-x="1804" unicode="" d="M729 557h-4q-23 0 -43 4q-28 6 -45 6q-13 0 -34 -5q-14 -3 -25 -5l-23 -22q-4 -25 -49 -70q-1 -10 -7 -34q-7 -22 -7 -38l-17 -26l-16 -123l-23 -33l-43 -10l-33 -23q-140 29 -151 141l6 54q35 29 43 49h6l4 16l17 4l16 -20l-10 -29l16 -31h-10v-28l-23 -10l-6 -17 l29 -53h10l6 -16l60 6l30 63l-20 103q-18 1 -49 32l6 23l-66 10q-71 -20 -90 -46q-20 -23 -45 -36v-10l-16 -33q0 -73 -10 -119l26 -53l23 -10l16 -43l103 -66q30 -6 35 -6q7 0 61 6q56 64 125 86h-27l4 23l23 -6q38 25 43 43l-10 6q36 58 90 123l-11 22l23 11zM1171 707 l-55 249h12v37l11 11v43q-16 7 -33 28l-6 90l6 13l-49 92l-4 -66l-6 -6l-21 -102q-42 -46 -76 -135l-16 -11q-39 -92 -43 -162l-17 -26q1 -5 1 -8q0 -39 -39 -107v-16l26 -15h23l22 11l15 -17q61 -4 98 -16l37 6l39 -16q20 5 38 5q8 0 15 -1v55l10 10q2 9 3 13q3 41 9 41z M1722 172h-12l6 -47l-10 -39h-6l-17 -53l-20 -6l-6 -17q-52 -27 -141 -27q-14 0 -43 1q-119 35 -189 178q-4 56 -16 86h-17q-38 92 -53 168l10 10l-4 39l-16 4v49l-23 -6v16q-44 19 -89 19q-12 0 -29 -2l-37 -21l-56 11l-43 26l-53 -20l-43 16l-22 -12l-2 -8l-9 -30l-12 -40 l-4 -14q-21 -36 -49 -103l12 -31l-33 -81l-22 -23l-4 -37q-19 -20 -33 -65l-55 -60l-60 -10l-10 -16l-16 -4l-17 -13h-26l-54 -26l-6 16l-37 -10l-39 10l-4 10l-16 -4l-72 21q-13 16 -51 28q-37 13 -45 20q-7 6 -55 42l-11 8l-43 102v70q28 52 39 125h11v10h16l37 70l49 22 l6 27q13 -6 27 -6q12 0 35 3q24 3 41 3q52 0 92 -23l47 -53l12 33l27 16l16 47l31 13l16 20q39 19 49 33h50l10 6l76 -27l49 11q3 32 33 99q27 62 27 103q0 1 -1 19q13 15 52 99q36 77 40 100l54 71l16 76l-6 31q11 27 11 41q0 3 -1 8q12 12 39 82q114 0 184 10 q11 -10 30 -10q12 0 30 4l4 -10h26v-11l-4 -6v-10q-18 -18 -43 -23l-12 -16l-16 -59l28 -60v-59q0 -24 -16 -64l33 -43v-16l4 4l10 -90l-10 -23l43 -79l-21 -39q0 -45 10 -66l-10 -47l27 -59l10 10l39 -10l119 20q17 8 60 42q43 35 46 50l13 -6l-13 -47l6 -22l11 -11v-10 l-27 -22l6 -21l-12 -12l-53 -21h-37q-29 -20 -49 -22q-9 14 -39 26h-54l-10 -4l-10 -12l14 -20q8 -29 17 -82l28 -48l-6 -28q40 -76 54 -156l26 -33l12 -4l5 -49q15 -17 59 -55l39 -10l43 16l26 27q13 28 13 83q0 17 -2 52l-17 16h-10q-25 -26 -33 -59l-26 -10l6 -43l16 -13 l10 17l11 -11v-16l-4 -4h-33q-21 5 -49 14q-7 42 -7 66q0 7 1 16h-11v23q11 36 17 47h10l6 16l43 27l49 6l37 -16v-37l23 -6l32 -54v-12zM1481 1896q-3 -16 -29 -57q-13 -11 -45 -16l-18 -15h-14l-7 -4h-8q-32 -36 -67 -51l-19 -27l-16 -8q0 -7 -23 -45l-26 -16l-15 -23v4 q-35 -29 -56 -29q-3 0 -9 1l-17 -19v-4h-20l-4 35l24 21l4 22q81 60 142 170l10 -4l8 8l6 -12l15 8l-4 14l22 17l-8 8l8 10v3l-1 2v2q-1 4 -1 6q0 1 1 5v2q1 3 1 5l45 39q60 -15 88 -15q5 0 13 2l-9 -10l25 -6z"/>
<glyph glyph-name="Acircumflex" horiz-adv-x="1804" unicode="" d="M729 557h-4q-23 0 -43 4q-28 6 -45 6q-13 0 -34 -5q-14 -3 -25 -5l-23 -22q-4 -25 -49 -70q-1 -10 -7 -34q-7 -22 -7 -38l-17 -26l-16 -123l-23 -33l-43 -10l-33 -23q-140 29 -151 141l6 54q35 29 43 49h6l4 16l17 4l16 -20l-10 -29l16 -31h-10v-28l-23 -10l-6 -17 l29 -53h10l6 -16l60 6l30 63l-20 103q-18 1 -49 32l6 23l-66 10q-71 -20 -90 -46q-20 -23 -45 -36v-10l-16 -33q0 -73 -10 -119l26 -53l23 -10l16 -43l103 -66q30 -6 35 -6q7 0 61 6q56 64 125 86h-27l4 23l23 -6q38 25 43 43l-10 6q36 58 90 123l-11 22l23 11zM1171 707 l-55 249h12v37l11 11v43q-16 7 -33 28l-6 90l6 13l-49 92l-4 -66l-6 -6l-21 -102q-42 -46 -76 -135l-16 -11q-39 -92 -43 -162l-17 -26q1 -5 1 -8q0 -39 -39 -107v-16l26 -15h23l22 11l15 -17q61 -4 98 -16l37 6l39 -16q20 5 38 5q8 0 15 -1v55l10 10q2 9 3 13q3 41 9 41z M1722 172h-12l6 -47l-10 -39h-6l-17 -53l-20 -6l-6 -17q-52 -27 -141 -27q-14 0 -43 1q-119 35 -189 178q-4 56 -16 86h-17q-38 92 -53 168l10 10l-4 39l-16 4v49l-23 -6v16q-44 19 -89 19q-12 0 -29 -2l-37 -21l-56 11l-43 26l-53 -20l-43 16l-22 -12l-2 -8l-9 -30l-12 -40 l-4 -14q-21 -36 -49 -103l12 -31l-33 -81l-22 -23l-4 -37q-19 -20 -33 -65l-55 -60l-60 -10l-10 -16l-16 -4l-17 -13h-26l-54 -26l-6 16l-37 -10l-39 10l-4 10l-16 -4l-72 21q-13 16 -51 28q-37 13 -45 20q-7 6 -55 42l-11 8l-43 102v70q28 52 39 125h11v10h16l37 70l49 22 l6 27q13 -6 27 -6q12 0 35 3q24 3 41 3q52 0 92 -23l47 -53l12 33l27 16l16 47l31 13l16 20q39 19 49 33h50l10 6l76 -27l49 11q3 32 33 99q27 62 27 103q0 1 -1 19q13 15 52 99q36 77 40 100l54 71l16 76l-6 31q11 27 11 41q0 3 -1 8q12 12 39 82q114 0 184 10 q11 -10 30 -10q12 0 30 4l4 -10h26v-11l-4 -6v-10q-18 -18 -43 -23l-12 -16l-16 -59l28 -60v-59q0 -24 -16 -64l33 -43v-16l4 4l10 -90l-10 -23l43 -79l-21 -39q0 -45 10 -66l-10 -47l27 -59l10 10l39 -10l119 20q17 8 60 42q43 35 46 50l13 -6l-13 -47l6 -22l11 -11v-10 l-27 -22l6 -21l-12 -12l-53 -21h-37q-29 -20 -49 -22q-9 14 -39 26h-54l-10 -4l-10 -12l14 -20q8 -29 17 -82l28 -48l-6 -28q40 -76 54 -156l26 -33l12 -4l5 -49q15 -17 59 -55l39 -10l43 16l26 27q13 28 13 83q0 17 -2 52l-17 16h-10q-25 -26 -33 -59l-26 -10l6 -43l16 -13 l10 17l11 -11v-16l-4 -4h-33q-21 5 -49 14q-7 42 -7 66q0 7 1 16h-11v23q11 36 17 47h10l6 16l43 27l49 6l37 -16v-37l23 -6l32 -54v-12zM1416 1485l-27 6l-4 10l-8 8h-15q-38 29 -98 121h-10l-4 10h-21l-18 25v20l-6 -6l-9 10l-16 4l-29 54l-18 12l-6 -6l-8 6 q-26 -11 -93 -94l-14 4q-29 -18 -51 -29l-8 -24l8 -4q-74 -37 -107 -103l-32 -18v4h-11l11 20v15q18 14 35 61q16 41 28 49q4 3 43 39q2 2 5 7q11 15 20 28q14 8 59 57l19 6q35 25 49 48v20l71 59q69 -74 107 -196l14 6v-14l10 4l15 -29h14q66 -58 105 -190z"/>
<glyph glyph-name="Atilde" horiz-adv-x="1804" unicode="" d="M729 557h-4q-23 0 -43 4q-28 6 -45 6q-13 0 -34 -5q-14 -3 -25 -5l-23 -22q-4 -25 -49 -70q-1 -10 -7 -34q-7 -22 -7 -38l-17 -26l-16 -123l-23 -33l-43 -10l-33 -23q-140 29 -151 141l6 54q35 29 43 49h6l4 16l17 4l16 -20l-10 -29l16 -31h-10v-28l-23 -10l-6 -17 l29 -53h10l6 -16l60 6l30 63l-20 103q-18 1 -49 32l6 23l-66 10q-71 -20 -90 -46q-20 -23 -45 -36v-10l-16 -33q0 -73 -10 -119l26 -53l23 -10l16 -43l103 -66q30 -6 35 -6q7 0 61 6q56 64 125 86h-27l4 23l23 -6q38 25 43 43l-10 6q36 58 90 123l-11 22l23 11zM1171 707 l-55 249h12v37l11 11v43q-16 7 -33 28l-6 90l6 13l-49 92l-4 -66l-6 -6l-21 -102q-42 -46 -76 -135l-16 -11q-39 -92 -43 -162l-17 -26q1 -5 1 -8q0 -39 -39 -107v-16l26 -15h23l22 11l15 -17q61 -4 98 -16l37 6l39 -16q20 5 38 5q8 0 15 -1v55l10 10q2 9 3 13q3 41 9 41z M1722 172h-12l6 -47l-10 -39h-6l-17 -53l-20 -6l-6 -17q-52 -27 -141 -27q-14 0 -43 1q-119 35 -189 178q-4 56 -16 86h-17q-38 92 -53 168l10 10l-4 39l-16 4v49l-23 -6v16q-44 19 -89 19q-12 0 -29 -2l-37 -21l-56 11l-43 26l-53 -20l-43 16l-22 -12l-2 -8l-9 -30l-12 -40 l-4 -14q-21 -36 -49 -103l12 -31l-33 -81l-22 -23l-4 -37q-19 -20 -33 -65l-55 -60l-60 -10l-10 -16l-16 -4l-17 -13h-26l-54 -26l-6 16l-37 -10l-39 10l-4 10l-16 -4l-72 21q-13 16 -51 28q-37 13 -45 20q-7 6 -55 42l-11 8l-43 102v70q28 52 39 125h11v10h16l37 70l49 22 l6 27q13 -6 27 -6q12 0 35 3q24 3 41 3q52 0 92 -23l47 -53l12 33l27 16l16 47l31 13l16 20q39 19 49 33h50l10 6l76 -27l49 11q3 32 33 99q27 62 27 103q0 1 -1 19q13 15 52 99q36 77 40 100l54 71l16 76l-6 31q11 27 11 41q0 3 -1 8q12 12 39 82q114 0 184 10 q11 -10 30 -10q12 0 30 4l4 -10h26v-11l-4 -6v-10q-18 -18 -43 -23l-12 -16l-16 -59l28 -60v-59q0 -24 -16 -64l33 -43v-16l4 4l10 -90l-10 -23l43 -79l-21 -39q0 -45 10 -66l-10 -47l27 -59l10 10l39 -10l119 20q17 8 60 42q43 35 46 50l13 -6l-13 -47l6 -22l11 -11v-10 l-27 -22l6 -21l-12 -12l-53 -21h-37q-29 -20 -49 -22q-9 14 -39 26h-54l-10 -4l-10 -12l14 -20q8 -29 17 -82l28 -48l-6 -28q40 -76 54 -156l26 -33l12 -4l5 -49q15 -17 59 -55l39 -10l43 16l26 27q13 28 13 83q0 17 -2 52l-17 16h-10q-25 -26 -33 -59l-26 -10l6 -43l16 -13 l10 17l11 -11v-16l-4 -4h-33q-21 5 -49 14q-7 42 -7 66q0 7 1 16h-11v23q11 36 17 47h10l6 16l43 27l49 6l37 -16v-37l23 -6l32 -54v-12zM1444 1813l-2 -8l-19 -15v-24h-6l-6 -25h-8l-4 -24l8 -19l-8 -17h-17l-16 7l-21 -25l5 -4l-13 -6l-4 -12l-29 -6l-59 14v-14 q-58 17 -102 45l-4 18q-22 22 -33 43h-17l-8 -14q-18 14 -37 14l-18 19q-21 -10 -37 -9l-27 -24v-10l-20 -19v-10l-25 -8q-12 -21 -30 -119q-26 31 -37 35l-8 24q5 44 14 79q16 57 35 73l16 14l10 25l50 33l57 4l12 -4v-11q13 -8 33 -8q7 0 16 2q20 -18 56 -30q9 -3 41 -15 l6 -2q11 -9 33 -24h12v-19l22 -16l6 12l17 -12l22 -4l4 24l-8 15q43 -1 49 4q19 28 58 59l-8 8l4 31z"/>
<glyph glyph-name="Adieresis" horiz-adv-x="1804" unicode="" d="M729 557h-4q-23 0 -43 4q-28 6 -45 6q-13 0 -34 -5q-14 -3 -25 -5l-23 -22q-4 -25 -49 -70q-1 -10 -7 -34q-7 -22 -7 -38l-17 -26l-16 -123l-23 -33l-43 -10l-33 -23q-140 29 -151 141l6 54q35 29 43 49h6l4 16l17 4l16 -20l-10 -29l16 -31h-10v-28l-23 -10l-6 -17 l29 -53h10l6 -16l60 6l30 63l-20 103q-18 1 -49 32l6 23l-66 10q-71 -20 -90 -46q-20 -23 -45 -36v-10l-16 -33q0 -73 -10 -119l26 -53l23 -10l16 -43l103 -66q30 -6 35 -6q7 0 61 6q56 64 125 86h-27l4 23l23 -6q38 25 43 43l-10 6q36 58 90 123l-11 22l23 11zM1171 707 l-55 249h12v37l11 11v43q-16 7 -33 28l-6 90l6 13l-49 92l-4 -66l-6 -6l-21 -102q-42 -46 -76 -135l-16 -11q-39 -92 -43 -162l-17 -26q1 -5 1 -8q0 -39 -39 -107v-16l26 -15h23l22 11l15 -17q61 -4 98 -16l37 6l39 -16q20 5 38 5q8 0 15 -1v55l10 10q2 9 3 13q3 41 9 41z M1722 172h-12l6 -47l-10 -39h-6l-17 -53l-20 -6l-6 -17q-52 -27 -141 -27q-14 0 -43 1q-119 35 -189 178q-4 56 -16 86h-17q-38 92 -53 168l10 10l-4 39l-16 4v49l-23 -6v16q-44 19 -89 19q-12 0 -29 -2l-37 -21l-56 11l-43 26l-53 -20l-43 16l-22 -12l-2 -8l-9 -30l-12 -40 l-4 -14q-21 -36 -49 -103l12 -31l-33 -81l-22 -23l-4 -37q-19 -20 -33 -65l-55 -60l-60 -10l-10 -16l-16 -4l-17 -13h-26l-54 -26l-6 16l-37 -10l-39 10l-4 10l-16 -4l-72 21q-13 16 -51 28q-37 13 -45 20q-7 6 -55 42l-11 8l-43 102v70q28 52 39 125h11v10h16l37 70l49 22 l6 27q13 -6 27 -6q12 0 35 3q24 3 41 3q52 0 92 -23l47 -53l12 33l27 16l16 47l31 13l16 20q39 19 49 33h50l10 6l76 -27l49 11q3 32 33 99q27 62 27 103q0 1 -1 19q13 15 52 99q36 77 40 100l54 71l16 76l-6 31q11 27 11 41q0 3 -1 8q12 12 39 82q114 0 184 10 q11 -10 30 -10q12 0 30 4l4 -10h26v-11l-4 -6v-10q-18 -18 -43 -23l-12 -16l-16 -59l28 -60v-59q0 -24 -16 -64l33 -43v-16l4 4l10 -90l-10 -23l43 -79l-21 -39q0 -45 10 -66l-10 -47l27 -59l10 10l39 -10l119 20q17 8 60 42q43 35 46 50l13 -6l-13 -47l6 -22l11 -11v-10 l-27 -22l6 -21l-12 -12l-53 -21h-37q-29 -20 -49 -22q-9 14 -39 26h-54l-10 -4l-10 -12l14 -20q8 -29 17 -82l28 -48l-6 -28q40 -76 54 -156l26 -33l12 -4l5 -49q15 -17 59 -55l39 -10l43 16l26 27q13 28 13 83q0 17 -2 52l-17 16h-10q-25 -26 -33 -59l-26 -10l6 -43l16 -13 l10 17l11 -11v-16l-4 -4h-33q-21 5 -49 14q-7 42 -7 66q0 7 1 16h-11v23q11 36 17 47h10l6 16l43 27l49 6l37 -16v-37l23 -6l32 -54v-12zM1052 1673l-16 -43l12 -16l-27 -33l-75 20l-49 66v33l-7 10q12 16 17 39h76q26 0 43 -17l26 -39v-20zM1388 1683q-1 -3 -18 -58l-4 -11 l-21 -7l-39 17v-6l-63 28l-29 43v27l29 20l4 13l6 4h27q16 0 81 -10l5 -11l22 -16v-33z"/>
<glyph glyph-name="Aring" horiz-adv-x="1804" unicode="" d="M729 557h-4q-23 0 -43 4q-28 6 -45 6q-13 0 -34 -5q-14 -3 -25 -5l-23 -22q-4 -25 -49 -70q-1 -10 -7 -34q-7 -22 -7 -38l-17 -26l-16 -123l-23 -33l-43 -10l-33 -23q-140 29 -151 141l6 54q35 29 43 49h6l4 16l17 4l16 -20l-10 -29l16 -31h-10v-28l-23 -10l-6 -17 l29 -53h10l6 -16l60 6l30 63l-20 103q-18 1 -49 32l6 23l-66 10q-71 -20 -90 -46q-20 -23 -45 -36v-10l-16 -33q0 -73 -10 -119l26 -53l23 -10l16 -43l103 -66q30 -6 35 -6q7 0 61 6q56 64 125 86h-27l4 23l23 -6q38 25 43 43l-10 6q36 58 90 123l-11 22l23 11zM1171 707 l-55 249h12v37l11 11v43q-16 7 -33 28l-6 90l6 13l-49 92l-4 -66l-6 -6l-21 -102q-42 -46 -76 -135l-16 -11q-39 -92 -43 -162l-17 -26q1 -5 1 -8q0 -39 -39 -107v-16l26 -15h23l22 11l15 -17q61 -4 98 -16l37 6l39 -16q20 5 38 5q8 0 15 -1v55l10 10q2 9 3 13q3 41 9 41z M1722 172h-12l6 -47l-10 -39h-6l-17 -53l-20 -6l-6 -17q-52 -27 -141 -27q-14 0 -43 1q-119 35 -189 178q-4 56 -16 86h-17q-38 92 -53 168l10 10l-4 39l-16 4v49l-23 -6v16q-44 19 -89 19q-12 0 -29 -2l-37 -21l-56 11l-43 26l-53 -20l-43 16l-22 -12l-2 -8l-9 -30l-12 -40 l-4 -14q-21 -36 -49 -103l12 -31l-33 -81l-22 -23l-4 -37q-19 -20 -33 -65l-55 -60l-60 -10l-10 -16l-16 -4l-17 -13h-26l-54 -26l-6 16l-37 -10l-39 10l-4 10l-16 -4l-72 21q-13 16 -51 28q-37 13 -45 20q-7 6 -55 42l-11 8l-43 102v70q28 52 39 125h11v10h16l37 70l49 22 l6 27q13 -6 27 -6q12 0 35 3q24 3 41 3q52 0 92 -23l47 -53l12 33l27 16l16 47l31 13l16 20q39 19 49 33h50l10 6l76 -27l49 11q3 32 33 99q27 62 27 103q0 1 -1 19q13 15 52 99q36 77 40 100l54 71l16 76l-6 31q11 27 11 41q0 3 -1 8q12 12 39 82q114 0 184 10 q11 -10 30 -10q12 0 30 4l4 -10h26v-11l-4 -6v-10q-18 -18 -43 -23l-12 -16l-16 -59l28 -60v-59q0 -24 -16 -64l33 -43v-16l4 4l10 -90l-10 -23l43 -79l-21 -39q0 -45 10 -66l-10 -47l27 -59l10 10l39 -10l119 20q17 8 60 42q43 35 46 50l13 -6l-13 -47l6 -22l11 -11v-10 l-27 -22l6 -21l-12 -12l-53 -21h-37q-29 -20 -49 -22q-9 14 -39 26h-54l-10 -4l-10 -12l14 -20q8 -29 17 -82l28 -48l-6 -28q40 -76 54 -156l26 -33l12 -4l5 -49q15 -17 59 -55l39 -10l43 16l26 27q13 28 13 83q0 17 -2 52l-17 16h-10q-25 -26 -33 -59l-26 -10l6 -43l16 -13 l10 17l11 -11v-16l-4 -4h-33q-21 5 -49 14q-7 42 -7 66q0 7 1 16h-11v23q11 36 17 47h10l6 16l43 27l49 6l37 -16v-37l23 -6l32 -54v-12zM1255 1753l-26 41q-5 17 -5 31q0 12 5 24q-13 14 -29 58l-31 24v-1v-2q0 -8 4 -40l-20 4l-18 -4q-6 -18 -7 -25v-1l-8 -3l-12 -18v-14 l-27 -51l6 -17l-14 -43q7 -22 14 -61l33 -23v-10l8 -6l7 -13h8l18 -26l17 4q3 6 6 11l5 10l1 1l12 9l19 43l8 8l18 43l-4 6zM1325 1741q-12 -95 -61 -168l-35 -25l-8 -18l-19 -4q-45 16 -76 16q-42 20 -73 66l-19 8l-28 35l-7 34l-34 21l-9 53l19 8q5 11 5 23q0 13 -5 29 l8 34h4q15 44 47 90l45 27v-4l21 16l18 6l2 -10l15 -4l8 -8h12l18 -16l29 -8h14q5 -3 10 -8q1 -2 42 -38l8 -28l41 -49v-25l-15 -31z"/>
<glyph glyph-name="AE" horiz-adv-x="2234" unicode="" d="M1307 836q-30 66 -30 189v16q0 120 -3 135q-24 -20 -49 -23q-7 -47 -48 -112q-49 -73 -87 -83q-44 -51 -76 -75l-10 -21l-37 -22l-33 -60l4 -43l-10 -10v-16l-33 -49l49 6l23 -17q18 1 39 1q37 0 94 -4q101 -7 127 -7q15 0 37 4l-15 33l19 49l-4 66l36 14zM2132 170 l-53 -162l-29 -8l-25 -27q-36 3 -138 15q-59 -27 -99 -27h-3q-19 14 -134 14l-27 -26l-10 -4q-26 5 -30 4l-81 12q-25 -3 -47 -6l-20 -16l-50 6v-6h-59h-4q-21 0 -58 8q-17 3 -35 3q-5 0 -11 -1q7 68 38 119q-6 19 -22 184v1l1 5l2 6q0 2 1 3q2 9 2 12l27 38v48l-21 38v27 l-16 16l26 86l-32 17l-11 16q-52 5 -75 27q-28 -10 -76 -10q-10 0 -24 6q-7 3 -12 4h-1q-9 -1 -12 -1q-29 0 -63 8q-14 3 -25 3q-59 0 -107 -18l-47 -68q-34 -23 -49 -27q-14 -35 -27 -43v-10q-27 -130 -32 -130q-84 -140 -128 -185q-7 -8 -9 -11l-1 -1q-1 -2 -4 -9l-17 -6 l-27 -47l-20 -12l-13 6l-36 -27v-6l-27 -10v-10h-33q-79 -39 -134 -49q-128 46 -199 141l-16 47q-1 13 -1 19q0 39 21 79q39 33 93 103l43 10l39 -10l14 -17l29 -10v-16l26 4l16 -64h10v-43l-26 -16v-27l-16 -6l-17 6l-32 -33l-21 -6q-23 7 -39 39l-4 21h10l21 -27l33 33 l22 4l10 12q-23 17 -49 60h-20l-23 16q-40 -33 -58 -33h-1l-17 -59q0 -72 66 -135l49 -17l70 11q54 25 79 59l22 -4l37 14q37 61 45 109l47 39q21 73 126 182l10 39l50 43l16 37l-6 16l69 27l-53 6l-6 16q-26 3 -59 6q-7 0 -37 -6q-80 27 -180 27q-49 0 -134 -35 q-25 -10 -36 -18l-33 -56l16 -20l43 -23l59 17l-7 32l33 27h33l10 -27l-6 -53l-70 -55q-22 -4 -31 -4t-27 4v6l-43 -10l-16 10l-4 -6l-29 16q-12 37 -12 63q0 8 2 19l-21 43l47 92l60 21l6 10q13 -2 21 -2q30 0 64 14v5l151 -5l17 -22l10 1q34 5 41 5q13 0 50 -9 q29 -8 45 -7q34 0 113 -6l16 12l6 31l21 22h12v-16l21 10q11 24 43 72l-11 20q29 70 99 125h4l22 16v21l33 39q31 5 119 112l10 43l-10 17q31 52 63 69q30 37 70 142l22 16l17 -6q23 -37 53 -43l23 10l10 -16q231 -32 423 -32q49 0 95 5l-4 -10l31 6v14q32 8 88 13l4 -6 l26 16v-16l-26 -17l10 -10l6 -16l-10 -11l4 -16l-14 -23l-13 -4v-16q9 -32 13 -39l-13 -16l13 -17l4 -63l-10 -17l6 -22l-13 -4l-16 10l-10 59l-10 7l-7 20q-23 9 -93 43q-16 12 -28 22q-54 45 -95 50l17 -33l-66 -27l-85 4v11l-10 6l-39 -17l-76 27l-53 -10 q-15 -66 -27 -80l11 -23l-9 -53l-18 -16l-27 -6q5 -45 37 -109v-53q0 -9 -3 -27q-3 -17 -3 -26q5 -99 6 -125l11 -17l6 -37l26 21q29 -12 67 -12q12 0 32 2l26 10l37 -4l16 -12l59 -5l39 17q17 -2 30 -2q27 0 50 6q49 27 65 65l38 11q-58 47 -103 108h-54l-26 -39l20 -30 l53 -33l7 -23l-21 -4v-12l-59 6l-29 16l-16 60l12 76l16 26l37 17l17 -11l53 4l29 -20v-16h-13l17 -23l26 -4l-10 10l10 10l57 -36l16 -43q-7 -84 -33 -115l-27 -16l-7 6q-46 -40 -92 -60l-53 10l-55 -16q-14 1 -52 8q-46 8 -75 8q-17 0 -44 -4l-21 -12l-92 -4l-16 -33 q4 -18 4 -24q0 -19 -11 -68l17 -76l22 -6l-12 -90l-16 -12q1 -19 1 -28q0 -46 -12 -75l-10 -10l-16 6l10 -32l16 -17l7 -92q31 2 101 6h1q22 0 59 -12q13 5 70 16q70 -1 108 -20l10 26l59 -10l17 16l142 5q46 40 76 49l14 76l-53 86l-49 16l-55 -10q-34 -21 -43 -49l7 -54 l14 -16l34 10l6 37l37 16l32 -16l11 -47l-21 -39h-16v-10l-23 -33l-31 -4l-23 14l-6 12l-14 5l-29 55l-10 86l16 59l33 33l97 27l72 -11l37 -32h6l37 -56v-36l-7 -17z"/>
<glyph glyph-name="Ccedilla" horiz-adv-x="1126" unicode="" d="M1055 1151q-12 -53 -11 -72q-27 -21 -43 -75l-55 -43v-5l-86 -16l-43 10q-55 45 -86 86l-6 60l10 26l56 29h36q28 -27 50 -33l10 -26l-47 10l-33 -6l-16 -17v-32l59 -48h16l64 21l28 27l31 71q-1 71 -112 182l-82 29q-29 -6 -37 -6q-7 0 -37 6l-12 -22q-33 -2 -83 -18 q-57 -18 -79 -19l-53 -33l-33 -72q-23 -11 -45 -11q-5 0 -15 1l-32 -37q-6 -38 -48 -93q-29 -41 -38 -64v-4v-5q-1 -36 -23 -153l-10 -17v-43l10 6l6 -16h-6l6 -10l10 -66h-4q-5 -55 -6 -178l-16 -22l-4 -15l10 -55l33 -49l4 -43l55 -103q7 -8 22 -25t31 -34q21 -12 54 -47 v-12l88 -33q196 1 248 65l4 -6l28 -4l47 37l7 23l-7 36l33 50l10 -11l13 17l4 43l-10 37l-11 6l-6 -6l-10 75l-33 7l-37 -13l-16 6l-6 -10l-17 4l-4 -10h-16v-5q0 -22 -6 -54l6 -17l10 -10v-33l43 -10l6 -16h-22l-21 -11h-28l-37 21l-33 82l16 86q30 41 54 49l59 4l12 -4 l4 10l86 -26l29 -39l10 -4l21 -23q4 -54 16 -80l-10 -43l6 -12q-20 -58 -22 -92l-11 12q-26 -33 -43 -76l-43 -39l-108 -30l-17 -13q-40 -7 -125 -10l-26 -27l-4 -32l-23 -11q-43 -37 -49 -71q64 -21 135 -27q11 -23 76 -59l27 -76q-12 -47 -12 -69q0 -3 1 -11h-10l-33 -49 h-10l-12 -6l-21 6v-17l-22 -10l-4 6l-56 -22q-58 14 -106 43l-39 49l10 59q25 25 45 33l21 -6l10 6l39 -33l-10 -32h-33l-6 16l-37 -16l10 -37l70 -17l22 17l27 4l20 22l-10 11l10 6q-4 22 -10 37l17 6v16l26 -22h17v26l-21 49h-16l-6 23l-33 -6q-24 12 -76 12q-21 0 -47 -2 l-16 -10l-17 26l10 23l-6 4q30 99 88 162q-34 7 -65 7q-10 0 -23 -1l-14 16l-12 -6l-119 60l-10 39q-20 15 -50 47l-47 12q-61 109 -63 124q-6 25 -8 62q-1 33 -3 46q-1 3 -1 6q-9 21 -23 75q-4 173 -10 200q-6 29 -6 44q0 72 32 148q14 34 33 55l17 71q69 136 161 179 q23 44 76 118q51 33 88 33h8l66 47q13 2 17 3q51 10 62 10h1q155 -2 216 -29q119 -52 170 -128q25 -35 30 -77z"/>
<glyph glyph-name="Egrave" horiz-adv-x="1001" unicode="" d="M915 215l-36 -53l-13 -53l-37 -50l-22 7q-18 -11 -27 -33l-63 -43l-33 26l-22 -22l-27 -10h-21l-39 -27l-65 18l-14 -12q-50 14 -70 14h-6q-81 63 -158 89l-16 16l-33 4q-30 30 -86 92q-14 37 -53 103l6 26l-6 23l6 26q-14 30 -14 73q0 13 2 24l12 22l-6 10q16 48 69 97 l17 55q67 46 98 82q44 22 70 26l4 17l39 10q-92 92 -119 146l-16 10q-5 33 -27 55q-6 55 -6 59q0 7 6 37l16 17l-12 55l29 27l4 36q36 27 55 76l16 6l31 27l39 4q68 39 73 41q37 16 85 16q127 0 166 -18q110 -68 135 -135l-17 -43q15 -87 17 -87v1q0 -6 -6 -43l6 -23 l-17 -59q-59 -72 -200 -119l-70 27l-20 28q-53 25 -76 60q-37 79 -39 112q11 75 65 129l66 33h31q65 0 108 -33l-10 -4l10 -16l-16 -29l33 -47v-39l-23 -26l-4 -21l-49 -39l-10 6l-17 43l49 37q5 25 5 39q0 2 -2.5 10.5t-2.5 10.5q-30 12 -39 26l-4 -4l-16 10l-33 -6 q-25 -16 -69 -86l-7 -32q11 -52 52.5 -89t93.5 -40l65 16q44 32 80 86h6q16 99 17 93q-1 9 -6 81q-4 10 -140 100q-36 6 -39 6q6 0 -151 -20q-85 -71 -107 -135q-3 -18 -12 -53q-8 -18 -20 -60q4 -74 26 -125l11 -6l-5 -33l11 -4q27 -48 75 -76h17l10 -6l27 -4l32 -22l-6 22 h13l16 -22v-17l14 -10v-59l-14 -23q-18 -7 -33 -4q-28 23 -55 27l-43 -17l-33 6l-20 -28l-60 -37l-32 -86l-50 -55l-16 -43l6 -21q-12 -35 -12 -72q0 -15 2 -30q21 -45 27 -86l16 -17l16 -39q114 -113 215 -129l23 7l37 -17l22 10h27l82 37l10 39l59 27l21 26l6 39h6 q37 64 37 166q0 8 -6 26t-4 30l-17 20l-38 -4q-53 -30 -60 -49l-14 -6l-17 -27v-16l11 -5l-6 -6l16 -26l33 4l10 22v21h6l10 33l39 12l10 -12l-22 -70l-37 -37l-49 -6l-33 37l-16 6q-11 37 -37 59l10 54q17 27 54 49q52 31 61 39h59q2 0 15.5 -3t15.5 -3l33 -27l59 -115v-26 l16 -27v-82zM711 1577l-4 -15l-35 10q-22 24 -57 58q-32 20 -88 67q-18 29 -54 78q-34 27 -92 80l6 19l15 8l-6 20l20 21h66l55 -25q19 -30 18 -49l-8 -4l8 -17l31 -22l8 -31q26 -16 45 -41l-6 -30q36 -19 60 -54v-24l10 -23v-12z"/>
<glyph glyph-name="Eacute" horiz-adv-x="1001" unicode="" d="M915 215l-36 -53l-13 -53l-37 -50l-22 7q-18 -11 -27 -33l-63 -43l-33 26l-22 -22l-27 -10h-21l-39 -27l-65 18l-14 -12q-50 14 -70 14h-6q-81 63 -158 89l-16 16l-33 4q-30 30 -86 92q-14 37 -53 103l6 26l-6 23l6 26q-14 30 -14 73q0 13 2 24l12 22l-6 10q16 48 69 97 l17 55q67 46 98 82q44 22 70 26l4 17l39 10q-92 92 -119 146l-16 10q-5 33 -27 55q-6 55 -6 59q0 7 6 37l16 17l-12 55l29 27l4 36q36 27 55 76l16 6l31 27l39 4q68 39 73 41q37 16 85 16q127 0 166 -18q110 -68 135 -135l-17 -43q15 -87 17 -87v1q0 -6 -6 -43l6 -23 l-17 -59q-59 -72 -200 -119l-70 27l-20 28q-53 25 -76 60q-37 79 -39 112q11 75 65 129l66 33h31q65 0 108 -33l-10 -4l10 -16l-16 -29l33 -47v-39l-23 -26l-4 -21l-49 -39l-10 6l-17 43l49 37q5 25 5 39q0 2 -2.5 10.5t-2.5 10.5q-30 12 -39 26l-4 -4l-16 10l-33 -6 q-25 -16 -69 -86l-7 -32q11 -52 52.5 -89t93.5 -40l65 16q44 32 80 86h6q16 99 17 93q-1 9 -6 81q-4 10 -140 100q-36 6 -39 6q6 0 -151 -20q-85 -71 -107 -135q-3 -18 -12 -53q-8 -18 -20 -60q4 -74 26 -125l11 -6l-5 -33l11 -4q27 -48 75 -76h17l10 -6l27 -4l32 -22l-6 22 h13l16 -22v-17l14 -10v-59l-14 -23q-18 -7 -33 -4q-28 23 -55 27l-43 -17l-33 6l-20 -28l-60 -37l-32 -86l-50 -55l-16 -43l6 -21q-12 -35 -12 -72q0 -15 2 -30q21 -45 27 -86l16 -17l16 -39q114 -113 215 -129l23 7l37 -17l22 10h27l82 37l10 39l59 27l21 26l6 39h6 q37 64 37 166q0 8 -6 26t-4 30l-17 20l-38 -4q-53 -30 -60 -49l-14 -6l-17 -27v-16l11 -5l-6 -6l16 -26l33 4l10 22v21h6l10 33l39 12l10 -12l-22 -70l-37 -37l-49 -6l-33 37l-16 6q-11 37 -37 59l10 54q17 27 54 49q52 31 61 39h59q2 0 15.5 -3t15.5 -3l33 -27l59 -115v-26 l16 -27v-82zM907 1896q-3 -16 -29 -57q-13 -11 -45 -16l-18 -15h-14l-7 -4h-8q-32 -36 -67 -51l-19 -27l-16 -8q0 -7 -23 -45l-26 -16l-15 -23v4q-35 -29 -56 -29q-3 0 -9 1l-17 -19v-4h-20l-4 35l24 21l4 22q81 60 142 170l10 -4l8 8l6 -12l15 8l-4 14l22 17l-8 8l8 10v3 l-1 2v2q-1 4 -1 6q0 1 1 5v2q1 3 1 5l45 39q60 -15 88 -15q5 0 13 2l-9 -10l25 -6z"/>
<glyph glyph-name="Ecircumflex" horiz-adv-x="1001" unicode="" d="M915 215l-36 -53l-13 -53l-37 -50l-22 7q-18 -11 -27 -33l-63 -43l-33 26l-22 -22l-27 -10h-21l-39 -27l-65 18l-14 -12q-50 14 -70 14h-6q-81 63 -158 89l-16 16l-33 4q-30 30 -86 92q-14 37 -53 103l6 26l-6 23l6 26q-14 30 -14 73q0 13 2 24l12 22l-6 10q16 48 69 97 l17 55q67 46 98 82q44 22 70 26l4 17l39 10q-92 92 -119 146l-16 10q-5 33 -27 55q-6 55 -6 59q0 7 6 37l16 17l-12 55l29 27l4 36q36 27 55 76l16 6l31 27l39 4q68 39 73 41q37 16 85 16q127 0 166 -18q110 -68 135 -135l-17 -43q15 -87 17 -87v1q0 -6 -6 -43l6 -23 l-17 -59q-59 -72 -200 -119l-70 27l-20 28q-53 25 -76 60q-37 79 -39 112q11 75 65 129l66 33h31q65 0 108 -33l-10 -4l10 -16l-16 -29l33 -47v-39l-23 -26l-4 -21l-49 -39l-10 6l-17 43l49 37q5 25 5 39q0 2 -2.5 10.5t-2.5 10.5q-30 12 -39 26l-4 -4l-16 10l-33 -6 q-25 -16 -69 -86l-7 -32q11 -52 52.5 -89t93.5 -40l65 16q44 32 80 86h6q16 99 17 93q-1 9 -6 81q-4 10 -140 100q-36 6 -39 6q6 0 -151 -20q-85 -71 -107 -135q-3 -18 -12 -53q-8 -18 -20 -60q4 -74 26 -125l11 -6l-5 -33l11 -4q27 -48 75 -76h17l10 -6l27 -4l32 -22l-6 22 h13l16 -22v-17l14 -10v-59l-14 -23q-18 -7 -33 -4q-28 23 -55 27l-43 -17l-33 6l-20 -28l-60 -37l-32 -86l-50 -55l-16 -43l6 -21q-12 -35 -12 -72q0 -15 2 -30q21 -45 27 -86l16 -17l16 -39q114 -113 215 -129l23 7l37 -17l22 10h27l82 37l10 39l59 27l21 26l6 39h6 q37 64 37 166q0 8 -6 26t-4 30l-17 20l-38 -4q-53 -30 -60 -49l-14 -6l-17 -27v-16l11 -5l-6 -6l16 -26l33 4l10 22v21h6l10 33l39 12l10 -12l-22 -70l-37 -37l-49 -6l-33 37l-16 6q-11 37 -37 59l10 54q17 27 54 49q52 31 61 39h59q2 0 15.5 -3t15.5 -3l33 -27l59 -115v-26 l16 -27v-82zM856 1485l-27 6l-4 10l-8 8h-15q-38 29 -98 121h-10l-4 10h-21l-18 25v20l-6 -6l-9 10l-16 4l-29 54l-18 12l-6 -6l-8 6q-26 -11 -93 -94l-14 4q-29 -18 -51 -29l-8 -24l8 -4q-74 -37 -107 -103l-32 -18v4h-11l11 20v15q18 14 35 61q16 41 28 49q4 3 43 39 q2 2 5 7q11 15 20 28q14 8 59 57l19 6q35 25 49 48v20l71 59q69 -74 107 -196l14 6v-14l10 4l15 -29h14q66 -58 105 -190z"/>
<glyph glyph-name="Edieresis" horiz-adv-x="1001" unicode="" d="M915 215l-36 -53l-13 -53l-37 -50l-22 7q-18 -11 -27 -33l-63 -43l-33 26l-22 -22l-27 -10h-21l-39 -27l-65 18l-14 -12q-50 14 -70 14h-6q-81 63 -158 89l-16 16l-33 4q-30 30 -86 92q-14 37 -53 103l6 26l-6 23l6 26q-14 30 -14 73q0 13 2 24l12 22l-6 10q16 48 69 97 l17 55q67 46 98 82q44 22 70 26l4 17l39 10q-92 92 -119 146l-16 10q-5 33 -27 55q-6 55 -6 59q0 7 6 37l16 17l-12 55l29 27l4 36q36 27 55 76l16 6l31 27l39 4q68 39 73 41q37 16 85 16q127 0 166 -18q110 -68 135 -135l-17 -43q15 -87 17 -87v1q0 -6 -6 -43l6 -23 l-17 -59q-59 -72 -200 -119l-70 27l-20 28q-53 25 -76 60q-37 79 -39 112q11 75 65 129l66 33h31q65 0 108 -33l-10 -4l10 -16l-16 -29l33 -47v-39l-23 -26l-4 -21l-49 -39l-10 6l-17 43l49 37q5 25 5 39q0 2 -2.5 10.5t-2.5 10.5q-30 12 -39 26l-4 -4l-16 10l-33 -6 q-25 -16 -69 -86l-7 -32q11 -52 52.5 -89t93.5 -40l65 16q44 32 80 86h6q16 99 17 93q-1 9 -6 81q-4 10 -140 100q-36 6 -39 6q6 0 -151 -20q-85 -71 -107 -135q-3 -18 -12 -53q-8 -18 -20 -60q4 -74 26 -125l11 -6l-5 -33l11 -4q27 -48 75 -76h17l10 -6l27 -4l32 -22l-6 22 h13l16 -22v-17l14 -10v-59l-14 -23q-18 -7 -33 -4q-28 23 -55 27l-43 -17l-33 6l-20 -28l-60 -37l-32 -86l-50 -55l-16 -43l6 -21q-12 -35 -12 -72q0 -15 2 -30q21 -45 27 -86l16 -17l16 -39q114 -113 215 -129l23 7l37 -17l22 10h27l82 37l10 39l59 27l21 26l6 39h6 q37 64 37 166q0 8 -6 26t-4 30l-17 20l-38 -4q-53 -30 -60 -49l-14 -6l-17 -27v-16l11 -5l-6 -6l16 -26l33 4l10 22v21h6l10 33l39 12l10 -12l-22 -70l-37 -37l-49 -6l-33 37l-16 6q-11 37 -37 59l10 54q17 27 54 49q52 31 61 39h59q2 0 15.5 -3t15.5 -3l33 -27l59 -115v-26 l16 -27v-82zM481 1673l-16 -43l12 -16l-27 -33l-75 20l-49 66v33l-7 10q12 16 17 39h76q26 0 43 -17l26 -39v-20zM817 1683q-1 -3 -18 -58l-4 -11l-21 -7l-39 17v-6l-63 28l-29 43v27l29 20l4 13l6 4h27q16 0 81 -10l5 -11l22 -16v-33z"/>
<glyph glyph-name="Igrave" horiz-adv-x="897" unicode="" d="M743 1286l-22 6l-23 -49l-10 17q-30 -36 -78 -128q-44 -86 -78 -120q0 -30 -26 -66l4 -26q-9 -28 -37 -76l4 -39l-37 -47q-6 -40 -6 -65v-11l-10 -16q4 -60 27 -97l43 -26q8 -46 26 -70v-27q47 -51 96 -63l-4 45q18 37 18 103v20v26q0 68 9 99l-10 10h-17q6 31 6 33 l-6 55q13 17 22 52q11 42 17 55l-6 49q10 18 27 108q18 20 39 91t21 111q0 8 -1 13zM877 1458l-5 -20q-13 -12 -30 -95q-14 -67 -14 -98q0 -7 1 -12l-16 -33h-10l-17 -82h-6q-6 -49 -6 -53v-188l6 -17h-6v-10h17l22 -16q-13 -28 -43 -66q-8 -48 -33 -76l17 -20 q-17 -66 -17 -119l6 -55l-12 -49l-10 -5l10 -10l-16 -88l49 8l-6 17l33 43l-27 59v6l22 4l11 -16l20 -4l12 -27l-26 -71l10 -11q-39 -39 -102 -53l-6 -186l-17 6l-37 -109l-65 -65l-11 -4l11 -17q-57 -4 -92 -32l-5 -23h-22v23l-10 10l4 16q-46 -26 -80 -63l-10 4l10 22 l-53 -16q-83 23 -88 25q-67 21 -76 34l-14 27l-17 6l-29 27l-4 37l-39 38l7 5q-12 19 -21 65q-7 34 -7 57q0 7 1 13q36 40 43 82l10 4l6 -4q65 36 76 36v7l37 6l33 -6l26 10l11 -10l32 -7l13 -16l43 -10l43 -66l4 -43l12 -4q-14 -31 -14 -60q0 -11 2 -22l-53 -63l-33 -12 h-33l-16 6l-11 -11l-4 11h-32l-13 26v23l-10 -17l-10 11l-6 16l12 6l-12 4l-4 60l26 49l27 10l-6 -16h22l10 -11l11 7l-11 -39l-10 -11l6 -26l-6 -33l17 -22l16 -5l4 -6l12 6l17 -6l4 11l22 16q22 49 22 76q0 5 -1 10l-4 -14h-13l7 53l-7 20l-47 45l-43 15q26 -17 37 -31 l-33 16h-49l-43 -28l-16 6l-4 -17l-10 -6l-13 -20l-4 6q-18 -41 -18 -87q0 -14 2 -28l16 -4q21 -36 21 -55l32 -16l23 -33h20l23 -21l20 17q29 -23 82 -23q67 23 156 27l22 28l11 -16l22 16l4 60l17 -23l22 33q15 100 15 174q0 19 -11 70h-43q-23 4 -62 36.5t-46 55.5 l-21 12l-16 31l-16 -4l-11 20h-10l-12 66q-63 63 -76 129v47l-16 20l12 66l20 6l7 -22l10 32l26 17v7q0 127 136 263h6l20 27h17l12 16h10v10q35 45 96 103l17 43h12q16 37 53 79q42 47 76 56l21 -4zM907 1577l-4 -15l-35 10q-22 24 -57 58q-32 20 -88 67q-18 29 -54 78 q-34 27 -92 80l6 19l15 8l-6 20l20 21h66l55 -25q19 -30 18 -49l-8 -4l8 -17l31 -22l8 -31q26 -16 45 -41l-6 -30q36 -19 60 -54v-24l10 -23v-12z"/>
</font>
</defs>
</svg>
